spectral-italic.ufo
<glyph name="dollar" format="2">
  <advance width="500"/>
  <unicode hex="0024"/>
  <outline>
    <contour>
      <point x="209" y="-10" type="curve" smooth="yes"/>
      <point x="334" y="-10"/>
      <point x="435" y="68"/>
      <point x="435" y="193" type="curve" smooth="yes"/>
      <point x="435" y="269"/>
      <point x="395" y="316"/>
      <point x="296" y="374" type="curve" smooth="yes"/>
      <point x="214" y="422"/>
      <point x="194" y="452"/>
      <point x="194" y="505" type="curve" smooth="yes"/>
      <point x="194" y="578"/>
      <point x="248" y="627"/>
      <point x="324" y="627" type="curve" smooth="yes"/>
      <point x="396" y="627"/>
      <point x="431" y="599"/>
      <point x="422" y="541" type="curve" smooth="yes"/>
      <point x="418" y="514" type="line"/>
      <point x="422" y="510" type="line"/>
      <point x="449" y="510" type="line" smooth="yes"/>
      <point x="478" y="510"/>
      <point x="493" y="524"/>
      <point x="493" y="556" type="curve" smooth="yes"/>
      <point x="493" y="581"/>
      <point x="483" y="606"/>
      <point x="459" y="629" type="curve" smooth="yes"/>
      <point x="432" y="654"/>
      <point x="397" y="670"/>
      <point x="339" y="670" type="curve" smooth="yes"/>
      <point x="229" y="670"/>
      <point x="122" y="587"/>
      <point x="122" y="479" type="curve" smooth="yes"/>
      <point x="122" y="405"/>
      <point x="157" y="359"/>
      <point x="230" y="319" type="curve" smooth="yes"/>
      <point x="329" y="264"/>
      <point x="361" y="227"/>
      <point x="361" y="169" type="curve" smooth="yes"/>
      <point x="361" y="96"/>
      <point x="315" y="31"/>
      <point x="209" y="31" type="curve" smooth="yes"/>
      <point x="149" y="31"/>
      <point x="120" y="75"/>
      <point x="130" y="141" type="curve" smooth="yes"/>
      <point x="134" y="168" type="line"/>
      <point x="129" y="172" type="line"/>
      <point x="102" y="172" type="line" smooth="yes"/>
      <point x="73" y="172"/>
      <point x="59.0" y="154.796530635"/>
      <point x="59" y="122" type="curve" smooth="yes"/>
      <point x="59" y="95"/>
      <point x="70" y="67"/>
      <point x="91" y="43" type="curve" smooth="yes"/>
      <point x="113" y="18"/>
      <point x="155" y="-10"/>
    </contour>
    <contour>
      <point x="144" y="-80" type="line"/>
      <point x="181" y="-80" type="line"/>
      <point x="317" y="740" type="line"/>
      <point x="280" y="740" type="line"/>
    </contour>
    <contour>
      <point x="236" y="-80" type="line"/>
      <point x="273" y="-80" type="line"/>
      <point x="409" y="740" type="line"/>
      <point x="373" y="740" type="line"/>
    </contour>
  </outline>
</glyph>
<glyph name="ampersand" format="2">
  <advance width="727.0"/>
  <unicode hex="0026"/>
  <outline>
    <contour>
      <point x="567" y="-10" type="curve" smooth="yes"/>
      <point x="613" y="-10"/>
      <point x="656" y="11"/>
      <point x="687" y="53" type="curve"/>
      <point x="678" y="64" type="line"/>
      <point x="676" y="64" type="line"/>
      <point x="658" y="48"/>
      <point x="640" y="41"/>
      <point x="617" y="41" type="curve" smooth="yes"/>
      <point x="565" y="41"/>
      <point x="518" y="81"/>
      <point x="472" y="141" type="curve"/>
      <point x="310" y="350" type="line" smooth="yes"/>
      <point x="251" y="426"/>
      <point x="221" y="473"/>
      <point x="221" y="528" type="curve" smooth="yes"/>
      <point x="221" y="597"/>
      <point x="269" y="629"/>
      <point x="320" y="629" type="curve" smooth="yes"/>
      <point x="371" y="629"/>
      <point x="403" y="599"/>
      <point x="403" y="551" type="curve" smooth="yes"/>
      <point x="403" y="502"/>
      <point x="376" y="446"/>
      <point x="265" y="389" type="curve"/>
      <point x="280" y="370" type="line"/>
      <point x="422" y="439"/>
      <point x="478" y="477"/>
      <point x="478" y="550" type="curve" smooth="yes"/>
      <point x="478" y="618"/>
      <point x="412" y="670"/>
      <point x="329" y="670" type="curve" smooth="yes"/>
      <point x="228" y="670"/>
      <point x="148" y="607"/>
      <point x="148" y="500" type="curve" smooth="yes"/>
      <point x="148" y="428"/>
      <point x="183" y="381"/>
      <point x="230" y="319" type="curve" smooth="yes"/>
      <point x="394" y="102" type="line"/>
      <point x="441" y="40"/>
      <point x="488" y="-10"/>
    </contour>
    <contour>
      <point x="187" y="-10" type="curve" smooth="yes"/>
      <point x="351" y="-10"/>
      <point x="471" y="130"/>
      <point x="601" y="350" type="curve"/>
      <point x="567" y="325" type="line"/>
      <point x="679" y="372" type="line"/>
      <point x="682" y="388" type="line"/>
      <point x="456" y="388" type="line"/>
      <point x="453" y="372" type="line"/>
      <point x="540" y="333" type="line"/>
      <point x="451" y="148"/>
      <point x="348" y="49"/>
      <point x="232" y="49" type="curve" smooth="yes"/>
      <point x="163" y="49"/>
      <point x="115" y="99"/>
      <point x="115" y="168" type="curve" smooth="yes"/>
      <point x="115" y="238"/>
      <point x="147" y="291"/>
      <point x="234" y="345" type="curve"/>
      <point x="215" y="364" type="line"/>
      <point x="87" y="293"/>
      <point x="30" y="239"/>
      <point x="30" y="136" type="curve" smooth="yes"/>
      <point x="30" y="53"/>
      <point x="90" y="-10"/>
    </contour>
  </outline>
</glyph>
<glyph name="parenleft" format="2">
  <advance width="250"/>
  <unicode hex="0028"/>
  <outline>
    <contour>
      <point x="150" y="-150" type="curve"/>
      <point x="170" y="-150" type="line"/>
      <point x="170" y="-147" type="line"/>
      <point x="129" y="-49"/>
      <point x="113" y="50"/>
      <point x="113" y="170" type="curve" smooth="yes"/>
      <point x="113" y="381"/>
      <point x="193" y="574"/>
      <point x="318" y="737" type="curve"/>
      <point x="318" y="740" type="line"/>
      <point x="298" y="740" type="line"/>
      <point x="156" y="599"/>
      <point x="55" y="406"/>
      <point x="55" y="195" type="curve" smooth="yes"/>
      <point x="55" y="69"/>
      <point x="89" y="-47"/>
    </contour>
  </outline>
</glyph>
<glyph name="asterisk" format="2">
  <advance width="376"/>
  <unicode hex="002A"/>
  <outline>
    <contour>
      <point x="107" y="468" type="line"/>
      <point x="151" y="432" type="line"/>
      <point x="236" y="556" type="line"/>
      <point x="280" y="432" type="line"/>
      <point x="335" y="468" type="line"/>
      <point x="257" y="574" type="line"/>
      <point x="396" y="600" type="line"/>
      <point x="387" y="659" type="line"/>
      <point x="253" y="598" type="line"/>
      <point x="295" y="740" type="line"/>
      <point x="238" y="740" type="line"/>
      <point x="233" y="598" type="line"/>
      <point x="119" y="659" type="line"/>
      <point x="90" y="600" type="line"/>
      <point x="221" y="574" type="line"/>
    </contour>
  </outline>
</glyph>
<glyph name="comma" format="2">
  <advance width="239.0"/>
  <unicode hex="002C"/>
  <outline>
    <contour>
      <point x="-2" y="-192" type="line"/>
      <point x="112" y="-134"/>
      <point x="155" y="-68"/>
      <point x="155" y="-10" type="curve" smooth="yes"/>
      <point x="155" y="29"/>
      <point x="142" y="60"/>
      <point x="109" y="83" type="curve" smooth="yes"/>
      <point x="100" y="89"/>
      <point x="94" y="92"/>
      <point x="87" y="92" type="curve" smooth="yes"/>
      <point x="79" y="92"/>
      <point x="73" y="88"/>
      <point x="59" y="70" type="curve" smooth="yes"/>
      <point x="35" y="40" type="line"/>
      <point x="35" y="30" type="line"/>
      <point x="64" y="11" type="line" smooth="yes"/>
      <point x="87" y="-4"/>
      <point x="97" y="-22"/>
      <point x="97" y="-51" type="curve" smooth="yes"/>
      <point x="97" y="-92"/>
      <point x="72" y="-132"/>
      <point x="-2" y="-174" type="curve"/>
    </contour>
  </outline>
</glyph>
<glyph name="two" format="2">
  <advance width="500"/>
  <unicode hex="0032"/>
  <outline>
    <contour>
      <point x="-1" y="0" type="line"/>
      <point x="379" y="0" type="line"/>
      <point x="420" y="179" type="line"/>
      <point x="404" y="179" type="line"/>
      <point x="341" y="73" type="line"/>
      <point x="86" y="73" type="line"/>
      <point x="92" y="55" type="line"/>
      <point x="406" y="348"/>
      <point x="465" y="417"/>
      <point x="465" y="523" type="curve" smooth="yes"/>
      <point x="465" y="606"/>
      <point x="402" y="670"/>
      <point x="316" y="670" type="curve" smooth="yes"/>
      <point x="241" y="670"/>
      <point x="205" y="645"/>
      <point x="149" y="608" type="curve" smooth="yes"/>
      <point x="103" y="578"/>
      <point x="89" y="538"/>
      <point x="83" y="503" type="curve" smooth="yes"/>
      <point x="76" y="466"/>
      <point x="90" y="469"/>
      <point x="115" y="469" type="curve" smooth="yes"/>
      <point x="151" y="469" type="line"/>
      <point x="160" y="479" type="line"/>
      <point x="166" y="513" type="line" smooth="yes"/>
      <point x="179" y="586"/>
      <point x="212" y="623"/>
      <point x="278" y="623" type="curve" smooth="yes"/>
      <point x="330" y="623"/>
      <point x="381" y="583"/>
      <point x="381" y="516" type="curve" smooth="yes"/>
      <point x="381" y="416"/>
      <point x="350" y="363"/>
      <point x="4" y="25" type="curve"/>
    </contour>
  </outline>
</glyph>
<glyph name="eight" format="2">
  <advance width="500"/>
  <unicode hex="0038"/>
  <outline>
    <contour>
      <point x="202" y="-10" type="curve" smooth="yes"/>
      <point x="327" y="-10"/>
      <point x="424" y="78"/>
      <point x="424" y="171" type="curve" smooth="yes"/>
      <point x="424" y="240"/>
      <point x="398" y="294"/>
      <point x="280" y="370" type="curve" smooth="yes"/>
      <point x="196" y="425"/>
      <point x="178" y="468"/>
      <point x="178" y="518" type="curve" smooth="yes"/>
      <point x="178" y="580"/>
      <point x="214" y="628"/>
      <point x="287" y="628" type="curve" smooth="yes"/>
      <point x="352" y="628"/>
      <point x="388" y="590"/>
      <point x="388" y="518" type="curve" smooth="yes"/>
      <point x="388" y="448"/>
      <point x="355" y="414"/>
      <point x="258" y="363" type="curve"/>
      <point x="273" y="333" type="line"/>
      <point x="416" y="402"/>
      <point x="467" y="459"/>
      <point x="467" y="525" type="curve" smooth="yes"/>
      <point x="467" y="605"/>
      <point x="400" y="670"/>
      <point x="306" y="670" type="curve" smooth="yes"/>
      <point x="194" y="670"/>
      <point x="97" y="586"/>
      <point x="97" y="487" type="curve" smooth="yes"/>
      <point x="97" y="422"/>
      <point x="128" y="381"/>
      <point x="220" y="319" type="curve" smooth="yes"/>
      <point x="303" y="264"/>
      <point x="348" y="228"/>
      <point x="348" y="157" type="curve" smooth="yes"/>
      <point x="348" y="83"/>
      <point x="300" y="31"/>
      <point x="217" y="31" type="curve" smooth="yes"/>
      <point x="141" y="31"/>
      <point x="98" y="73"/>
      <point x="98" y="149" type="curve" smooth="yes"/>
      <point x="98" y="217"/>
      <point x="120" y="250"/>
      <point x="226" y="319" type="curve"/>
      <point x="206" y="342" type="line"/>
      <point x="83" y="279"/>
      <point x="17" y="216"/>
      <point x="17" y="133" type="curve" smooth="yes"/>
      <point x="17" y="46"/>
      <point x="101" y="-10"/>
    </contour>
  </outline>
</glyph>
<glyph name="E" format="2">
  <advance width="621"/>
  <unicode hex="0045"/>
  <anchor x="399" y="710" name="top"/>
  <anchor x="444" y="0" name="right"/>
  <anchor x="289" y="0" name="bottom"/>
  <outline>
    <contour>
      <point x="10" y="0" type="line"/>
      <point x="171" y="0" type="line"/>
      <point x="288" y="660" type="line"/>
      <point x="126" y="660" type="line"/>
      <point x="123" y="644" type="line"/>
      <point x="192" y="604" type="line"/>
      <point x="96" y="56" type="line"/>
      <point x="13" y="16" type="line"/>
    </contour>
    <contour>
      <point x="539" y="488" type="line"/>
      <point x="555" y="488" type="line"/>
      <point x="586" y="660" type="line"/>
      <point x="237" y="660" type="line"/>
      <point x="228" y="610" type="line"/>
      <point x="502" y="610" type="line"/>
    </contour>
    <contour>
      <point x="420" y="232" type="line"/>
      <point x="436" y="232" type="line"/>
      <point x="475" y="451" type="line"/>
      <point x="459" y="451" type="line"/>
      <point x="397" y="366" type="line"/>
      <point x="193" y="366" type="line"/>
      <point x="184" y="316" type="line"/>
      <point x="389" y="316" type="line"/>
    </contour>
    <contour>
      <point x="511" y="0" type="line"/>
      <point x="543" y="182" type="line"/>
      <point x="527" y="182" type="line"/>
      <point x="447" y="50" type="line"/>
      <point x="157" y="50" type="line"/>
      <point x="148" y="0" type="line"/>
    </contour>
  </outline>
</glyph>
<glyph name="G" format="2">
  <advance width="739"/>
  <unicode hex="0047"/>
  <anchor x="463.0" y="710.0" name="top"/>
  <anchor x="332" y="0" name="bottom"/>
  <outline>
    <contour>
      <point x="320" y="-10" type="curve" smooth="yes"/>
      <point x="402" y="-10"/>
      <point x="502" y="23"/>
      <point x="569" y="74" type="curve"/>
      <point x="596" y="231" type="line"/>
      <point x="669" y="274" type="line"/>
      <point x="672" y="290" type="line"/>
      <point x="437" y="290" type="line"/>
      <point x="433" y="274" type="line"/>
      <point x="511" y="234" type="line"/>
      <point x="481" y="61" type="line"/>
      <point x="512" y="82" type="line"/>
      <point x="454" y="53"/>
      <point x="407" y="45"/>
      <point x="357" y="45" type="curve" smooth="yes"/>
      <point x="237" y="45"/>
      <point x="152" y="132"/>
      <point x="152" y="285" type="curve" smooth="yes"/>
      <point x="152" y="466"/>
      <point x="255" y="624"/>
      <point x="443" y="624" type="curve" smooth="yes"/>
      <point x="502" y="624"/>
      <point x="539" y="609"/>
      <point x="575" y="571" type="curve"/>
      <point x="615" y="457" type="line"/>
      <point x="631" y="457" type="line"/>
      <point x="657" y="622" type="line"/>
      <point x="588" y="660"/>
      <point x="538" y="671"/>
      <point x="455" y="671" type="curve" smooth="yes"/>
      <point x="245" y="671"/>
      <point x="60" y="487"/>
      <point x="60" y="259" type="curve" smooth="yes"/>
      <point x="60" y="101"/>
      <point x="154" y="-10"/>
    </contour>
  </outline>
</glyph>
<glyph name="J" format="2">
  <advance width="375"/>
  <unicode hex="004A"/>
  <anchor x="261" y="710" name="top"/>
  <outline>
    <contour>
      <point x="-34" y="-173" type="curve" smooth="yes"/>
      <point x="3" y="-173"/>
      <point x="20" y="-162"/>
      <point x="85" y="-99" type="curve" smooth="yes"/>
      <point x="152" y="-35"/>
      <point x="194" y="90"/>
      <point x="220" y="240" type="curve" smooth="yes"/>
      <point x="285" y="604" type="line"/>
      <point x="367" y="644" type="line"/>
      <point x="370" y="660" type="line"/>
      <point x="133" y="660" type="line"/>
      <point x="130" y="644" type="line"/>
      <point x="199" y="604" type="line"/>
      <point x="101" y="51" type="line" smooth="yes"/>
      <point x="78" y="-83"/>
      <point x="49" y="-100"/>
      <point x="8" y="-100" type="curve" smooth="yes"/>
      <point x="-9" y="-100"/>
      <point x="-18" y="-97"/>
      <point x="-38" y="-91" type="curve"/>
      <point x="-44" y="-91" type="line"/>
      <point x="-57" y="-130" type="line" smooth="yes"/>
      <point x="-68" y="-162"/>
      <point x="-52.333333333333336" y="-173.0"/>
    </contour>
  </outline>
</glyph>
<glyph name="K" format="2">
  <advance width="700"/>
  <unicode hex="004B"/>
  <anchor x="430.0" y="710.0" name="top"/>
  <anchor x="320" y="0" name="bottom"/>
  <outline>
    <contour>
      <point x="10" y="0" type="line"/>
      <point x="247" y="0" type="line"/>
      <point x="251" y="16" type="line"/>
      <point x="181" y="56" type="line"/>
      <point x="278" y="604" type="line"/>
      <point x="360" y="644" type="line"/>
      <point x="364" y="660" type="line"/>
      <point x="126" y="660" type="line"/>
      <point x="123" y="644" type="line"/>
      <point x="192" y="604" type="line"/>
      <point x="96" y="56" type="line"/>
      <point x="13" y="16" type="line"/>
    </contour>
    <contour>
      <point x="480" y="0" type="line"/>
      <point x="610" y="0" type="line"/>
      <point x="613" y="16" type="line"/>
      <point x="552" y="52" type="line"/>
      <point x="301" y="381" type="line"/>
      <point x="295" y="338" type="line"/>
      <point x="632" y="632" type="line"/>
      <point x="592" y="610" type="line"/>
      <point x="680" y="644" type="line"/>
      <point x="684" y="660" type="line"/>
      <point x="484" y="660" type="line"/>
      <point x="481" y="644" type="line"/>
      <point x="567" y="597" type="line"/>
      <point x="568" y="632" type="line"/>
      <point x="232" y="338" type="line"/>
    </contour>
  </outline>
</glyph>
<glyph name="Q" format="2">
  <advance width="766.0"/>
  <unicode hex="0051"/>
  <outline>
    <contour>
      <point x="332" y="-10" type="curve" smooth="yes"/>
      <point x="551" y="-10"/>
      <point x="706" y="182"/>
      <point x="706" y="378" type="curve" smooth="yes"/>
      <point x="706" y="551"/>
      <point x="598" y="671"/>
      <point x="433" y="671" type="curve" smooth="yes"/>
      <point x="219" y="671"/>
      <point x="60" y="483"/>
      <point x="60" y="282" type="curve" smooth="yes"/>
      <point x="60" y="109"/>
      <point x="168" y="-10"/>
    </contour>
    <contour>
      <point x="364" y="38" type="curve" smooth="yes"/>
      <point x="237" y="38"/>
      <point x="151" y="142"/>
      <point x="151" y="292" type="curve" smooth="yes"/>
      <point x="151" y="478"/>
      <point x="257" y="625"/>
      <point x="406" y="625" type="curve" smooth="yes"/>
      <point x="531" y="625"/>
      <point x="616" y="521"/>
      <point x="616" y="370" type="curve" smooth="yes"/>
      <point x="616" y="190"/>
      <point x="512" y="38"/>
    </contour>
    <contour>
      <point x="602" y="-149" type="curve" smooth="yes"/>
      <point x="649" y="-149"/>
      <point x="695" y="-137"/>
      <point x="725" y="-122" type="curve"/>
      <point x="728" y="-106" type="line"/>
      <point x="716" y="-111"/>
      <point x="699" y="-114"/>
      <point x="681" y="-114" type="curve" smooth="yes"/>
      <point x="610" y="-114"/>
      <point x="563" y="-90"/>
      <point x="442" y="16" type="curve"/>
      <point x="312" y="16" type="line"/>
      <point x="447" y="-126"/>
      <point x="523" y="-149"/>
    </contour>
  </outline>
</glyph>
<glyph name="S" format="2">
  <advance width="489.0"/>
  <unicode hex="0053"/>
  <anchor x="318" y="710" name="top"/>
  <anchor x="181" y="0" name="bottom"/>
  <outline>
    <contour>
      <point x="177" y="-10" type="curve" smooth="yes"/>
      <point x="299" y="-10"/>
      <point x="411" y="75"/>
      <point x="411" y="199" type="curve" smooth="yes"/>
      <point x="411" y="273"/>
      <point x="375" y="315"/>
      <point x="272" y="373" type="curve" smooth="yes"/>
      <point x="201" y="413"/>
      <point x="174" y="444"/>
      <point x="174" y="492" type="curve" smooth="yes"/>
      <point x="174" y="573"/>
      <point x="229" y="626"/>
      <point x="291" y="626" type="curve" smooth="yes"/>
      <point x="337" y="626"/>
      <point x="365" y="606"/>
      <point x="388" y="584" type="curve"/>
      <point x="425" y="468" type="line"/>
      <point x="441" y="468" type="line"/>
      <point x="459" y="628" type="line"/>
      <point x="413" y="655"/>
      <point x="369" y="670"/>
      <point x="310" y="670" type="curve" smooth="yes"/>
      <point x="204" y="670"/>
      <point x="98" y="584"/>
      <point x="98" y="471" type="curve" smooth="yes"/>
      <point x="98" y="405"/>
      <point x="131" y="360"/>
      <point x="206" y="318" type="curve" smooth="yes"/>
      <point x="298" y="267"/>
      <point x="328" y="235"/>
      <point x="328" y="181" type="curve" smooth="yes"/>
      <point x="328" y="93"/>
      <point x="279" y="32"/>
      <point x="185" y="32" type="curve" smooth="yes"/>
      <point x="146" y="32"/>
      <point x="110" y="47"/>
      <point x="74" y="83" type="curve"/>
      <point x="35" y="200" type="line"/>
      <point x="19" y="200" type="line"/>
      <point x="0" y="36" type="line"/>
      <point x="54" y="5"/>
      <point x="99" y="-10"/>
    </contour>
  </outline>
</glyph>
<glyph name="U" format="2">
  <advance width="783"/>
  <unicode hex="0055"/>
  <anchor x="464" y="710" name="top"/>
  <anchor x="368" y="0" name="right"/>
  <anchor x="346" y="0" name="bottom"/>
  <outline>
    <contour>
      <point x="342" y="-10" type="curve" smooth="yes"/>
      <point x="486" y="-10"/>
      <point x="594" y="65"/>
      <point x="627" y="256" type="curve" smooth="yes"/>
      <point x="688" y="605" type="line"/>
      <point x="770" y="644" type="line"/>
      <point x="773" y="660" type="line"/>
      <point x="537" y="660" type="line"/>
      <point x="533" y="644" type="line"/>
      <point x="622" y="606" type="line"/>
      <point x="557" y="236" type="line" smooth="yes"/>
      <point x="534" y="106"/>
      <point x="452" y="43"/>
      <point x="368" y="43" type="curve" smooth="yes"/>
      <point x="269" y="43"/>
      <point x="212" y="88"/>
      <point x="212" y="196" type="curve" smooth="yes"/>
      <point x="212" y="217"/>
      <point x="216" y="245"/>
      <point x="221" y="271" type="curve" smooth="yes"/>
      <point x="280" y="604" type="line"/>
      <point x="362" y="644" type="line"/>
      <point x="366" y="660" type="line"/>
      <point x="128" y="660" type="line"/>
      <point x="125" y="644" type="line"/>
      <point x="194" y="604" type="line"/>
      <point x="133" y="256" type="line" smooth="yes"/>
      <point x="129" y="231"/>
      <point x="126" y="208"/>
      <point x="126" y="186" type="curve" smooth="yes"/>
      <point x="126" y="50"/>
      <point x="214" y="-10"/>
    </contour>
  </outline>
</glyph>
<glyph name="V" format="2">
  <advance width="700"/>
  <unicode hex="0056"/>
  <outline>
    <contour>
      <point x="281" y="-5" type="line"/>
      <point x="324" y="-5" type="line"/>
      <point x="678" y="632" type="line"/>
      <point x="644" y="600" type="line"/>
      <point x="726" y="644" type="line"/>
      <point x="730" y="660" type="line"/>
      <point x="530" y="660" type="line"/>
      <point x="527" y="644" type="line"/>
      <point x="617" y="606" type="line"/>
      <point x="619" y="632" type="line"/>
      <point x="309" y="61" type="line"/>
      <point x="368" y="128" type="line"/>
      <point x="317" y="128" type="line"/>
      <point x="353" y="61" type="line"/>
      <point x="234" y="632" type="line"/>
      <point x="217" y="602" type="line"/>
      <point x="328" y="644" type="line"/>
      <point x="331" y="660" type="line"/>
      <point x="94" y="660" type="line"/>
      <point x="90" y="644" type="line"/>
      <point x="186" y="588" type="line"/>
      <point x="145" y="632" type="line"/>
    </contour>
  </outline>
</glyph>
<glyph name="W" format="2">
  <advance width="947"/>
  <unicode hex="0057"/>
  <anchor x="568.0" y="710.0" name="top"/>
  <outline>
    <contour>
      <point x="226" y="-5" type="line"/>
      <point x="262" y="-5" type="line"/>
      <point x="541" y="543" type="line"/>
      <point x="494" y="494" type="line"/>
      <point x="545" y="494" type="line"/>
      <point x="514" y="543" type="line"/>
      <point x="610" y="-5" type="line"/>
      <point x="645" y="-5" type="line"/>
      <point x="935" y="632" type="line"/>
      <point x="908" y="603" type="line"/>
      <point x="994" y="644" type="line"/>
      <point x="997" y="660" type="line"/>
      <point x="787" y="660" type="line"/>
      <point x="784" y="644" type="line"/>
      <point x="882" y="603" type="line"/>
      <point x="875" y="632" type="line"/>
      <point x="655" y="129" type="line"/>
      <point x="692" y="159" type="line"/>
      <point x="641" y="159" type="line"/>
      <point x="668" y="129" type="line"/>
      <point x="578" y="665" type="line"/>
      <point x="543" y="665" type="line"/>
      <point x="276" y="122" type="line"/>
      <point x="315" y="158" type="line"/>
      <point x="264" y="158" type="line"/>
      <point x="291" y="122" type="line"/>
      <point x="238" y="632" type="line"/>
      <point x="211" y="596" type="line"/>
      <point x="332" y="644" type="line"/>
      <point x="335" y="660" type="line"/>
      <point x="94" y="660" type="line"/>
      <point x="90" y="644" type="line"/>
      <point x="174" y="596" type="line"/>
      <point x="153" y="632" type="line"/>
    </contour>
  </outline>
</glyph>
<glyph name="X" format="2">
  <advance width="702.0"/>
  <unicode hex="0058"/>
  <outline>
    <contour>
      <point x="377" y="0" type="line"/>
      <point x="619" y="0" type="line"/>
      <point x="622" y="16" type="line"/>
      <point x="526" y="75" type="line"/>
      <point x="579" y="23" type="line"/>
      <point x="253" y="606" type="line"/>
      <point x="254" y="611" type="line"/>
      <point x="347" y="644" type="line"/>
      <point x="350" y="660" type="line"/>
      <point x="113" y="660" type="line"/>
      <point x="110" y="644" type="line"/>
      <point x="205" y="585" type="line"/>
      <point x="152" y="632" type="line"/>
      <point x="468" y="54" type="line"/>
      <point x="467" y="50" type="line"/>
      <point x="380" y="16" type="line"/>
    </contour>
    <contour>
      <point x="-25" y="0" type="line"/>
      <point x="196" y="0" type="line"/>
      <point x="199" y="16" type="line"/>
      <point x="124" y="50" type="line"/>
      <point x="124" y="54" type="line"/>
      <point x="350" y="305" type="line"/>
      <point x="326" y="349" type="line"/>
      <point x="38" y="36" type="line"/>
      <point x="87" y="68" type="line"/>
      <point x="-21" y="16" type="line"/>
    </contour>
    <contour>
      <point x="714" y="644" type="line"/>
      <point x="717" y="660" type="line"/>
      <point x="512" y="660" type="line"/>
      <point x="509" y="644" type="line"/>
      <point x="578" y="610" type="line"/>
      <point x="578" y="606" type="line"/>
      <point x="366" y="369" type="line"/>
      <point x="388" y="323" type="line"/>
      <point x="671" y="632" type="line"/>
      <point x="593" y="581" type="line"/>
    </contour>
  </outline>
</glyph>
<glyph name="bracketleft" format="2">
  <advance width="250"/>
  <unicode hex="005B"/>
  <outline>
    <contour>
      <point x="5" y="-150" type="line"/>
      <point x="66" y="-150" type="line"/>
      <point x="214" y="740" type="line"/>
      <point x="154" y="740" type="line"/>
    </contour>
    <contour>
      <point x="156" y="740" type="line"/>
      <point x="152" y="717" type="line"/>
      <point x="321" y="717" type="line"/>
      <point x="325" y="740" type="line"/>
    </contour>
    <contour>
      <point x="7" y="-150" type="line"/>
      <point x="176" y="-150" type="line"/>
      <point x="180" y="-127" type="line"/>
      <point x="11" y="-127" type="line"/>
    </contour>
  </outline>
</glyph>
<glyph name="a" format="2">
  <advance width="507.0"/>
  <unicode hex="0061"/>
  <anchor x="306.0" y="510.0" name="top"/>
  <anchor x="407.0" y="0.0" name="right"/>
  <anchor x="238.0" y="0.0" name="bottom"/>
  <outline>
    <contour>
      <point x="136" y="-10" type="curve" smooth="yes"/>
      <point x="197" y="-10"/>
      <point x="254" y="38"/>
      <point x="304" y="115" type="curve"/>
      <point x="338" y="115" type="line"/>
      <point x="338" y="200" type="line"/>
      <point x="304" y="139"/>
      <point x="242" y="56"/>
      <point x="183" y="56" type="curve" smooth="yes"/>
      <point x="136" y="56"/>
      <point x="123" y="92"/>
      <point x="123" y="167" type="curve" smooth="yes"/>
      <point x="123" y="295"/>
      <point x="181" y="421"/>
      <point x="267" y="421" type="curve" smooth="yes"/>
      <point x="308" y="421"/>
      <point x="332" y="400"/>
      <point x="359" y="361" type="curve"/>
      <point x="356" y="389" type="line"/>
      <point x="303" y="89" type="line" smooth="yes"/>
      <point x="292" y="29"/>
      <point x="309" y="-10"/>
      <point x="356" y="-10" type="curve" smooth="yes"/>
      <point x="403" y="-10"/>
      <point x="448" y="32"/>
      <point x="487" y="132" type="curve"/>
      <point x="474" y="138" type="line"/>
      <point x="450" y="87"/>
      <point x="422" y="63"/>
      <point x="399" y="63" type="curve" smooth="yes"/>
      <point x="381" y="63"/>
      <point x="377" y="79"/>
      <point x="384" y="119" type="curve" smooth="yes"/>
      <point x="445" y="460" type="line"/>
      <point x="420" y="460" type="line"/>
      <point x="369" y="427" type="line"/>
      <point x="413" y="416" type="line"/>
      <point x="392" y="440"/>
      <point x="345" y="460"/>
      <point x="296" y="460" type="curve" smooth="yes"/>
      <point x="161" y="460"/>
      <point x="47" y="293"/>
      <point x="47" y="128" type="curve" smooth="yes"/>
      <point x="47" y="36"/>
      <point x="83" y="-10"/>
    </contour>
  </outline>
</glyph>
<glyph name="c" format="2">
  <advance width="427.0"/>
  <unicode hex="0063"/>
  <anchor x="306" y="510" name="top"/>
  <anchor x="195" y="0" name="bottom"/>
  <outline>
    <contour>
      <point x="198" y="-10" type="curve" smooth="yes"/>
      <point x="266" y="-10"/>
      <point x="323" y="39"/>
      <point x="380" y="140" type="curve"/>
      <point x="370" y="148" type="line"/>
      <point x="368" y="148" type="line"/>
      <point x="308" y="64"/>
      <point x="263" y="52"/>
      <point x="229" y="52" type="curve" smooth="yes"/>
      <point x="156" y="52"/>
      <point x="125" y="105"/>
      <point x="125" y="199" type="curve" smooth="yes"/>
      <point x="125" y="307"/>
      <point x="188" y="416"/>
      <point x="254" y="416" type="curve" smooth="yes"/>
      <point x="295" y="416"/>
      <point x="312" y="401"/>
      <point x="334" y="369" type="curve" smooth="yes"/>
      <point x="354" y="340" type="line"/>
      <point x="361" y="340" type="line"/>
      <point x="390" y="357" type="line" smooth="yes"/>
      <point x="401" y="363"/>
      <point x="405" y="374"/>
      <point x="405" y="383" type="curve" smooth="yes"/>
      <point x="405" y="392"/>
      <point x="403" y="399"/>
      <point x="395" y="411" type="curve" smooth="yes"/>
      <point x="376" y="440"/>
      <point x="347" y="460"/>
      <point x="298" y="460" type="curve" smooth="yes"/>
      <point x="172" y="460"/>
      <point x="50" y="298"/>
      <point x="50" y="160" type="curve" smooth="yes"/>
      <point x="50" y="49"/>
      <point x="102" y="-10"/>
    </contour>
  </outline>
</glyph>
<glyph name="d" format="2">
  <advance width="515.0"/>
  <unicode hex="0064"/>
  <anchor x="618.0" y="740.0" name="right"/>
  <anchor x="232.0" y="0.0" name="bottom"/>
  <outline>
    <contour>
      <point x="139" y="-10" type="curve" smooth="yes"/>
      <point x="196" y="-10"/>
      <point x="250" y="30"/>
      <point x="307" y="115" type="curve"/>
      <point x="341" y="115" type="line"/>
      <point x="341" y="200" type="line"/>
      <point x="293" y="114"/>
      <point x="232" y="56"/>
      <point x="186" y="56" type="curve" smooth="yes"/>
      <point x="144" y="56"/>
      <point x="126" y="83"/>
      <point x="126" y="167" type="curve" smooth="yes"/>
      <point x="126" y="305"/>
      <point x="190" y="421"/>
      <point x="270" y="421" type="curve" smooth="yes"/>
      <point x="306" y="421"/>
      <point x="329" y="405"/>
      <point x="361" y="361" type="curve"/>
      <point x="359" y="389" type="line"/>
      <point x="306" y="89" type="line" smooth="yes"/>
      <point x="295" y="29"/>
      <point x="312" y="-10"/>
      <point x="359" y="-10" type="curve" smooth="yes"/>
      <point x="406" y="-10"/>
      <point x="451" y="32"/>
      <point x="490" y="132" type="curve"/>
      <point x="477" y="138" type="line"/>
      <point x="453" y="87"/>
      <point x="425" y="63"/>
      <point x="402" y="63" type="curve" smooth="yes"/>
      <point x="384" y="63"/>
      <point x="380" y="79"/>
      <point x="387" y="119" type="curve" smooth="yes"/>
      <point x="498" y="750" type="line"/>
      <point x="495" y="750" type="line"/>
      <point x="322" y="720" type="line"/>
      <point x="322" y="714" type="line"/>
      <point x="409" y="680" type="line"/>
      <point x="365" y="430" type="line"/>
      <point x="416" y="416" type="line"/>
      <point x="395" y="440"/>
      <point x="348" y="460"/>
      <point x="299" y="460" type="curve" smooth="yes"/>
      <point x="164" y="460"/>
      <point x="50" y="293"/>
      <point x="50" y="128" type="curve" smooth="yes"/>
      <point x="50" y="36"/>
      <point x="86" y="-10"/>
    </contour>
  </outline>
</glyph>
<glyph name="e" format="2">
  <advance width="443.0"/>
  <unicode hex="0065"/>
  <anchor x="280" y="0" name="right"/>
  <anchor x="208" y="0" name="bottom"/>
  <anchor x="309" y="510" name="top"/>
  <outline>
    <contour>
      <point x="199" y="-10" type="curve" smooth="yes"/>
      <point x="264" y="-10"/>
      <point x="332" y="42"/>
      <point x="377" y="121" type="curve"/>
      <point x="367" y="129" type="line"/>
      <point x="365" y="129" type="line"/>
      <point x="320" y="75"/>
      <point x="278" y="52"/>
      <point x="234" y="52" type="curve" smooth="yes"/>
      <point x="159" y="52"/>
      <point x="126" y="103"/>
      <point x="126" y="185" type="curve" smooth="yes"/>
      <point x="126" y="323"/>
      <point x="185" y="425"/>
      <point x="275" y="425" type="curve" smooth="yes"/>
      <point x="308" y="425"/>
      <point x="326" y="405"/>
      <point x="326" y="378" type="curve" smooth="yes"/>
      <point x="326" y="315"/>
      <point x="280" y="288"/>
      <point x="120" y="261" type="curve"/>
      <point x="114" y="225" type="line"/>
      <point x="341" y="260"/>
      <point x="403" y="314"/>
      <point x="403" y="383" type="curve" smooth="yes"/>
      <point x="403" y="424"/>
      <point x="369" y="460"/>
      <point x="302" y="460" type="curve" smooth="yes"/>
      <point x="161" y="460"/>
      <point x="50" y="305"/>
      <point x="50" y="148" type="curve" smooth="yes"/>
      <point x="50" y="51"/>
      <point x="97" y="-10"/>
    </contour>
  </outline>
</glyph>
<glyph name="o" format="2">
  <advance width="509.0"/>
  <unicode hex="006F"/>
  <anchor x="298" y="510" name="top"/>
  <anchor x="249.0" y="0.0" name="right"/>
  <anchor x="221.0" y="0.0" name="bottom"/>
  <outline>
    <contour>
      <point x="220" y="-10" type="curve" smooth="yes"/>
      <point x="366" y="-10"/>
      <point x="459" y="145"/>
      <point x="459" y="266" type="curve" smooth="yes"/>
      <point x="459" y="380"/>
      <point x="405" y="460"/>
      <point x="289" y="460" type="curve" smooth="yes"/>
      <point x="147" y="460"/>
      <point x="50" y="309"/>
      <point x="50" y="184" type="curve" smooth="yes"/>
      <point x="50" y="70"/>
      <point x="104" y="-10"/>
    </contour>
    <contour>
      <point x="231" y="28" type="curve" smooth="yes"/>
      <point x="159.0" y="28.0"/>
      <point x="137.0" y="82.0"/>
      <point x="137" y="181" type="curve" smooth="yes"/>
      <point x="137.0" y="326.0"/>
      <point x="195.0" y="423.0"/>
      <point x="280" y="423" type="curve" smooth="yes"/>
      <point x="351.0" y="423.0"/>
      <point x="372.0" y="370.0"/>
      <point x="372" y="272" type="curve" smooth="yes"/>
      <point x="372.0" y="140.0"/>
      <point x="318.0" y="28.0"/>
    </contour>
  </outline>
</glyph>
<glyph name="r" format="2">
  <advance width="345.0"/>
  <unicode hex="0072"/>
  <anchor x="227" y="510" name="top"/>
  <anchor x="82" y="0" name="bottom"/>
  <outline>
    <contour>
      <point x="43" y="0" type="line"/>
      <point x="119" y="0" type="line"/>
      <point x="178" y="337" type="line"/>
      <point x="178" y="460" type="line"/>
      <point x="175" y="460" type="line"/>
      <point x="34" y="430" type="line"/>
      <point x="34" y="424" type="line"/>
      <point x="112" y="389" type="line"/>
    </contour>
    <contour>
      <point x="275" y="379" type="curve" smooth="yes"/>
      <point x="287" y="379"/>
      <point x="300" y="376"/>
      <point x="311" y="368" type="curve" smooth="yes"/>
      <point x="322" y="360" type="line"/>
      <point x="328" y="360" type="line"/>
      <point x="353" y="411" type="line" smooth="yes"/>
      <point x="355" y="415"/>
      <point x="356" y="419"/>
      <point x="356" y="422" type="curve" smooth="yes"/>
      <point x="356" y="442"/>
      <point x="332" y="460"/>
      <point x="308" y="460" type="curve" smooth="yes"/>
      <point x="279" y="460"/>
      <point x="245" y="454"/>
      <point x="182" y="337" type="curve"/>
      <point x="158" y="337" type="line"/>
      <point x="158" y="255" type="line"/>
      <point x="218" y="363"/>
      <point x="238" y="379"/>
    </contour>
  </outline>
</glyph>
<glyph name="u" format="2">
  <advance width="522.0"/>
  <unicode hex="0075"/>
  <anchor x="307" y="510" name="top"/>
  <anchor x="215" y="0" name="bottom"/>
  <anchor x="427" y="0" name="right"/>
  <outline>
    <contour>
      <point x="159" y="-10" type="curve" smooth="yes"/>
      <point x="220" y="-10"/>
      <point x="253" y="19"/>
      <point x="321" y="95" type="curve"/>
      <point x="340" y="95" type="line"/>
      <point x="340" y="150" type="line"/>
      <point x="309" y="115"/>
      <point x="257" y="51"/>
      <point x="212" y="51" type="curve" smooth="yes"/>
      <point x="171" y="51"/>
      <point x="154" y="81"/>
      <point x="154" y="118" type="curve" smooth="yes"/>
      <point x="154" y="125"/>
      <point x="155" y="135"/>
      <point x="158" y="154" type="curve" smooth="yes"/>
      <point x="210" y="460" type="line"/>
      <point x="206" y="460" type="line"/>
      <point x="46" y="430" type="line"/>
      <point x="46" y="424" type="line"/>
      <point x="124" y="389" type="line"/>
      <point x="79" y="138" type="line" smooth="yes"/>
      <point x="77" y="124"/>
      <point x="75" y="111"/>
      <point x="75" y="98" type="curve" smooth="yes"/>
      <point x="75" y="31"/>
      <point x="110" y="-10"/>
    </contour>
    <contour>
      <point x="376" y="-10" type="curve" smooth="yes"/>
      <point x="423" y="-10"/>
      <point x="468" y="32"/>
      <point x="507" y="132" type="curve"/>
      <point x="494" y="138" type="line"/>
      <point x="470" y="87"/>
      <point x="442" y="63"/>
      <point x="419" y="63" type="curve" smooth="yes"/>
      <point x="399.0" y="63.0"/>
      <point x="395.0" y="79.0"/>
      <point x="402" y="119" type="curve" smooth="yes"/>
      <point x="462" y="460" type="line"/>
      <point x="458" y="460" type="line"/>
      <point x="306" y="430" type="line"/>
      <point x="306" y="424" type="line"/>
      <point x="375" y="389" type="line"/>
      <point x="323" y="89" type="line" smooth="yes"/>
      <point x="313.0" y="29.0"/>
      <point x="329.0" y="-10.0"/>
    </contour>
  </outline>
</glyph>
<glyph name="v" format="2">
  <advance width="448.0"/>
  <unicode hex="0076"/>
  <outline>
    <contour>
      <point x="197" y="0" type="line"/>
      <point x="210" y="0" type="line"/>
      <point x="260" y="75" type="line"/>
      <point x="260" y="111" type="line"/>
      <point x="250" y="111" type="line"/>
      <point x="174" y="460" type="line"/>
      <point x="171" y="460" type="line"/>
      <point x="23" y="430" type="line"/>
      <point x="23" y="424" type="line"/>
      <point x="136" y="384" type="line"/>
      <point x="101" y="423" type="line"/>
    </contour>
    <contour>
      <point x="218" y="0" type="line"/>
      <point x="371" y="228" type="line" smooth="yes"/>
      <point x="424" y="307"/>
      <point x="443" y="349"/>
      <point x="443" y="381" type="curve" smooth="yes"/>
      <point x="443" y="414"/>
      <point x="416" y="460"/>
      <point x="384" y="460" type="curve" smooth="yes"/>
      <point x="369" y="460"/>
      <point x="364" y="456"/>
      <point x="354" y="437" type="curve" smooth="yes"/>
      <point x="338" y="407" type="line"/>
      <point x="338" y="403" type="line"/>
      <point x="351" y="395" type="line" smooth="yes"/>
      <point x="367" y="385"/>
      <point x="379" y="374"/>
      <point x="379" y="353" type="curve" smooth="yes"/>
      <point x="379" y="328"/>
      <point x="376" y="293"/>
      <point x="329" y="223" type="curve" smooth="yes"/>
      <point x="205" y="38" type="line"/>
      <point x="205" y="0" type="line"/>
    </contour>
  </outline>
</glyph>
<glyph name="w" format="2">
  <advance width="664"/>
  <unicode hex="0077"/>
  <anchor x="406.0" y="510.0" name="top"/>
  <outline>
    <contour>
      <point x="186" y="0" type="line"/>
      <point x="202" y="0" type="line"/>
      <point x="242" y="84" type="line"/>
      <point x="242" y="122" type="line"/>
      <point x="235" y="122" type="line"/>
      <point x="174" y="460" type="line"/>
      <point x="171" y="460" type="line"/>
      <point x="23" y="430" type="line"/>
      <point x="23" y="424" type="line"/>
      <point x="136" y="384" type="line"/>
      <point x="102" y="423" type="line"/>
    </contour>
    <contour>
      <point x="389" y="450" type="line"/>
      <point x="197" y="33" type="line"/>
      <point x="197" y="0" type="line"/>
      <point x="207" y="0" type="line"/>
      <point x="367" y="317" type="line"/>
      <point x="351" y="317" type="line"/>
      <point x="434" y="0" type="line"/>
      <point x="447" y="0" type="line"/>
      <point x="489" y="83" type="line"/>
      <point x="403" y="450" type="line"/>
    </contour>
    <contour>
      <point x="455" y="0" type="line"/>
      <point x="587" y="228" type="line" smooth="yes"/>
      <point x="634" y="310"/>
      <point x="659" y="349"/>
      <point x="659" y="381" type="curve" smooth="yes"/>
      <point x="659" y="414"/>
      <point x="632" y="460"/>
      <point x="600" y="460" type="curve" smooth="yes"/>
      <point x="585" y="460"/>
      <point x="580" y="456"/>
      <point x="570" y="437" type="curve" smooth="yes"/>
      <point x="554" y="407" type="line"/>
      <point x="554" y="403" type="line"/>
      <point x="567" y="395" type="line" smooth="yes"/>
      <point x="583" y="385"/>
      <point x="595" y="374"/>
      <point x="595" y="353" type="curve" smooth="yes"/>
      <point x="595" y="328"/>
      <point x="586" y="296"/>
      <point x="547" y="223" type="curve" smooth="yes"/>
      <point x="487" y="110" type="line"/>
      <point x="442" y="110" type="line"/>
      <point x="442" y="0" type="line"/>
    </contour>
  </outline>
</glyph>
<glyph name="y" format="2">
  <advance width="447"/>
  <unicode hex="0079"/>
  <anchor x="294.0" y="510.0" name="top"/>
  <anchor x="243" y="-28" name="bottom"/>
  <outline>
    <contour>
      <point x="17" y="424" type="line"/>
      <point x="130" y="381" type="line"/>
      <point x="95" y="421" type="line"/>
      <point x="189" y="0" type="line"/>
      <point x="252" y="67" type="line"/>
      <point x="252" y="105" type="line"/>
      <point x="244" y="105" type="line"/>
      <point x="168" y="460" type="line"/>
      <point x="165" y="460" type="line"/>
      <point x="17" y="430" type="line"/>
    </contour>
    <contour>
      <point x="-5" y="-240" type="curve" smooth="yes"/>
      <point x="29" y="-240"/>
      <point x="70" y="-222"/>
      <point x="103" y="-183" type="curve" smooth="yes"/>
      <point x="139" y="-141"/>
      <point x="143" y="-124"/>
      <point x="172" y="-79" type="curve" smooth="yes"/>
      <point x="365" y="228" type="line" smooth="yes"/>
      <point x="415" y="308"/>
      <point x="437" y="349"/>
      <point x="437" y="381" type="curve" smooth="yes"/>
      <point x="437" y="416"/>
      <point x="412" y="460"/>
      <point x="378" y="460" type="curve" smooth="yes"/>
      <point x="363" y="460"/>
      <point x="358" y="456"/>
      <point x="348" y="437" type="curve" smooth="yes"/>
      <point x="332" y="407" type="line"/>
      <point x="332" y="403" type="line"/>
      <point x="345" y="395" type="line" smooth="yes"/>
      <point x="361" y="385"/>
      <point x="373" y="374"/>
      <point x="373" y="353" type="curve" smooth="yes"/>
      <point x="373" y="328"/>
      <point x="364" y="295"/>
      <point x="320" y="223" type="curve" smooth="yes"/>
      <point x="141" y="-70" type="line" smooth="yes"/>
      <point x="89" y="-155"/>
      <point x="88" y="-157"/>
      <point x="22" y="-157" type="curve" smooth="yes"/>
      <point x="-26" y="-157" type="line"/>
      <point x="-33" y="-163" type="line"/>
      <point x="-33" y="-211" type="line" smooth="yes"/>
      <point x="-33" y="-232"/>
      <point x="-25" y="-240"/>
    </contour>
  </outline>
</glyph>
<glyph name="z" format="2">
  <advance width="401"/>
  <unicode hex="007A"/>
  <anchor x="250" y="510" name="top"/>
  <anchor x="161" y="0" name="bottom"/>
  <outline>
    <contour>
      <point x="32" y="-1" type="line"/>
      <point x="47" y="16" type="line" smooth="yes"/>
      <point x="67" y="39"/>
      <point x="82" y="49"/>
      <point x="104" y="49" type="curve" smooth="yes"/>
      <point x="113" y="49"/>
      <point x="123" y="47"/>
      <point x="135" y="44" type="curve" smooth="yes"/>
      <point x="318" y="-5" type="line"/>
      <point x="349" y="156" type="line"/>
      <point x="333" y="156" type="line"/>
      <point x="264" y="33" type="line"/>
      <point x="318" y="68" type="line"/>
      <point x="126" y="120" type="line"/>
      <point x="126" y="98" type="line"/>
      <point x="374" y="431" type="line"/>
      <point x="363" y="450" type="line"/>
      <point x="95" y="450" type="line"/>
      <point x="74" y="314" type="line"/>
      <point x="90" y="314" type="line"/>
      <point x="147" y="410" type="line"/>
      <point x="107" y="384" type="line"/>
      <point x="319" y="384" type="line"/>
      <point x="319" y="419" type="line"/>
      <point x="16" y="15" type="line"/>
    </contour>
  </outline>
</glyph>
<glyph name="cent" format="2">
  <advance width="500"/>
  <unicode hex="00A2"/>
  <outline>
    <contour>
      <point x="234" y="95" type="curve" smooth="yes"/>
      <point x="302.0" y="95.0"/>
      <point x="359.0" y="143.0"/>
      <point x="415" y="242" type="curve"/>
      <point x="399" y="254" type="line"/>
      <point x="397" y="254" type="line"/>
      <point x="347.0" y="183.0"/>
      <point x="311.0" y="162.0"/>
      <point x="261" y="162" type="curve" smooth="yes"/>
      <point x="195.0" y="162.0"/>
      <point x="166" y="213"/>
      <point x="166" y="304" type="curve" smooth="yes"/>
      <point x="166.0" y="411.0"/>
      <point x="228.0" y="519.0"/>
      <point x="299" y="519" type="curve" smooth="yes"/>
      <point x="335.0" y="519.0"/>
      <point x="349.0" y="504.0"/>
      <point x="370" y="474" type="curve" smooth="yes"/>
      <point x="390" y="445" type="line"/>
      <point x="397" y="445" type="line"/>
      <point x="426" y="462" type="line" smooth="yes"/>
      <point x="437" y="468"/>
      <point x="441" y="479"/>
      <point x="441" y="488" type="curve" smooth="yes"/>
      <point x="441" y="497"/>
      <point x="439" y="504"/>
      <point x="431" y="516" type="curve" smooth="yes"/>
      <point x="412" y="545"/>
      <point x="383" y="565"/>
      <point x="334" y="565" type="curve" smooth="yes"/>
      <point x="208" y="565"/>
      <point x="86" y="403"/>
      <point x="86" y="265" type="curve" smooth="yes"/>
      <point x="86" y="154"/>
      <point x="138" y="95"/>
    </contour>
    <contour>
      <point x="131" y="26" type="line"/>
      <point x="167" y="26" type="line"/>
      <point x="411" y="635" type="line"/>
      <point x="375" y="635" type="line"/>
    </contour>
  </outline>
</glyph>
<glyph name="ordfeminine" format="2">
  <advance width="400"/>
  <unicode hex="00AA"/>
  <outline>
    <contour>
      <point x="154" y="417" type="curve" smooth="yes"/>
      <point x="187.622222222" y="417.0"/>
      <point x="216.093543323" y="437.138582701"/>
      <point x="243" y="477" type="curve"/>
      <point x="263" y="477" type="line"/>
      <point x="263" y="535" type="line"/>
      <point x="246" y="506"/>
      <point x="221" y="461"/>
      <point x="192" y="461" type="curve" smooth="yes"/>
      <point x="175" y="461"/>
      <point x="170" y="479"/>
      <point x="170" y="512" type="curve" smooth="yes"/>
      <point x="170" y="575"/>
      <point x="195" y="649"/>
      <point x="236" y="649" type="curve" smooth="yes"/>
      <point x="251" y="649"/>
      <point x="265" y="639"/>
      <point x="273" y="617" type="curve"/>
      <point x="274" y="632" type="line"/>
      <point x="246" y="478" type="line" smooth="yes"/>
      <point x="240" y="446"/>
      <point x="249" y="417"/>
      <point x="288" y="417" type="curve" smooth="yes"/>
      <point x="316" y="417"/>
      <point x="346" y="440"/>
      <point x="369" y="492" type="curve"/>
      <point x="356" y="497" type="line"/>
      <point x="341" y="469"/>
      <point x="330" y="456"/>
      <point x="320" y="456" type="curve" smooth="yes"/>
      <point x="310" y="456"/>
      <point x="306" y="465"/>
      <point x="310" y="486" type="curve" smooth="yes"/>
      <point x="344" y="670" type="line"/>
      <point x="331" y="670" type="line"/>
      <point x="288" y="645" type="line"/>
      <point x="303" y="646" type="line"/>
      <point x="292" y="659"/>
      <point x="266" y="670"/>
      <point x="240" y="670" type="curve" smooth="yes"/>
      <point x="167" y="670"/>
      <point x="106" y="580"/>
      <point x="106" y="491" type="curve" smooth="yes"/>
      <point x="106" y="442"/>
      <point x="125" y="417"/>
    </contour>
    <contour>
      <point x="80" y="292" type="line"/>
      <point x="310" y="292" type="line"/>
      <point x="319" y="342" type="line"/>
      <point x="89" y="342" type="line"/>
    </contour>
  </outline>
</glyph>
<glyph name="plusminus" format="2">
  <advance width="500"/>
  <unicode hex="00B1"/>
  <outline>
    <contour>
      <point x="413" y="64" type="line"/>
      <point x="421" y="110" type="line"/>
      <point x="3" y="110" type="line"/>
      <point x="-5" y="64" type="line"/>
    </contour>
    <contour>
      <point x="452" y="289" type="line"/>
      <point x="460" y="335" type="line"/>
      <point x="42" y="335" type="line"/>
      <point x="34" y="289" type="line"/>
    </contour>
    <contour>
      <point x="253" y="482" type="line"/>
      <point x="195" y="152" type="line"/>
      <point x="244" y="152" type="line"/>
      <point x="302" y="482" type="line"/>
    </contour>
  </outline>
</glyph>
<glyph name="ccedilla" format="2">
  <advance width="427.0"/>
  <unicode hex="00E7"/>
  <outline>
    <contour>
      <point x="198" y="-10" type="curve" smooth="yes"/>
      <point x="266" y="-10"/>
      <point x="323" y="39"/>
      <point x="380" y="140" type="curve"/>
      <point x="370" y="148" type="line"/>
      <point x="368" y="148" type="line"/>
      <point x="308" y="64"/>
      <point x="263" y="52"/>
      <point x="229" y="52" type="curve" smooth="yes"/>
      <point x="156" y="52"/>
      <point x="125" y="105"/>
      <point x="125" y="199" type="curve" smooth="yes"/>
      <point x="125" y="307"/>
      <point x="188" y="416"/>
      <point x="254" y="416" type="curve" smooth="yes"/>
      <point x="295" y="416"/>
      <point x="312" y="401"/>
      <point x="334" y="369" type="curve" smooth="yes"/>
      <point x="354" y="340" type="line"/>
      <point x="361" y="340" type="line"/>
      <point x="390" y="357" type="line" smooth="yes"/>
      <point x="401" y="363"/>
      <point x="405" y="374"/>
      <point x="405" y="383" type="curve" smooth="yes"/>
      <point x="405" y="392"/>
      <point x="403" y="399"/>
      <point x="395" y="411" type="curve" smooth="yes"/>
      <point x="376" y="440"/>
      <point x="347" y="460"/>
      <point x="298" y="460" type="curve" smooth="yes"/>
      <point x="172" y="460"/>
      <point x="50" y="298"/>
      <point x="50" y="160" type="curve" smooth="yes"/>
      <point x="50" y="49"/>
      <point x="102" y="-10"/>
    </contour>
    <contour>
      <point x="156" y="-240" type="curve" smooth="yes"/>
      <point x="221" y="-240"/>
      <point x="260" y="-200"/>
      <point x="260" y="-151" type="curve" smooth="yes"/>
      <point x="260" y="-101"/>
      <point x="233" y="-74"/>
      <point x="164" y="-50" type="curve"/>
      <point x="168" y="-69" type="line"/>
      <point x="225" y="20" type="line"/>
      <point x="195" y="20" type="line"/>
      <point x="122" y="-95" type="line"/>
      <point x="185" y="-115"/>
      <point x="208" y="-132"/>
      <point x="208" y="-165" type="curve" smooth="yes"/>
      <point x="208" y="-195"/>
      <point x="186" y="-213"/>
      <point x="144" y="-213" type="curve" smooth="yes"/>
      <point x="117" y="-213"/>
      <point x="100" y="-207"/>
      <point x="83" y="-199" type="curve"/>
      <point x="80" y="-199" type="line"/>
      <point x="78" y="-210" type="line"/>
      <point x="92" y="-229"/>
      <point x="122" y="-240"/>
    </contour>
  </outline>
</glyph>
<glyph name="eth" format="2">
  <advance width="509.0"/>
  <unicode hex="00F0"/>
  <outline>
    <contour>
      <point x="206" y="-10" type="curve" smooth="yes"/>
      <point x="364" y="-10"/>
      <point x="467" y="159"/>
      <point x="467" y="350" type="curve" smooth="yes"/>
      <point x="467" y="538"/>
      <point x="361" y="686"/>
      <point x="178" y="749" type="curve"/>
      <point x="172" y="720" type="line"/>
      <point x="310" y="666"/>
      <point x="384" y="538"/>
      <point x="384" y="373" type="curve" smooth="yes"/>
      <point x="384" y="183"/>
      <point x="315" y="28"/>
      <point x="217" y="28" type="curve" smooth="yes"/>
      <point x="156.66326530612244" y="28.0"/>
      <point x="136.0" y="97.0"/>
      <point x="136" y="179" type="curve" smooth="yes"/>
      <point x="136.0" y="314.0"/>
      <point x="198.874251497006" y="422.0"/>
      <point x="286" y="422" type="curve" smooth="yes"/>
      <point x="334" y="422"/>
      <point x="373" y="405"/>
      <point x="401" y="368" type="curve"/>
      <point x="437" y="429" type="line"/>
      <point x="402" y="446"/>
      <point x="370" y="460"/>
      <point x="303" y="460" type="curve" smooth="yes"/>
      <point x="165.32462686567166" y="460.0"/>
      <point x="52.0" y="336.0"/>
      <point x="52" y="172" type="curve" smooth="yes"/>
      <point x="52.0" y="68.0"/>
      <point x="109.63742690058479" y="-10.0"/>
    </contour>
    <contour>
      <point x="167" y="523" type="line"/>
      <point x="229" y="523" type="line"/>
      <point x="475" y="741" type="line"/>
      <point x="413" y="741" type="line"/>
    </contour>
  </outline>
</glyph>
<glyph name="Aogonek" format="2">
  <advance width="715"/>
  <unicode hex="0104"/>
  <outline>
    <contour>
      <point x="-15" y="0" type="line"/>
      <point x="185" y="0" type="line"/>
      <point x="188" y="16" type="line"/>
      <point x="102" y="50" type="line"/>
      <point x="96" y="28" type="line"/>
      <point x="416" y="599" type="line"/>
      <point x="372" y="599" type="line"/>
      <point x="491" y="28" type="line"/>
      <point x="508" y="58" type="line"/>
      <point x="397" y="16" type="line"/>
      <point x="394" y="0" type="line"/>
      <point x="631" y="0" type="line"/>
      <point x="635" y="16" type="line"/>
      <point x="539" y="74" type="line"/>
      <point x="580" y="28" type="line"/>
      <point x="444" y="665" type="line"/>
      <point x="401" y="665" type="line"/>
      <point x="37" y="28" type="line"/>
      <point x="85" y="67" type="line"/>
      <point x="-11" y="16" type="line"/>
    </contour>
    <contour>
      <point x="183" y="238" type="line"/>
      <point x="487" y="238" type="line"/>
      <point x="497" y="288" type="line"/>
      <point x="193" y="288" type="line"/>
    </contour>
    <contour>
      <point x="488" y="-240" type="curve" smooth="yes"/>
      <point x="524" y="-240"/>
      <point x="554" y="-223"/>
      <point x="575" y="-193" type="curve"/>
      <point x="577" y="-180" type="line"/>
      <point x="574" y="-180" type="line"/>
      <point x="556" y="-192"/>
      <point x="538" y="-196"/>
      <point x="524" y="-196" type="curve" smooth="yes"/>
      <point x="489" y="-196"/>
      <point x="468" y="-179"/>
      <point x="468" y="-140" type="curve" smooth="yes"/>
      <point x="468" y="-92"/>
      <point x="498" y="-37"/>
      <point x="553" y="25" type="curve"/>
      <point x="529" y="25" type="line"/>
      <point x="453" y="-46"/>
      <point x="407" y="-103"/>
      <point x="407" y="-159" type="curve" smooth="yes"/>
      <point x="407" y="-210"/>
      <point x="438" y="-240"/>
    </contour>
  </outline>
</glyph>
<glyph name="Eogonek" format="2">
  <advance width="621"/>
  <unicode hex="0118"/>
  <outline>
    <contour>
      <point x="10" y="0" type="line"/>
      <point x="171" y="0" type="line"/>
      <point x="288" y="660" type="line"/>
      <point x="126" y="660" type="line"/>
      <point x="123" y="644" type="line"/>
      <point x="192" y="604" type="line"/>
      <point x="96" y="56" type="line"/>
      <point x="13" y="16" type="line"/>
    </contour>
    <contour>
      <point x="539" y="488" type="line"/>
      <point x="555" y="488" type="line"/>
      <point x="586" y="660" type="line"/>
      <point x="237" y="660" type="line"/>
      <point x="228" y="610" type="line"/>
      <point x="502" y="610" type="line"/>
    </contour>
    <contour>
      <point x="420" y="232" type="line"/>
      <point x="436" y="232" type="line"/>
      <point x="475" y="451" type="line"/>
      <point x="459" y="451" type="line"/>
      <point x="397" y="366" type="line"/>
      <point x="193" y="366" type="line"/>
      <point x="184" y="316" type="line"/>
      <point x="389" y="316" type="line"/>
    </contour>
    <contour>
      <point x="511" y="0" type="line"/>
      <point x="543" y="182" type="line"/>
      <point x="527" y="182" type="line"/>
      <point x="447" y="50" type="line"/>
      <point x="157" y="50" type="line"/>
      <point x="148" y="0" type="line"/>
    </contour>
    <contour>
      <point x="396" y="-240" type="curve" smooth="yes"/>
      <point x="432" y="-240"/>
      <point x="462" y="-223"/>
      <point x="483" y="-193" type="curve"/>
      <point x="485" y="-180" type="line"/>
      <point x="482" y="-180" type="line"/>
      <point x="464" y="-192"/>
      <point x="446" y="-196"/>
      <point x="432" y="-196" type="curve" smooth="yes"/>
      <point x="397" y="-196"/>
      <point x="376" y="-179"/>
      <point x="376" y="-140" type="curve" smooth="yes"/>
      <point x="376" y="-92"/>
      <point x="406" y="-37"/>
      <point x="461" y="25" type="curve"/>
      <point x="437" y="25" type="line"/>
      <point x="361" y="-46"/>
      <point x="315" y="-103"/>
      <point x="315" y="-159" type="curve" smooth="yes"/>
      <point x="315" y="-210"/>
      <point x="346" y="-240"/>
    </contour>
  </outline>
</glyph>
<glyph name="iogonek" format="2">
  <advance width="288.0"/>
  <unicode hex="012F"/>
  <outline>
    <contour>
      <point x="125" y="-10" type="curve" smooth="yes"/>
      <point x="172" y="-10"/>
      <point x="217" y="32"/>
      <point x="256" y="132" type="curve"/>
      <point x="243" y="138" type="line"/>
      <point x="219" y="87"/>
      <point x="191" y="63"/>
      <point x="168" y="63" type="curve" smooth="yes"/>
      <point x="150" y="63"/>
      <point x="146" y="79"/>
      <point x="153" y="119" type="curve" smooth="yes"/>
      <point x="214" y="460" type="line"/>
      <point x="211" y="460" type="line"/>
      <point x="38" y="430" type="line"/>
      <point x="38" y="424" type="line"/>
      <point x="125" y="390" type="line"/>
      <point x="72" y="89" type="line" smooth="yes"/>
      <point x="61" y="29"/>
      <point x="78" y="-10"/>
    </contour>
    <contour>
      <point x="196" y="585" type="curve" smooth="yes"/>
      <point x="227" y="585"/>
      <point x="253" y="611"/>
      <point x="253" y="642" type="curve" smooth="yes"/>
      <point x="253" y="673"/>
      <point x="227" y="699"/>
      <point x="196" y="699" type="curve" smooth="yes"/>
      <point x="165" y="699"/>
      <point x="139" y="673"/>
      <point x="139" y="642" type="curve" smooth="yes"/>
      <point x="139" y="611"/>
      <point x="165" y="585"/>
    </contour>
    <contour>
      <point x="84" y="-240" type="curve" smooth="yes"/>
      <point x="120" y="-240"/>
      <point x="150" y="-223"/>
      <point x="171" y="-193" type="curve"/>
      <point x="173" y="-180" type="line"/>
      <point x="170" y="-180" type="line"/>
      <point x="152" y="-192"/>
      <point x="134" y="-196"/>
      <point x="120" y="-196" type="curve" smooth="yes"/>
      <point x="85" y="-196"/>
      <point x="64" y="-179"/>
      <point x="64" y="-140" type="curve" smooth="yes"/>
      <point x="64" y="-92"/>
      <point x="94" y="-37"/>
      <point x="149" y="25" type="curve"/>
      <point x="125" y="25" type="line"/>
      <point x="49" y="-46"/>
      <point x="3" y="-103"/>
      <point x="3" y="-159" type="curve" smooth="yes"/>
      <point x="3" y="-210"/>
      <point x="34" y="-240"/>
    </contour>
  </outline>
</glyph>
<glyph name="lslash" format="2">
  <advance width="258.0"/>
  <unicode hex="0142"/>
  <outline>
    <contour>
      <point x="101" y="-10" type="curve" smooth="yes"/>
      <point x="148" y="-10"/>
      <point x="193" y="32"/>
      <point x="232" y="132" type="curve"/>
      <point x="219" y="138" type="line"/>
      <point x="195" y="87"/>
      <point x="167" y="63"/>
      <point x="144" y="63" type="curve" smooth="yes"/>
      <point x="126" y="63"/>
      <point x="122" y="79"/>
      <point x="129" y="119" type="curve" smooth="yes"/>
      <point x="240" y="750" type="line"/>
      <point x="237" y="750" type="line"/>
      <point x="64" y="720" type="line"/>
      <point x="64" y="714" type="line"/>
      <point x="151" y="680" type="line"/>
      <point x="48" y="89" type="line" smooth="yes"/>
      <point x="38" y="29"/>
      <point x="54" y="-10"/>
    </contour>
    <contour>
      <point x="20" y="246" type="line"/>
      <point x="105" y="306" type="line"/>
      <point x="143" y="323" type="line"/>
      <point x="244" y="395" type="line"/>
      <point x="254" y="450" type="line"/>
      <point x="150" y="376" type="line"/>
      <point x="117" y="362" type="line"/>
      <point x="30" y="300" type="line"/>
    </contour>
  </outline>
</glyph>
<glyph name="oe" format="2">
  <advance width="771"/>
  <unicode hex="0153"/>
  <outline>
    <contour>
      <point x="220" y="-10" type="curve" smooth="yes"/>
      <point x="299" y="-10"/>
      <point x="363" y="36"/>
      <point x="405" y="97" type="curve"/>
      <point x="383" y="97" type="line"/>
      <point x="398" y="30"/>
      <point x="444" y="-10"/>
      <point x="527" y="-10" type="curve" smooth="yes"/>
      <point x="596" y="-10"/>
      <point x="664" y="50"/>
      <point x="705" y="121" type="curve"/>
      <point x="695" y="129" type="line"/>
      <point x="693" y="129" type="line"/>
      <point x="648" y="75"/>
      <point x="606" y="52"/>
      <point x="562" y="52" type="curve" smooth="yes"/>
      <point x="479" y="52"/>
      <point x="454" y="113"/>
      <point x="454" y="185" type="curve" smooth="yes"/>
      <point x="454" y="313"/>
      <point x="506" y="425"/>
      <point x="603" y="425" type="curve" smooth="yes"/>
      <point x="636" y="425"/>
      <point x="654" y="405"/>
      <point x="654" y="378" type="curve" smooth="yes"/>
      <point x="654" y="315"/>
      <point x="608" y="288"/>
      <point x="448" y="261" type="curve"/>
      <point x="442" y="225" type="line"/>
      <point x="669" y="260"/>
      <point x="731" y="314"/>
      <point x="731" y="383" type="curve" smooth="yes"/>
      <point x="731" y="421"/>
      <point x="698" y="460"/>
      <point x="630" y="460" type="curve" smooth="yes"/>
      <point x="547" y="460"/>
      <point x="474" y="406"/>
      <point x="428" y="329" type="curve"/>
      <point x="453" y="329" type="line"/>
      <point x="435" y="408"/>
      <point x="382" y="460"/>
      <point x="289" y="460" type="curve" smooth="yes"/>
      <point x="147" y="460"/>
      <point x="50" y="309"/>
      <point x="50" y="184" type="curve" smooth="yes"/>
      <point x="50" y="70"/>
      <point x="104" y="-10"/>
    </contour>
    <contour>
      <point x="231" y="28" type="curve" smooth="yes"/>
      <point x="159" y="28"/>
      <point x="137" y="82"/>
      <point x="137" y="181" type="curve" smooth="yes"/>
      <point x="137" y="326"/>
      <point x="195" y="423"/>
      <point x="280" y="423" type="curve" smooth="yes"/>
      <point x="351" y="423"/>
      <point x="372" y="370"/>
      <point x="372" y="272" type="curve" smooth="yes"/>
      <point x="372" y="140"/>
      <point x="318" y="28"/>
    </contour>
  </outline>
</glyph>
<glyph name="scedilla" format="2">
  <advance width="353.0"/>
  <unicode hex="015F"/>
  <outline>
    <contour>
      <point x="141" y="-10" type="curve"/>
      <point x="233" y="-10"/>
      <point x="302" y="56"/>
      <point x="302" y="127" type="curve" smooth="yes"/>
      <point x="302" y="197"/>
      <point x="267" y="228"/>
      <point x="195" y="269" type="curve" smooth="yes"/>
      <point x="160" y="290"/>
      <point x="130" y="317"/>
      <point x="130" y="360" type="curve" smooth="yes"/>
      <point x="130" y="398"/>
      <point x="161" y="423"/>
      <point x="200" y="423" type="curve" smooth="yes"/>
      <point x="235" y="423"/>
      <point x="256" y="408"/>
      <point x="275" y="382" type="curve" smooth="yes"/>
      <point x="297" y="351" type="line"/>
      <point x="304" y="351" type="line"/>
      <point x="323" y="361" type="line" smooth="yes"/>
      <point x="333" y="366"/>
      <point x="337" y="377"/>
      <point x="337" y="386" type="curve" smooth="yes"/>
      <point x="337" y="394"/>
      <point x="335" y="401"/>
      <point x="328" y="412" type="curve" smooth="yes"/>
      <point x="309" y="440"/>
      <point x="278" y="460"/>
      <point x="220" y="460" type="curve" smooth="yes"/>
      <point x="139" y="460"/>
      <point x="64" y="390"/>
      <point x="64" y="332" type="curve" smooth="yes"/>
      <point x="64" y="278"/>
      <point x="89" y="244"/>
      <point x="155" y="205" type="curve" smooth="yes"/>
      <point x="197" y="180"/>
      <point x="237" y="156"/>
      <point x="237" y="103" type="curve" smooth="yes"/>
      <point x="237" y="52"/>
      <point x="200" y="25"/>
      <point x="150" y="25" type="curve" smooth="yes"/>
      <point x="107" y="25"/>
      <point x="80" y="41"/>
      <point x="60" y="75" type="curve" smooth="yes"/>
      <point x="43" y="104" type="line"/>
      <point x="36" y="104" type="line"/>
      <point x="14" y="92" type="line" smooth="yes"/>
      <point x="3" y="86"/>
      <point x="2" y="77"/>
      <point x="2" y="69" type="curve" smooth="yes"/>
      <point x="2" y="60"/>
      <point x="4" y="53"/>
      <point x="12" y="41" type="curve" smooth="yes"/>
      <point x="31" y="12"/>
      <point x="73" y="-10"/>
    </contour>
    <contour>
      <point x="102" y="-240" type="curve" smooth="yes"/>
      <point x="167" y="-240"/>
      <point x="206" y="-200"/>
      <point x="206" y="-151" type="curve" smooth="yes"/>
      <point x="206" y="-101"/>
      <point x="179" y="-74"/>
      <point x="110" y="-50" type="curve"/>
      <point x="114" y="-69" type="line"/>
      <point x="171" y="20" type="line"/>
      <point x="141" y="20" type="line"/>
      <point x="68" y="-95" type="line"/>
      <point x="131" y="-115"/>
      <point x="154" y="-132"/>
      <point x="154" y="-165" type="curve" smooth="yes"/>
      <point x="154" y="-195"/>
      <point x="132" y="-213"/>
      <point x="90" y="-213" type="curve" smooth="yes"/>
      <point x="63" y="-213"/>
      <point x="46" y="-207"/>
      <point x="29" y="-199" type="curve"/>
      <point x="26" y="-199" type="line"/>
      <point x="24" y="-210" type="line"/>
      <point x="38" y="-229"/>
      <point x="68" y="-240"/>
    </contour>
  </outline>
</glyph>
<glyph name="tcedilla" format="2">
  <advance width="314.0"/>
  <unicode hex="0163"/>
  <outline>
    <contour>
      <point x="131" y="-10" type="curve" smooth="yes"/>
      <point x="188" y="-10"/>
      <point x="244" y="35"/>
      <point x="288" y="161" type="curve"/>
      <point x="275" y="167" type="line"/>
      <point x="246" y="101"/>
      <point x="207" y="66"/>
      <point x="177" y="66" type="curve" smooth="yes"/>
      <point x="159" y="66"/>
      <point x="148" y="78"/>
      <point x="148" y="110" type="curve" smooth="yes"/>
      <point x="148" y="121"/>
      <point x="149" y="135"/>
      <point x="152" y="152" type="curve" smooth="yes"/>
      <point x="197" y="406" type="line"/>
      <point x="330" y="406" type="line"/>
      <point x="330" y="450" type="line"/>
      <point x="205" y="450" type="line"/>
      <point x="224" y="560" type="line"/>
      <point x="218" y="560" type="line"/>
      <point x="132" y="450" type="line"/>
      <point x="47" y="412" type="line"/>
      <point x="47" y="406" type="line"/>
      <point x="121" y="406" type="line"/>
      <point x="68" y="108" type="line" smooth="yes"/>
      <point x="66" y="94"/>
      <point x="64" y="81"/>
      <point x="64" y="70" type="curve" smooth="yes"/>
      <point x="64" y="20"/>
      <point x="87" y="-10"/>
    </contour>
    <contour>
      <point x="98" y="-240" type="curve" smooth="yes"/>
      <point x="163" y="-240"/>
      <point x="202" y="-200"/>
      <point x="202" y="-151" type="curve" smooth="yes"/>
      <point x="202" y="-101"/>
      <point x="175" y="-74"/>
      <point x="106" y="-50" type="curve"/>
      <point x="110" y="-69" type="line"/>
      <point x="167" y="20" type="line"/>
      <point x="137" y="20" type="line"/>
      <point x="64" y="-95" type="line"/>
      <point x="127" y="-115"/>
      <point x="150" y="-132"/>
      <point x="150" y="-165" type="curve" smooth="yes"/>
      <point x="150" y="-195"/>
      <point x="128" y="-213"/>
      <point x="86" y="-213" type="curve" smooth="yes"/>
      <point x="59" y="-213"/>
      <point x="42" y="-207"/>
      <point x="25" y="-199" type="curve"/>
      <point x="22" y="-199" type="line"/>
      <point x="20" y="-210" type="line"/>
      <point x="34" y="-229"/>
      <point x="64" y="-240"/>
    </contour>
  </outline>
</glyph>
<glyph name="tbar" format="2">
  <advance width="314.0"/>
  <unicode hex="0167"/>
  <outline>
    <contour>
      <point x="131" y="-10" type="curve" smooth="yes"/>
      <point x="188" y="-10"/>
      <point x="244" y="35"/>
      <point x="288" y="161" type="curve"/>
      <point x="275" y="167" type="line"/>
      <point x="246" y="101"/>
      <point x="207" y="66"/>
      <point x="177" y="66" type="curve" smooth="yes"/>
      <point x="159" y="66"/>
      <point x="148" y="78"/>
      <point x="148" y="110" type="curve" smooth="yes"/>
      <point x="148" y="121"/>
      <point x="149" y="135"/>
      <point x="152" y="152" type="curve" smooth="yes"/>
      <point x="197" y="406" type="line"/>
      <point x="330" y="406" type="line"/>
      <point x="330" y="450" type="line"/>
      <point x="205" y="450" type="line"/>
      <point x="224" y="560" type="line"/>
      <point x="218" y="560" type="line"/>
      <point x="132" y="450" type="line"/>
      <point x="47" y="412" type="line"/>
      <point x="47" y="406" type="line"/>
      <point x="121" y="406" type="line"/>
      <point x="68" y="108" type="line" smooth="yes"/>
      <point x="66" y="94"/>
      <point x="64" y="81"/>
      <point x="64" y="70" type="curve" smooth="yes"/>
      <point x="64" y="20"/>
      <point x="87" y="-10"/>
    </contour>
    <contour>
      <point x="32" y="252" type="line"/>
      <point x="284" y="252" type="line"/>
      <point x="292" y="291" type="line"/>
      <point x="40" y="291" type="line"/>
    </contour>
  </outline>
</glyph>
<glyph name="Uogonek" format="2">
  <advance width="783"/>
  <unicode hex="0172"/>
  <outline>
    <contour>
      <point x="361" y="25" type="line"/>
      <point x="285" y="-46"/>
      <point x="239" y="-103"/>
      <point x="239" y="-159" type="curve" smooth="yes"/>
      <point x="239" y="-210"/>
      <point x="270" y="-240"/>
      <point x="320" y="-240" type="curve" smooth="yes"/>
      <point x="356" y="-240"/>
      <point x="386" y="-223"/>
      <point x="407" y="-193" type="curve"/>
      <point x="409" y="-180" type="line"/>
      <point x="406" y="-180" type="line"/>
      <point x="388" y="-192"/>
      <point x="370" y="-196"/>
      <point x="356" y="-196" type="curve" smooth="yes"/>
      <point x="321" y="-196"/>
      <point x="300" y="-179"/>
      <point x="300" y="-140" type="curve" smooth="yes"/>
      <point x="300" y="-92"/>
      <point x="330" y="-37"/>
      <point x="385" y="25" type="curve"/>
    </contour>
    <contour>
      <point x="342" y="-10" type="curve" smooth="yes"/>
      <point x="480" y="-10"/>
      <point x="593" y="61"/>
      <point x="627" y="256" type="curve" smooth="yes"/>
      <point x="688" y="605" type="line"/>
      <point x="770" y="644" type="line"/>
      <point x="773" y="660" type="line"/>
      <point x="537" y="660" type="line"/>
      <point x="533" y="644" type="line"/>
      <point x="622" y="606" type="line"/>
      <point x="557" y="236" type="line" smooth="yes"/>
      <point x="533" y="97"/>
      <point x="441" y="43"/>
      <point x="368" y="43" type="curve" smooth="yes"/>
      <point x="279" y="43"/>
      <point x="214" y="84"/>
      <point x="214" y="200" type="curve" smooth="yes"/>
      <point x="214" y="221"/>
      <point x="216" y="245"/>
      <point x="221" y="271" type="curve" smooth="yes"/>
      <point x="280" y="604" type="line"/>
      <point x="362" y="644" type="line"/>
      <point x="366" y="660" type="line"/>
      <point x="128" y="660" type="line"/>
      <point x="125" y="644" type="line"/>
      <point x="194" y="604" type="line"/>
      <point x="133" y="256" type="line" smooth="yes"/>
      <point x="129" y="231"/>
      <point x="126" y="208"/>
      <point x="126" y="186" type="curve" smooth="yes"/>
      <point x="126" y="50"/>
      <point x="214" y="-10"/>
    </contour>
  </outline>
</glyph>
<glyph name="longs" format="2">
  <advance width="319.0"/>
  <unicode hex="017F"/>
  <outline>
    <contour>
      <point x="-77" y="-240" type="curve" smooth="yes"/>
      <point x="38" y="-240"/>
      <point x="139" y="-44"/>
      <point x="149" y="21" type="curve" smooth="yes"/>
      <point x="224" y="530" type="line" smooth="yes"/>
      <point x="238" y="622"/>
      <point x="278" y="687"/>
      <point x="348" y="687" type="curve" smooth="yes"/>
      <point x="373" y="687"/>
      <point x="390" y="684"/>
      <point x="408" y="676" type="curve" smooth="yes"/>
      <point x="431" y="665" type="line"/>
      <point x="438" y="665" type="line"/>
      <point x="454" y="695" type="line" smooth="yes"/>
      <point x="458" y="702"/>
      <point x="460" y="708"/>
      <point x="461" y="713" type="curve" smooth="yes"/>
      <point x="463" y="725"/>
      <point x="456" y="733"/>
      <point x="437" y="741" type="curve" smooth="yes"/>
      <point x="429" y="745"/>
      <point x="416" y="750"/>
      <point x="404" y="750" type="curve"/>
      <point x="270" y="750"/>
      <point x="150" y="555"/>
      <point x="141" y="490" type="curve" smooth="yes"/>
      <point x="67" y="-17" type="line" smooth="yes"/>
      <point x="53" y="-110"/>
      <point x="20" y="-175"/>
      <point x="-40" y="-175" type="curve" smooth="yes"/>
      <point x="-56" y="-175"/>
      <point x="-71" y="-172"/>
      <point x="-81" y="-166" type="curve" smooth="yes"/>
      <point x="-100" y="-155" type="line"/>
      <point x="-106" y="-155" type="line"/>
      <point x="-120" y="-185" type="line" smooth="yes"/>
      <point x="-124" y="-193"/>
      <point x="-126" y="-200"/>
      <point x="-126" y="-206" type="curve" smooth="yes"/>
      <point x="-126" y="-223"/>
      <point x="-107" y="-240"/>
    </contour>
    <contour>
      <point x="50" y="406" type="line"/>
      <point x="155" y="406" type="line"/>
      <point x="155" y="450" type="line"/>
      <point x="50" y="450" type="line"/>
    </contour>
  </outline>
</glyph>
<glyph name="Ohorn" format="2">
  <advance width="766.0"/>
  <unicode hex="01A0"/>
  <anchor x="450.0" y="710.0" name="top"/>
  <anchor x="360.0" y="0.0" name="right"/>
  <anchor x="326.0" y="0.0" name="bottom"/>
  <outline>
    <contour>
      <point x="332" y="-10" type="curve" smooth="yes"/>
      <point x="551" y="-10"/>
      <point x="706" y="182"/>
      <point x="706" y="378" type="curve" smooth="yes"/>
      <point x="706" y="551"/>
      <point x="598" y="671"/>
      <point x="433" y="671" type="curve" smooth="yes"/>
      <point x="219" y="671"/>
      <point x="60" y="483"/>
      <point x="60" y="282" type="curve" smooth="yes"/>
      <point x="60" y="109"/>
      <point x="168" y="-10"/>
    </contour>
    <contour>
      <point x="364" y="38" type="curve" smooth="yes"/>
      <point x="237" y="38"/>
      <point x="151" y="142"/>
      <point x="151" y="292" type="curve" smooth="yes"/>
      <point x="151" y="478"/>
      <point x="257" y="625"/>
      <point x="406" y="625" type="curve" smooth="yes"/>
      <point x="531" y="625"/>
      <point x="616" y="521"/>
      <point x="616" y="370" type="curve" smooth="yes"/>
      <point x="616" y="190"/>
      <point x="512" y="38"/>
    </contour>
    <contour>
      <point x="508" y="649" type="line"/>
      <point x="543" y="630"/>
      <point x="564" y="624"/>
      <point x="596" y="624" type="curve" smooth="yes"/>
      <point x="661" y="624"/>
      <point x="711" y="678"/>
      <point x="711" y="736" type="curve" smooth="yes"/>
      <point x="711" y="750"/>
      <point x="704" y="752"/>
      <point x="688" y="752" type="curve" smooth="yes"/>
      <point x="658" y="752" type="line"/>
      <point x="651" y="746" type="line"/>
      <point x="643" y="695" type="line" smooth="yes"/>
      <point x="638" y="662"/>
      <point x="621" y="642"/>
      <point x="583" y="642" type="curve" smooth="yes"/>
      <point x="564" y="642"/>
      <point x="542" y="647"/>
      <point x="514" y="660" type="curve"/>
    </contour>
  </outline>
</glyph>
<glyph name="ohorn" format="2">
  <advance width="509.0"/>
  <unicode hex="01A1"/>
  <anchor x="298" y="510" name="top"/>
  <anchor x="249" y="0" name="right"/>
  <anchor x="221" y="0" name="bottom"/>
  <outline>
    <contour>
      <point x="220" y="-10" type="curve" smooth="yes"/>
      <point x="366" y="-10"/>
      <point x="459" y="145"/>
      <point x="459" y="266" type="curve" smooth="yes"/>
      <point x="459" y="380"/>
      <point x="405" y="460"/>
      <point x="289" y="460" type="curve" smooth="yes"/>
      <point x="147" y="460"/>
      <point x="50" y="309"/>
      <point x="50" y="184" type="curve" smooth="yes"/>
      <point x="50" y="70"/>
      <point x="104" y="-10"/>
    </contour>
    <contour>
      <point x="231" y="28" type="curve" smooth="yes"/>
      <point x="159" y="28"/>
      <point x="137" y="82"/>
      <point x="137" y="181" type="curve" smooth="yes"/>
      <point x="137" y="326"/>
      <point x="195" y="423"/>
      <point x="280" y="423" type="curve" smooth="yes"/>
      <point x="351" y="423"/>
      <point x="372" y="370"/>
      <point x="372" y="272" type="curve" smooth="yes"/>
      <point x="372" y="140"/>
      <point x="318" y="28"/>
    </contour>
    <contour>
      <point x="344" y="440" type="line"/>
      <point x="379" y="421"/>
      <point x="400" y="415"/>
      <point x="432" y="415" type="curve" smooth="yes"/>
      <point x="497.0" y="415.0"/>
      <point x="547" y="471"/>
      <point x="547" y="527" type="curve" smooth="yes"/>
      <point x="547" y="541"/>
      <point x="540" y="543"/>
      <point x="524" y="543" type="curve" smooth="yes"/>
      <point x="494" y="543" type="line"/>
      <point x="487" y="537" type="line"/>
      <point x="479" y="486" type="line" smooth="yes"/>
      <point x="474" y="453"/>
      <point x="457" y="433"/>
      <point x="419" y="433" type="curve" smooth="yes"/>
      <point x="400" y="433"/>
      <point x="378" y="438"/>
      <point x="350" y="451" type="curve"/>
    </contour>
  </outline>
</glyph>
<glyph name="Uhorn" format="2">
  <advance width="783"/>
  <unicode hex="01AF"/>
  <anchor x="464" y="710" name="top"/>
  <anchor x="368" y="0" name="right"/>
  <anchor x="346" y="0" name="bottom"/>
  <outline>
    <contour>
      <point x="342" y="-10" type="curve" smooth="yes"/>
      <point x="480" y="-10"/>
      <point x="593" y="61"/>
      <point x="627" y="256" type="curve" smooth="yes"/>
      <point x="688" y="605" type="line"/>
      <point x="770" y="644" type="line"/>
      <point x="791" y="644" type="line" smooth="yes"/>
      <point x="859.2352941176471" y="644.0"/>
      <point x="896" y="691"/>
      <point x="896" y="736" type="curve" smooth="yes"/>
      <point x="896" y="750"/>
      <point x="889" y="752"/>
      <point x="873" y="752" type="curve" smooth="yes"/>
      <point x="843" y="752" type="line"/>
      <point x="836" y="746" type="line"/>
      <point x="831" y="711" type="line" smooth="yes"/>
      <point x="826" y="678"/>
      <point x="812" y="660"/>
      <point x="774" y="660" type="curve" smooth="yes"/>
      <point x="537" y="660" type="line"/>
      <point x="533" y="644" type="line"/>
      <point x="622" y="606" type="line"/>
      <point x="557" y="236" type="line" smooth="yes"/>
      <point x="533" y="97"/>
      <point x="441" y="43"/>
      <point x="368" y="43" type="curve" smooth="yes"/>
      <point x="279" y="43"/>
      <point x="214" y="84"/>
      <point x="214" y="200" type="curve" smooth="yes"/>
      <point x="214" y="221"/>
      <point x="216" y="245"/>
      <point x="221" y="271" type="curve" smooth="yes"/>
      <point x="280" y="604" type="line"/>
      <point x="362" y="644" type="line"/>
      <point x="366" y="660" type="line"/>
      <point x="128" y="660" type="line"/>
      <point x="125" y="644" type="line"/>
      <point x="194" y="604" type="line"/>
      <point x="133" y="256" type="line" smooth="yes"/>
      <point x="129" y="231"/>
      <point x="126" y="208"/>
      <point x="126" y="186" type="curve" smooth="yes"/>
      <point x="126" y="50"/>
      <point x="214" y="-10"/>
    </contour>
  </outline>
</glyph>
<glyph name="uhorn" format="2">
  <advance width="522.0"/>
  <unicode hex="01B0"/>
  <anchor x="307" y="510" name="top"/>
  <anchor x="215" y="0" name="bottom"/>
  <anchor x="427" y="0" name="right"/>
  <outline>
    <contour>
      <point x="159" y="-10" type="curve" smooth="yes"/>
      <point x="220" y="-10"/>
      <point x="253" y="19"/>
      <point x="321" y="95" type="curve"/>
      <point x="340" y="95" type="line"/>
      <point x="340" y="150" type="line"/>
      <point x="309" y="115"/>
      <point x="257" y="51"/>
      <point x="212" y="51" type="curve" smooth="yes"/>
      <point x="171" y="51"/>
      <point x="154" y="81"/>
      <point x="154" y="118" type="curve" smooth="yes"/>
      <point x="154" y="125"/>
      <point x="155" y="133"/>
      <point x="156" y="141" type="curve" smooth="yes"/>
      <point x="210" y="460" type="line"/>
      <point x="206" y="460" type="line"/>
      <point x="46" y="430" type="line"/>
      <point x="46" y="424" type="line"/>
      <point x="124" y="389" type="line"/>
      <point x="79" y="138" type="line" smooth="yes"/>
      <point x="77" y="124"/>
      <point x="75" y="111"/>
      <point x="75" y="98" type="curve" smooth="yes"/>
      <point x="75" y="31"/>
      <point x="110" y="-10"/>
    </contour>
    <contour>
      <point x="376" y="-10" type="curve" smooth="yes"/>
      <point x="423" y="-10"/>
      <point x="468" y="32"/>
      <point x="507" y="132" type="curve"/>
      <point x="494" y="138" type="line"/>
      <point x="470" y="87"/>
      <point x="442" y="63"/>
      <point x="419" y="63" type="curve" smooth="yes"/>
      <point x="399.0" y="63.0"/>
      <point x="395.0" y="79.0"/>
      <point x="402" y="119" type="curve" smooth="yes"/>
      <point x="462" y="460" type="line"/>
      <point x="458" y="460" type="line"/>
      <point x="306" y="430" type="line"/>
      <point x="306" y="424" type="line"/>
      <point x="375" y="389" type="line"/>
      <point x="323" y="89" type="line" smooth="yes"/>
      <point x="313.0" y="29.0"/>
      <point x="329.0" y="-10.0"/>
    </contour>
    <contour>
      <point x="420" y="440" type="line"/>
      <point x="455" y="421"/>
      <point x="476" y="415"/>
      <point x="508" y="415" type="curve" smooth="yes"/>
      <point x="573" y="415"/>
      <point x="623" y="471"/>
      <point x="623" y="527" type="curve" smooth="yes"/>
      <point x="623" y="541"/>
      <point x="616" y="543"/>
      <point x="600" y="543" type="curve" smooth="yes"/>
      <point x="570" y="543" type="line"/>
      <point x="563" y="537" type="line"/>
      <point x="555" y="486" type="line" smooth="yes"/>
      <point x="550" y="453"/>
      <point x="533" y="433"/>
      <point x="495" y="433" type="curve" smooth="yes"/>
      <point x="476" y="433"/>
      <point x="454" y="438"/>
      <point x="426" y="451" type="curve"/>
    </contour>
  </outline>
</glyph>
<glyph name="ringhalfright" format="2">
  <advance width="202"/>
  <unicode hex="02BF"/>
  <outline>
    <contour>
      <point x="167.3739959263263" y="526" type="curve"/>
      <point x="171.3739959263263" y="550" type="line"/>
      <point x="147.3739959263263" y="550"/>
      <point x="137.3739959263263" y="568"/>
      <point x="137.3739959263263" y="605" type="curve" smooth="yes"/>
      <point x="137.3739959263263" y="655"/>
      <point x="160.3739959263263" y="687"/>
      <point x="194.3739959263263" y="687" type="curve"/>
      <point x="198.3739959263263" y="710" type="line"/>
      <point x="136.3739959263263" y="710"/>
      <point x="96.37399592632629" y="659"/>
      <point x="96.37399592632629" y="601" type="curve" smooth="yes"/>
      <point x="96.37399592632629" y="557"/>
      <point x="117.37399592632629" y="526"/>
    </contour>
  </outline>
</glyph>
<glyph name="gravecomb" format="2">
  <unicode hex="0300"/>
  <anchor x="73" y="510" name="_top"/>
  <outline>
    <contour>
      <point x="71" y="530" type="line"/>
      <point x="81" y="530" type="line"/>
      <point x="-9" y="707" type="line"/>
      <point x="-79" y="707" type="line"/>
      <point x="-82" y="687"/>
      <point x="-83" y="666"/>
      <point x="-58" y="644" type="curve" smooth="yes"/>
    </contour>
  </outline>
</glyph>
<glyph name="acutecomb" format="2">
  <unicode hex="0301"/>
  <anchor x="-91" y="510" name="_top"/>
  <outline>
    <contour>
      <point x="-92" y="530" type="line"/>
      <point x="-82" y="530" type="line"/>
      <point x="49" y="644" type="line" smooth="yes"/>
      <point x="78" y="670"/>
      <point x="88" y="687"/>
      <point x="92" y="707" type="curve"/>
      <point x="14" y="707" type="line"/>
    </contour>
  </outline>
</glyph>
<glyph name="macroncomb" format="2">
  <unicode hex="0304"/>
  <anchor x="-20" y="510" name="_top"/>
  <outline>
    <contour>
      <point x="-131" y="595" type="line"/>
      <point x="121" y="595" type="line"/>
      <point x="130" y="639" type="line"/>
      <point x="-123" y="639" type="line"/>
    </contour>
  </outline>
</glyph>
<glyph name="dotaccentcomb" format="2">
  <unicode hex="0307"/>
  <anchor x="-18.0" y="510.0" name="_top"/>
  <outline>
    <contour>
      <point x="0" y="561" type="curve" smooth="yes"/>
      <point x="31" y="561"/>
      <point x="57" y="587"/>
      <point x="57" y="618" type="curve" smooth="yes"/>
      <point x="57" y="649"/>
      <point x="31" y="675"/>
      <point x="0" y="675" type="curve" smooth="yes"/>
      <point x="-31" y="675"/>
      <point x="-57" y="649"/>
      <point x="-57" y="618" type="curve" smooth="yes"/>
      <point x="-57" y="587"/>
      <point x="-31" y="561"/>
    </contour>
  </outline>
</glyph>
<glyph name="dieresiscomb" format="2">
  <unicode hex="0308"/>
  <anchor x="-19" y="510" name="_top"/>
  <outline>
    <contour>
      <point x="-85" y="573" type="curve" smooth="yes"/>
      <point x="-60" y="573"/>
      <point x="-40" y="593"/>
      <point x="-40" y="618" type="curve" smooth="yes"/>
      <point x="-40" y="643"/>
      <point x="-60" y="663"/>
      <point x="-85" y="663" type="curve" smooth="yes"/>
      <point x="-110" y="663"/>
      <point x="-130" y="643"/>
      <point x="-130" y="618" type="curve" smooth="yes"/>
      <point x="-130" y="593"/>
      <point x="-110" y="573"/>
    </contour>
    <contour>
      <point x="85" y="573" type="curve" smooth="yes"/>
      <point x="110" y="573"/>
      <point x="130" y="593"/>
      <point x="130" y="618" type="curve" smooth="yes"/>
      <point x="130" y="643"/>
      <point x="110" y="663"/>
      <point x="85" y="663" type="curve" smooth="yes"/>
      <point x="60" y="663"/>
      <point x="40" y="643"/>
      <point x="40" y="618" type="curve" smooth="yes"/>
      <point x="40" y="593"/>
      <point x="60" y="573"/>
    </contour>
  </outline>
</glyph>
<glyph name="hungarumlautcomb" format="2">
  <unicode hex="030B"/>
  <anchor x="-74" y="510" name="_top"/>
  <outline>
    <contour>
      <point x="-133" y="530" type="line"/>
      <point x="-123" y="530" type="line"/>
      <point x="-19" y="644" type="line" smooth="yes"/>
      <point x="3" y="668"/>
      <point x="7" y="687"/>
      <point x="4" y="707" type="curve"/>
      <point x="-52" y="707" type="line"/>
    </contour>
    <contour>
      <point x="-23" y="530" type="line"/>
      <point x="-14" y="530" type="line"/>
      <point x="109" y="644" type="line" smooth="yes"/>
      <point x="133" y="666"/>
      <point x="134" y="687"/>
      <point x="131" y="707" type="curve"/>
      <point x="75" y="707" type="line"/>
    </contour>
  </outline>
</glyph>
<glyph name="dblgravecomb" format="2">
  <unicode hex="030F"/>
  <anchor x="68" y="510" name="_top"/>
  <outline>
    <contour>
      <point x="114" y="530" type="line"/>
      <point x="124" y="530" type="line"/>
      <point x="59" y="707" type="line"/>
      <point x="4" y="707" type="line"/>
      <point x="0" y="686"/>
      <point x="1" y="672"/>
      <point x="19" y="649" type="curve" smooth="yes"/>
    </contour>
    <contour>
      <point x="12" y="530" type="line"/>
      <point x="22" y="530" type="line"/>
      <point x="-66" y="707" type="line"/>
      <point x="-121" y="707" type="line"/>
      <point x="-125" y="689"/>
      <point x="-125" y="670"/>
      <point x="-104" y="649" type="curve" smooth="yes"/>
    </contour>
  </outline>
</glyph>
<glyph name="breveinvertedcomb" format="2">
  <unicode hex="0311"/>
  <anchor x="-4.0" y="510.0" name="_top"/>
  <outline>
    <contour>
      <point x="-139" y="540" type="curve"/>
      <point x="-129" y="540" type="line"/>
      <point x="-78" y="640"/>
      <point x="-37" y="650"/>
      <point x="21" y="650" type="curve" smooth="yes"/>
      <point x="78" y="650"/>
      <point x="113" y="638"/>
      <point x="129" y="540" type="curve"/>
      <point x="139" y="540" type="line"/>
      <point x="135" y="652"/>
      <point x="110" y="707"/>
      <point x="25" y="707" type="curve" smooth="yes"/>
      <point x="-54" y="707"/>
      <point x="-104" y="652"/>
    </contour>
  </outline>
</glyph>
<glyph name="horncomb" format="2">
  <unicode hex="031B"/>
  <outline>
    <contour>
      <point x="-101" y="440" type="line"/>
      <point x="-66" y="421"/>
      <point x="-45" y="415"/>
      <point x="-13" y="415" type="curve" smooth="yes"/>
      <point x="52" y="415"/>
      <point x="102" y="471"/>
      <point x="102" y="527" type="curve" smooth="yes"/>
      <point x="102" y="541"/>
      <point x="95" y="543"/>
      <point x="79" y="543" type="curve" smooth="yes"/>
      <point x="49" y="543" type="line"/>
      <point x="42" y="537" type="line"/>
      <point x="34" y="486" type="line" smooth="yes"/>
      <point x="29" y="453"/>
      <point x="12" y="433"/>
      <point x="-26" y="433" type="curve" smooth="yes"/>
      <point x="-45" y="433"/>
      <point x="-67" y="438"/>
      <point x="-95" y="451" type="curve"/>
    </contour>
  </outline>
</glyph>
<glyph name="ogonekcomb" format="2">
  <unicode hex="0328"/>
  <anchor x="44" y="0" name="_right"/>
  <outline>
    <contour>
      <point x="-4" y="-240" type="curve" smooth="yes"/>
      <point x="32" y="-240"/>
      <point x="62" y="-223"/>
      <point x="83" y="-193" type="curve"/>
      <point x="85" y="-180" type="line"/>
      <point x="82" y="-180" type="line"/>
      <point x="64" y="-192"/>
      <point x="46" y="-196"/>
      <point x="32" y="-196" type="curve" smooth="yes"/>
      <point x="-3" y="-196"/>
      <point x="-24" y="-179"/>
      <point x="-24" y="-140" type="curve" smooth="yes"/>
      <point x="-24" y="-92"/>
      <point x="6" y="-37"/>
      <point x="61" y="25" type="curve"/>
      <point x="37" y="25" type="line"/>
      <point x="-39" y="-46"/>
      <point x="-85" y="-103"/>
      <point x="-85" y="-159" type="curve" smooth="yes"/>
      <point x="-85" y="-210"/>
      <point x="-54" y="-240"/>
    </contour>
  </outline>
</glyph>
<glyph name="macronbelowcomb" format="2">
  <unicode hex="0331"/>
  <anchor x="27" y="0" name="_bottom"/>
  <outline>
    <contour>
      <point x="-131" y="-171" type="line"/>
      <point x="122" y="-171" type="line"/>
      <point x="130" y="-127" type="line"/>
      <point x="-123" y="-127" type="line"/>
    </contour>
  </outline>
</glyph>
<glyph name="Delta" format="2">
  <advance width="650"/>
  <unicode hex="0394"/>
  <outline>
    <contour>
      <point x="10" y="0" type="line"/>
      <point x="553" y="0" type="line"/>
      <point x="560" y="28" type="line"/>
      <point x="424" y="665" type="line"/>
      <point x="381" y="665" type="line"/>
      <point x="17" y="28" type="line"/>
    </contour>
    <contour>
      <point x="65" y="9" type="line"/>
      <point x="379" y="568" type="line"/>
      <point x="358" y="571" type="line"/>
      <point x="475" y="7" type="line"/>
      <point x="501" y="73" type="line"/>
      <point x="66" y="73" type="line"/>
    </contour>
  </outline>
</glyph>
<glyph name="uni0402" format="2">
  <advance width="791.0"/>
  <unicode hex="0402"/>
  <outline>
    <contour>
      <point x="606" y="151" type="curve" smooth="yes"/>
      <point x="589" y="51" type="line" smooth="yes"/>
      <point x="566" y="-83"/>
      <point x="535" y="-100"/>
      <point x="492" y="-100" type="curve" smooth="yes"/>
      <point x="474" y="-100"/>
      <point x="465" y="-97"/>
      <point x="443" y="-91" type="curve"/>
      <point x="437" y="-91" type="line"/>
      <point x="418" y="-139"/>
      <point x="418" y="-142"/>
      <point x="417" y="-145" type="curve" smooth="yes"/>
      <point x="414" y="-166"/>
      <point x="428" y="-173"/>
      <point x="445" y="-173" type="curve" smooth="yes"/>
      <point x="485" y="-173"/>
      <point x="504" y="-163"/>
      <point x="574" y="-99" type="curve" smooth="yes"/>
      <point x="634.312945825" y="-43.4737959074"/>
      <point x="679" y="73"/>
      <point x="696" y="172" type="curve" smooth="yes"/>
      <point x="720" y="311"/>
      <point x="657" y="381"/>
      <point x="536" y="381" type="curve" smooth="yes"/>
      <point x="463" y="381"/>
      <point x="389" y="352"/>
      <point x="346" y="316" type="curve"/>
      <point x="338" y="272" type="line"/>
      <point x="383" y="303"/>
      <point x="436" y="316"/>
      <point x="492" y="316" type="curve" smooth="yes"/>
      <point x="592" y="316"/>
      <point x="627" y="273"/>
    </contour>
    <contour>
      <point x="123" y="0" type="line"/>
      <point x="399" y="0" type="line"/>
      <point x="402" y="16" type="line"/>
      <point x="314" y="56" type="line"/>
      <point x="413" y="610" type="line"/>
      <point x="575" y="610" type="line"/>
      <point x="613" y="458" type="line"/>
      <point x="629" y="458" type="line"/>
      <point x="665" y="660" type="line"/>
      <point x="110" y="660" type="line"/>
      <point x="75" y="458" type="line"/>
      <point x="91" y="458" type="line"/>
      <point x="182" y="610" type="line"/>
      <point x="327" y="610" type="line"/>
      <point x="228" y="56" type="line"/>
      <point x="127" y="16" type="line"/>
    </contour>
  </outline>
</glyph>
<glyph name="uni0409" format="2">
  <advance width="972.0"/>
  <unicode hex="0409"/>
  <outline>
    <contour>
      <point x="294" y="556" type="curve" smooth="yes"/>
      <point x="312" y="660" type="line"/>
      <point x="176" y="660" type="line"/>
      <point x="173" y="644" type="line"/>
      <point x="246" y="604" type="line"/>
      <point x="238" y="556" type="line" smooth="yes"/>
      <point x="192" y="279"/>
      <point x="124" y="78"/>
      <point x="15" y="78" type="curve" smooth="yes"/>
      <point x="5" y="78" type="line"/>
      <point x="1" y="74" type="line"/>
      <point x="-9" y="19" type="line" smooth="yes"/>
      <point x="-13" y="-3"/>
      <point x="-10" y="-10"/>
      <point x="20" y="-10" type="curve" smooth="yes"/>
      <point x="57" y="-10"/>
      <point x="106" y="9"/>
      <point x="156" y="91" type="curve" smooth="yes"/>
      <point x="216" y="192"/>
      <point x="255" y="334"/>
    </contour>
    <contour>
      <point x="269" y="610" type="line"/>
      <point x="554" y="610" type="line"/>
      <point x="562" y="660" type="line"/>
      <point x="277" y="660" type="line"/>
    </contour>
    <contour>
      <point x="699" y="660" type="line"/>
      <point x="530" y="660" type="line"/>
      <point x="423" y="56" type="line"/>
      <point x="347" y="16" type="line"/>
      <point x="344" y="0" type="line"/>
      <point x="600" y="0" type="line" smooth="yes"/>
      <point x="808" y="0"/>
      <point x="907" y="87"/>
      <point x="907" y="208" type="curve" smooth="yes"/>
      <point x="907" y="320"/>
      <point x="826" y="388"/>
      <point x="669" y="388" type="curve" smooth="yes"/>
      <point x="567" y="388" type="line"/>
      <point x="605" y="604" type="line"/>
      <point x="696" y="644" type="line"/>
    </contour>
    <contour>
      <point x="507" y="50" type="line"/>
      <point x="558" y="338" type="line"/>
      <point x="651" y="338" type="line" smooth="yes"/>
      <point x="762" y="338"/>
      <point x="817" y="294"/>
      <point x="817" y="207" type="curve" smooth="yes"/>
      <point x="817" y="111"/>
      <point x="748" y="50"/>
      <point x="609" y="50" type="curve" smooth="yes"/>
    </contour>
  </outline>
</glyph>
<glyph name="uni040A" format="2">
  <advance width="1037"/>
  <unicode hex="040A"/>
  <outline>
    <contour>
      <point x="10" y="0" type="line"/>
      <point x="248" y="0" type="line"/>
      <point x="251" y="16" type="line"/>
      <point x="174" y="56" type="line"/>
      <point x="271" y="604" type="line"/>
      <point x="352" y="644" type="line"/>
      <point x="355" y="660" type="line"/>
      <point x="117" y="660" type="line"/>
      <point x="114" y="644" type="line"/>
      <point x="186" y="604" type="line"/>
      <point x="89" y="56" type="line"/>
      <point x="13" y="16" type="line"/>
    </contour>
    <contour>
      <point x="185" y="325" type="line"/>
      <point x="605" y="325" type="line"/>
      <point x="605" y="375" type="line"/>
      <point x="185" y="375" type="line"/>
    </contour>
    <contour>
      <point x="516" y="660" type="line"/>
      <point x="513" y="644" type="line"/>
      <point x="585" y="604" type="line"/>
      <point x="488" y="56" type="line"/>
      <point x="412" y="16" type="line"/>
      <point x="409" y="0" type="line"/>
      <point x="665" y="0" type="line" smooth="yes"/>
      <point x="873" y="0"/>
      <point x="972" y="86"/>
      <point x="972" y="205" type="curve" smooth="yes"/>
      <point x="972" y="311"/>
      <point x="891" y="375"/>
      <point x="734" y="375" type="curve" smooth="yes"/>
      <point x="629" y="375" type="line"/>
      <point x="670" y="604" type="line"/>
      <point x="761" y="644" type="line"/>
      <point x="764" y="660" type="line"/>
    </contour>
    <contour>
      <point x="572" y="50" type="line"/>
      <point x="621" y="325" type="line"/>
      <point x="716" y="325" type="line" smooth="yes"/>
      <point x="827" y="325"/>
      <point x="882" y="284"/>
      <point x="882" y="204" type="curve" smooth="yes"/>
      <point x="882" y="110"/>
      <point x="813" y="50"/>
      <point x="674" y="50" type="curve" smooth="yes"/>
    </contour>
  </outline>
</glyph>
<glyph name="uni040B" format="2">
  <advance width="846.0"/>
  <unicode hex="040B"/>
  <outline>
    <contour>
      <point x="736" y="0" type="line"/>
      <point x="739" y="16" type="line"/>
      <point x="666" y="56" type="line"/>
      <point x="688" y="182" type="line" smooth="yes"/>
      <point x="712" y="321"/>
      <point x="647" y="381"/>
      <point x="536" y="381" type="curve" smooth="yes"/>
      <point x="463" y="381"/>
      <point x="389" y="352"/>
      <point x="346" y="316" type="curve"/>
      <point x="338" y="272" type="line"/>
      <point x="383" y="303"/>
      <point x="436" y="316"/>
      <point x="492" y="316" type="curve" smooth="yes"/>
      <point x="587" y="316"/>
      <point x="618" y="276"/>
      <point x="600" y="173" type="curve" smooth="yes"/>
      <point x="570" y="0" type="line"/>
    </contour>
    <contour>
      <point x="123" y="0" type="line"/>
      <point x="399" y="0" type="line"/>
      <point x="402" y="16" type="line"/>
      <point x="314" y="56" type="line"/>
      <point x="413" y="610" type="line"/>
      <point x="575" y="610" type="line"/>
      <point x="613" y="458" type="line"/>
      <point x="629" y="458" type="line"/>
      <point x="665" y="660" type="line"/>
      <point x="110" y="660" type="line"/>
      <point x="75" y="458" type="line"/>
      <point x="91" y="458" type="line"/>
      <point x="182" y="610" type="line"/>
      <point x="327" y="610" type="line"/>
      <point x="228" y="56" type="line"/>
      <point x="127" y="16" type="line"/>
    </contour>
  </outline>
</glyph>
<glyph name="uni0413" format="2">
  <advance width="593.0"/>
  <unicode hex="0413"/>
  <outline>
    <contour>
      <point x="10" y="0" type="line"/>
      <point x="267" y="0" type="line"/>
      <point x="270" y="16" type="line"/>
      <point x="181" y="56" type="line"/>
      <point x="288" y="660" type="line"/>
      <point x="126" y="660" type="line"/>
      <point x="123" y="644" type="line"/>
      <point x="192" y="604" type="line"/>
      <point x="96" y="56" type="line"/>
      <point x="13" y="16" type="line"/>
    </contour>
    <contour>
      <point x="525" y="488" type="line"/>
      <point x="541" y="488" type="line"/>
      <point x="571" y="660" type="line"/>
      <point x="228" y="660" type="line"/>
      <point x="218" y="610" type="line"/>
      <point x="487" y="610" type="line"/>
    </contour>
  </outline>
</glyph>
<glyph name="uni0414" format="2">
  <advance width="759.0"/>
  <unicode hex="0414"/>
  <outline>
    <contour>
      <point x="298" y="556" type="curve" smooth="yes"/>
      <point x="317" y="660" type="line"/>
      <point x="179" y="660" type="line"/>
      <point x="176" y="644" type="line"/>
      <point x="249" y="604" type="line"/>
      <point x="240" y="556" type="line" smooth="yes"/>
      <point x="198" y="331"/>
      <point x="155" y="182"/>
      <point x="68" y="36" type="curve"/>
      <point x="134" y="36" type="line"/>
      <point x="215" y="181"/>
      <point x="257" y="329"/>
    </contour>
    <contour>
      <point x="90" y="0" type="line"/>
      <point x="546" y="0" type="line"/>
      <point x="593" y="-167" type="line"/>
      <point x="609" y="-167" type="line"/>
      <point x="647" y="50" type="line"/>
      <point x="547" y="50" type="line"/>
      <point x="645" y="604" type="line"/>
      <point x="726" y="644" type="line"/>
      <point x="729" y="660" type="line"/>
      <point x="290" y="660" type="line"/>
      <point x="282" y="610" type="line"/>
      <point x="561" y="610" type="line"/>
      <point x="462" y="50" type="line"/>
      <point x="3" y="50" type="line"/>
      <point x="-35" y="-167" type="line"/>
      <point x="-19" y="-167" type="line"/>
    </contour>
  </outline>
</glyph>
<glyph name="uni0416" format="2">
  <advance width="1005.0"/>
  <unicode hex="0416"/>
  <outline>
    <contour>
      <point x="336" y="0" type="line"/>
      <point x="573" y="0" type="line"/>
      <point x="576" y="16" type="line"/>
      <point x="507" y="56" type="line"/>
      <point x="603" y="604" type="line"/>
      <point x="686" y="644" type="line"/>
      <point x="689" y="660" type="line"/>
      <point x="451" y="660" type="line"/>
      <point x="449" y="644" type="line"/>
      <point x="517" y="604" type="line"/>
      <point x="422" y="56" type="line"/>
      <point x="338" y="16" type="line"/>
    </contour>
    <contour>
      <point x="795" y="0" type="line"/>
      <point x="917" y="0" type="line"/>
      <point x="920" y="16" type="line"/>
      <point x="859" y="52" type="line"/>
      <point x="623" y="381" type="line"/>
      <point x="620" y="338" type="line"/>
      <point x="947" y="632" type="line"/>
      <point x="907" y="610" type="line"/>
      <point x="995" y="644" type="line"/>
      <point x="999" y="660" type="line"/>
      <point x="799" y="660" type="line"/>
      <point x="796" y="644" type="line"/>
      <point x="882" y="597" type="line"/>
      <point x="883" y="632" type="line"/>
      <point x="557" y="338" type="line"/>
    </contour>
    <contour>
      <point x="113" y="0" type="line"/>
      <point x="469" y="338" type="line"/>
      <point x="247" y="632" type="line"/>
      <point x="236" y="597" type="line"/>
      <point x="338" y="644" type="line"/>
      <point x="341" y="660" type="line"/>
      <point x="141" y="660" type="line"/>
      <point x="139" y="644" type="line"/>
      <point x="215" y="610" type="line"/>
      <point x="183" y="632" type="line"/>
      <point x="406" y="338" type="line"/>
      <point x="408" y="381" type="line"/>
      <point x="58" y="52" type="line"/>
      <point x="-18" y="16" type="line"/>
      <point x="-21" y="0" type="line"/>
    </contour>
  </outline>
</glyph>
<glyph name="uni0417" format="2">
  <advance width="622.0"/>
  <unicode hex="0417"/>
  <outline>
    <contour>
      <point x="365" y="625" type="curve" smooth="yes"/>
      <point x="436" y="625"/>
      <point x="469" y="576"/>
      <point x="469" y="520" type="curve" smooth="yes"/>
      <point x="469" y="448"/>
      <point x="411" y="365"/>
      <point x="304" y="365" type="curve" smooth="yes"/>
      <point x="228" y="365" type="line"/>
      <point x="218" y="315" type="line"/>
      <point x="297" y="315" type="line" smooth="yes"/>
      <point x="400" y="315"/>
      <point x="449" y="268"/>
      <point x="449" y="189" type="curve" smooth="yes"/>
      <point x="449" y="114"/>
      <point x="388" y="35"/>
      <point x="266" y="35" type="curve" smooth="yes"/>
      <point x="194" y="35"/>
      <point x="159" y="54"/>
      <point x="132" y="76" type="curve"/>
      <point x="84" y="198" type="line"/>
      <point x="67" y="198" type="line"/>
      <point x="50" y="39" type="line"/>
      <point x="101" y="11"/>
      <point x="155" y="-10"/>
      <point x="267" y="-10" type="curve" smooth="yes"/>
      <point x="436" y="-10"/>
      <point x="544" y="100"/>
      <point x="544" y="202" type="curve" smooth="yes"/>
      <point x="544" y="274"/>
      <point x="500" y="328"/>
      <point x="400" y="345" type="curve"/>
      <point x="507" y="371"/>
      <point x="562" y="450"/>
      <point x="562" y="523" type="curve" smooth="yes"/>
      <point x="562" y="600"/>
      <point x="503" y="670"/>
      <point x="378" y="670" type="curve" smooth="yes"/>
      <point x="280" y="670"/>
      <point x="226" y="651"/>
      <point x="167" y="625" type="curve"/>
      <point x="131" y="450" type="line"/>
      <point x="149" y="450" type="line"/>
      <point x="238" y="582" type="line"/>
      <point x="282" y="614"/>
      <point x="317" y="625"/>
    </contour>
  </outline>
</glyph>
<glyph name="uni041B" format="2">
  <advance width="722.0"/>
  <unicode hex="041B"/>
  <outline>
    <contour>
      <point x="294" y="556" type="curve" smooth="yes"/>
      <point x="312" y="660" type="line"/>
      <point x="176" y="660" type="line"/>
      <point x="173" y="644" type="line"/>
      <point x="246" y="604" type="line"/>
      <point x="238" y="556" type="line" smooth="yes"/>
      <point x="192" y="279"/>
      <point x="124" y="78"/>
      <point x="15" y="78" type="curve" smooth="yes"/>
      <point x="5" y="78" type="line"/>
      <point x="1" y="74" type="line"/>
      <point x="-9" y="19" type="line" smooth="yes"/>
      <point x="-13" y="-3"/>
      <point x="-10" y="-10"/>
      <point x="20" y="-10" type="curve" smooth="yes"/>
      <point x="57" y="-10"/>
      <point x="106" y="9"/>
      <point x="156" y="91" type="curve" smooth="yes"/>
      <point x="216" y="192"/>
      <point x="255" y="334"/>
    </contour>
    <contour>
      <point x="269" y="610" type="line"/>
      <point x="589" y="610" type="line"/>
      <point x="597" y="660" type="line"/>
      <point x="277" y="660" type="line"/>
    </contour>
    <contour>
      <point x="367" y="0" type="line"/>
      <point x="605" y="0" type="line"/>
      <point x="608" y="16" type="line"/>
      <point x="531" y="56" type="line"/>
      <point x="628" y="604" type="line"/>
      <point x="709" y="644" type="line"/>
      <point x="712" y="660" type="line"/>
      <point x="553" y="660" type="line"/>
      <point x="446" y="56" type="line"/>
      <point x="370" y="16" type="line"/>
    </contour>
  </outline>
</glyph>
<glyph name="uni0423" format="2">
  <advance width="693.0"/>
  <unicode hex="0423"/>
  <outline>
    <contour>
      <point x="389" y="202" type="curve" smooth="yes"/>
      <point x="666" y="615" type="line"/>
      <point x="725" y="644" type="line"/>
      <point x="728" y="660" type="line"/>
      <point x="518" y="660" type="line"/>
      <point x="515" y="644" type="line"/>
      <point x="591" y="610" type="line"/>
      <point x="591" y="606" type="line"/>
      <point x="350" y="239" type="line"/>
      <point x="340" y="239" type="line"/>
      <point x="229" y="602" type="line"/>
      <point x="230" y="607" type="line"/>
      <point x="322" y="644" type="line"/>
      <point x="325" y="660" type="line"/>
      <point x="83" y="660" type="line"/>
      <point x="80" y="644" type="line"/>
      <point x="144" y="608" type="line"/>
      <point x="285" y="150" type="line"/>
      <point x="251" y="103"/>
      <point x="214" y="78"/>
      <point x="151" y="78" type="curve" smooth="yes"/>
      <point x="141" y="78" type="line"/>
      <point x="137" y="74" type="line"/>
      <point x="127" y="19" type="line" smooth="yes"/>
      <point x="123" y="-3"/>
      <point x="126" y="-10"/>
      <point x="156" y="-10" type="curve" smooth="yes"/>
      <point x="230" y="-10"/>
      <point x="279" y="38"/>
    </contour>
  </outline>
</glyph>
<glyph name="uni0424" format="2">
  <advance width="837.0"/>
  <unicode hex="0424"/>
  <outline>
    <contour>
      <point x="243" y="-20" type="line"/>
      <point x="481" y="-20" type="line"/>
      <point x="484" y="-4" type="line"/>
      <point x="407" y="36" type="line"/>
      <point x="510" y="624" type="line"/>
      <point x="591" y="664" type="line"/>
      <point x="594" y="680" type="line"/>
      <point x="356" y="680" type="line"/>
      <point x="353" y="664" type="line"/>
      <point x="425" y="624" type="line"/>
      <point x="322" y="36" type="line"/>
      <point x="246" y="-4" type="line"/>
    </contour>
    <contour>
      <point x="412" y="537" type="curve"/>
      <point x="435" y="580" type="line"/>
      <point x="187" y="580"/>
      <point x="35" y="450"/>
      <point x="35" y="299" type="curve" smooth="yes"/>
      <point x="35" y="160"/>
      <point x="140" y="80"/>
      <point x="347" y="80" type="curve"/>
      <point x="357" y="122" type="line"/>
      <point x="209" y="122"/>
      <point x="125" y="190"/>
      <point x="125" y="309" type="curve" smooth="yes"/>
      <point x="125" y="433"/>
      <point x="216" y="537"/>
    </contour>
    <contour>
      <point x="420" y="123" type="curve"/>
      <point x="397" y="80" type="line"/>
      <point x="645" y="80"/>
      <point x="797" y="210"/>
      <point x="797" y="361" type="curve" smooth="yes"/>
      <point x="797" y="500"/>
      <point x="692" y="580"/>
      <point x="485" y="580" type="curve"/>
      <point x="475" y="538" type="line"/>
      <point x="623" y="538"/>
      <point x="707" y="470"/>
      <point x="707" y="351" type="curve" smooth="yes"/>
      <point x="707" y="227"/>
      <point x="616" y="123"/>
    </contour>
  </outline>
</glyph>
<glyph name="uni0426" format="2">
  <advance width="784.0"/>
  <unicode hex="0426"/>
  <outline>
    <contour>
      <point x="754" y="660" type="line"/>
      <point x="516" y="660" type="line"/>
      <point x="513" y="644" type="line"/>
      <point x="590" y="604" type="line"/>
      <point x="483" y="0" type="line"/>
      <point x="568" y="0" type="line"/>
      <point x="675" y="604" type="line"/>
      <point x="751" y="644" type="line"/>
    </contour>
    <contour>
      <point x="563" y="50" type="line"/>
      <point x="133" y="50" type="line"/>
      <point x="125" y="0" type="line"/>
      <point x="555" y="0" type="line"/>
    </contour>
    <contour>
      <point x="355" y="660" type="line"/>
      <point x="117" y="660" type="line"/>
      <point x="114" y="644" type="line"/>
      <point x="191" y="604" type="line"/>
      <point x="94" y="56" type="line"/>
      <point x="13" y="16" type="line"/>
      <point x="10" y="0" type="line"/>
      <point x="169" y="0" type="line"/>
      <point x="276" y="604" type="line"/>
      <point x="352" y="644" type="line"/>
    </contour>
    <contour>
      <point x="584" y="0" type="line"/>
      <point x="623" y="-167" type="line"/>
      <point x="639" y="-167" type="line"/>
      <point x="677" y="50" type="line"/>
      <point x="492" y="50" type="line"/>
      <point x="483" y="0" type="line"/>
    </contour>
  </outline>
</glyph>
<glyph name="uni0427" format="2">
  <advance width="721.0"/>
  <unicode hex="0427"/>
  <outline>
    <contour>
      <point x="366" y="0" type="line"/>
      <point x="604" y="0" type="line"/>
      <point x="607" y="16" type="line"/>
      <point x="530" y="56" type="line"/>
      <point x="627" y="604" type="line"/>
      <point x="708" y="644" type="line"/>
      <point x="711" y="660" type="line"/>
      <point x="473" y="660" type="line"/>
      <point x="470" y="644" type="line"/>
      <point x="542" y="604" type="line"/>
      <point x="445" y="56" type="line"/>
      <point x="369" y="16" type="line"/>
    </contour>
    <contour>
      <point x="213" y="499" type="curve" smooth="yes"/>
      <point x="232" y="604" type="line"/>
      <point x="313" y="644" type="line"/>
      <point x="316" y="660" type="line"/>
      <point x="78" y="660" type="line"/>
      <point x="75" y="644" type="line"/>
      <point x="147" y="604" type="line"/>
      <point x="128" y="500" type="line" smooth="yes"/>
      <point x="97" y="331"/>
      <point x="180" y="278"/>
      <point x="336" y="278" type="curve" smooth="yes"/>
      <point x="398.0" y="278.0"/>
      <point x="452.0" y="292.0"/>
      <point x="503" y="310" type="curve"/>
      <point x="512" y="358" type="line"/>
      <point x="457" y="337"/>
      <point x="407" y="329"/>
      <point x="341" y="329" type="curve" smooth="yes"/>
      <point x="229" y="329"/>
      <point x="190" y="374"/>
    </contour>
  </outline>
</glyph>
<glyph name="uni042A" format="2">
  <advance width="732.0"/>
  <unicode hex="042A"/>
  <outline>
    <contour>
      <point x="339" y="660" type="line"/>
      <point x="100" y="660" type="line"/>
      <point x="65" y="458" type="line"/>
      <point x="81" y="458" type="line"/>
      <point x="174" y="610" type="line"/>
      <point x="327" y="610" type="line"/>
    </contour>
    <contour>
      <point x="459" y="660" type="line"/>
      <point x="290" y="660" type="line"/>
      <point x="183" y="56" type="line"/>
      <point x="107" y="16" type="line"/>
      <point x="104" y="0" type="line"/>
      <point x="360" y="0" type="line" smooth="yes"/>
      <point x="568" y="0"/>
      <point x="667" y="87"/>
      <point x="667" y="208" type="curve" smooth="yes"/>
      <point x="667" y="320"/>
      <point x="586" y="388"/>
      <point x="429" y="388" type="curve" smooth="yes"/>
      <point x="327" y="388" type="line"/>
      <point x="365" y="604" type="line"/>
      <point x="456" y="644" type="line"/>
    </contour>
    <contour>
      <point x="267" y="50" type="line"/>
      <point x="318" y="338" type="line"/>
      <point x="411" y="338" type="line" smooth="yes"/>
      <point x="522" y="338"/>
      <point x="577" y="294"/>
      <point x="577" y="207" type="curve" smooth="yes"/>
      <point x="577" y="111"/>
      <point x="508" y="50"/>
      <point x="369" y="50" type="curve" smooth="yes"/>
    </contour>
  </outline>
</glyph>
<glyph name="uni042C" format="2">
  <advance width="638.0"/>
  <unicode hex="042C"/>
  <outline>
    <contour>
      <point x="117" y="660" type="line"/>
      <point x="114" y="644" type="line"/>
      <point x="186" y="604" type="line"/>
      <point x="89" y="56" type="line"/>
      <point x="13" y="16" type="line"/>
      <point x="10" y="0" type="line"/>
      <point x="266" y="0" type="line" smooth="yes"/>
      <point x="474" y="0"/>
      <point x="573" y="87"/>
      <point x="573" y="208" type="curve" smooth="yes"/>
      <point x="573" y="320"/>
      <point x="492" y="388"/>
      <point x="335" y="388" type="curve" smooth="yes"/>
      <point x="233" y="388" type="line"/>
      <point x="271" y="604" type="line"/>
      <point x="362" y="644" type="line"/>
      <point x="365" y="660" type="line"/>
    </contour>
    <contour>
      <point x="173" y="50" type="line"/>
      <point x="224" y="338" type="line"/>
      <point x="317" y="338" type="line" smooth="yes"/>
      <point x="428" y="338"/>
      <point x="483" y="294"/>
      <point x="483" y="207" type="curve" smooth="yes"/>
      <point x="483" y="111"/>
      <point x="414" y="50"/>
      <point x="275" y="50" type="curve" smooth="yes"/>
    </contour>
  </outline>
</glyph>
<glyph name="uni042D" format="2">
  <advance width="681.0"/>
  <unicode hex="042D"/>
  <outline>
    <contour>
      <point x="270" y="446" type="line"/>
      <point x="254" y="446" type="line"/>
      <point x="216" y="232" type="line"/>
      <point x="232" y="232" type="line"/>
      <point x="297" y="315" type="line"/>
      <point x="527" y="315" type="line"/>
      <point x="536" y="365" type="line"/>
      <point x="306" y="365" type="line"/>
    </contour>
    <contour>
      <point x="360" y="670" type="curve" smooth="yes"/>
      <point x="261" y="670"/>
      <point x="206" y="650"/>
      <point x="145" y="621" type="curve"/>
      <point x="107" y="462" type="line"/>
      <point x="123" y="462" type="line"/>
      <point x="203" y="571" type="line"/>
      <point x="240" y="598"/>
      <point x="285" y="624"/>
      <point x="339" y="624" type="curve" smooth="yes"/>
      <point x="450" y="624"/>
      <point x="528" y="532"/>
      <point x="528" y="374" type="curve" smooth="yes"/>
      <point x="528" y="187"/>
      <point x="428" y="36"/>
      <point x="256" y="36" type="curve" smooth="yes"/>
      <point x="195" y="36"/>
      <point x="165" y="54"/>
      <point x="132" y="89" type="curve"/>
      <point x="92" y="213" type="line"/>
      <point x="76" y="213" type="line"/>
      <point x="50" y="38" type="line"/>
      <point x="114" y="3"/>
      <point x="158" y="-10"/>
      <point x="247" y="-10" type="curve" smooth="yes"/>
      <point x="444" y="-10"/>
      <point x="621" y="159"/>
      <point x="621" y="401" type="curve" smooth="yes"/>
      <point x="621" y="559"/>
      <point x="529" y="670"/>
    </contour>
  </outline>
</glyph>
<glyph name="uni042F" format="2">
  <advance width="683.0"/>
  <unicode hex="042F"/>
  <outline>
    <contour>
      <point x="116" y="0" type="line"/>
      <point x="390" y="321" type="line"/>
      <point x="295" y="321" type="line"/>
      <point x="52" y="52" type="line"/>
      <point x="-20" y="16" type="line"/>
      <point x="-23" y="0" type="line"/>
    </contour>
    <contour>
      <point x="566" y="0" type="line"/>
      <point x="569" y="16" type="line"/>
      <point x="497" y="56" type="line"/>
      <point x="594" y="604" type="line"/>
      <point x="670" y="644" type="line"/>
      <point x="673" y="660" type="line"/>
      <point x="447" y="660" type="line" smooth="yes"/>
      <point x="239" y="660"/>
      <point x="140" y="575"/>
      <point x="140" y="457" type="curve" smooth="yes"/>
      <point x="140" y="367"/>
      <point x="197" y="304"/>
      <point x="313" y="290" type="curve"/>
      <point x="351" y="283" type="line" smooth="yes"/>
      <point x="452" y="283" type="line"/>
      <point x="412" y="56" type="line"/>
      <point x="321" y="16" type="line"/>
      <point x="318" y="0" type="line"/>
    </contour>
    <contour>
      <point x="396" y="333" type="line"/>
      <point x="285" y="333"/>
      <point x="230" y="375"/>
      <point x="230" y="458" type="curve" smooth="yes"/>
      <point x="230" y="551"/>
      <point x="299" y="610"/>
      <point x="438" y="610" type="curve" smooth="yes"/>
      <point x="510" y="610" type="line"/>
      <point x="461" y="333" type="line"/>
    </contour>
  </outline>
</glyph>
<glyph name="uni0431" format="2">
  <advance width="509"/>
  <unicode hex="0431"/>
  <outline>
    <contour>
      <point x="516" y="740" type="line"/>
      <point x="510" y="706"/>
      <point x="502" y="696"/>
      <point x="437" y="680" type="curve" smooth="yes"/>
      <point x="176" y="616"/>
      <point x="51.0" y="398.0"/>
      <point x="51" y="181" type="curve" smooth="yes"/>
      <point x="51" y="70"/>
      <point x="106" y="-10"/>
      <point x="217" y="-10" type="curve" smooth="yes"/>
      <point x="358" y="-10"/>
      <point x="460" y="130"/>
      <point x="460" y="269" type="curve" smooth="yes"/>
      <point x="460" y="377"/>
      <point x="396" y="440"/>
      <point x="311" y="440" type="curve" smooth="yes"/>
      <point x="218.0" y="440.0"/>
      <point x="165.0" y="390.0"/>
      <point x="128" y="329" type="curve"/>
      <point x="145" y="313" type="line"/>
      <point x="181.0" y="371.0"/>
      <point x="228.0" y="398.0"/>
      <point x="274" y="398" type="curve" smooth="yes"/>
      <point x="347" y="398"/>
      <point x="373.0" y="340.0"/>
      <point x="373" y="266" type="curve" smooth="yes"/>
      <point x="373" y="132"/>
      <point x="316" y="28"/>
      <point x="228" y="28" type="curve" smooth="yes"/>
      <point x="171.0" y="28.0"/>
      <point x="137" y="74"/>
      <point x="137" y="170" type="curve" smooth="yes"/>
      <point x="137" y="226"/>
      <point x="142" y="287"/>
      <point x="153" y="345" type="curve" smooth="yes"/>
      <point x="171" y="437"/>
      <point x="204.0" y="520.0"/>
      <point x="254" y="555" type="curve" smooth="yes"/>
      <point x="292.954928865" y="582.678502088"/>
      <point x="323.972667908" y="593.998019414"/>
      <point x="393" y="599" type="curve" smooth="yes"/>
      <point x="499.986431231" y="606.998985513"/>
      <point x="526.182766139" y="647.827661392"/>
      <point x="534" y="726" type="curve" smooth="yes"/>
      <point x="535" y="736" type="line"/>
      <point x="532" y="740" type="line"/>
    </contour>
  </outline>
</glyph>
<glyph name="uni0432" format="2">
  <advance width="465.0"/>
  <unicode hex="0432"/>
  <outline>
    <contour>
      <point x="392" y="149" type="curve" smooth="yes"/>
      <point x="392" y="218"/>
      <point x="330" y="263"/>
      <point x="215" y="237" type="curve"/>
      <point x="237" y="234" type="line"/>
      <point x="347" y="261"/>
      <point x="410.0" y="307.0"/>
      <point x="410" y="379" type="curve" smooth="yes"/>
      <point x="410" y="424"/>
      <point x="376" y="460"/>
      <point x="307" y="460" type="curve" smooth="yes"/>
      <point x="163" y="460"/>
      <point x="50" y="305"/>
      <point x="50" y="148" type="curve" smooth="yes"/>
      <point x="50" y="30"/>
      <point x="112" y="-10"/>
      <point x="203" y="-10" type="curve" smooth="yes"/>
      <point x="298" y="-10"/>
      <point x="392" y="57"/>
    </contour>
    <contour>
      <point x="208" y="28" type="curve" smooth="yes"/>
      <point x="146" y="28"/>
      <point x="126" y="80"/>
      <point x="126" y="148" type="curve" smooth="yes"/>
      <point x="126" y="323"/>
      <point x="187" y="425"/>
      <point x="280" y="425" type="curve" smooth="yes"/>
      <point x="316" y="425"/>
      <point x="335" y="405"/>
      <point x="335" y="369" type="curve" smooth="yes"/>
      <point x="335" y="315"/>
      <point x="305" y="272"/>
      <point x="201" y="254" type="curve" smooth="yes"/>
      <point x="127" y="241" type="line"/>
      <point x="118" y="202" type="line"/>
      <point x="201" y="217" type="line" smooth="yes"/>
      <point x="213" y="219"/>
      <point x="225" y="220"/>
      <point x="235" y="220" type="curve" smooth="yes"/>
      <point x="291" y="220"/>
      <point x="315" y="187"/>
      <point x="315" y="142" type="curve" smooth="yes"/>
      <point x="315" y="80"/>
      <point x="271" y="28"/>
    </contour>
  </outline>
</glyph>
<glyph name="uni0433" format="2">
  <advance width="445.0"/>
  <unicode hex="0433"/>
  <anchor x="301" y="502" name="top"/>
  <outline>
    <contour>
      <point x="190" y="-10" type="curve" smooth="yes"/>
      <point x="255" y="-10"/>
      <point x="298" y="-1"/>
      <point x="351" y="24" type="curve"/>
      <point x="370" y="136" type="line"/>
      <point x="356" y="136" type="line"/>
      <point x="315" y="81" type="line" smooth="yes"/>
      <point x="286.0" y="44.0"/>
      <point x="249.0" y="26.0"/>
      <point x="199" y="26" type="curve" smooth="yes"/>
      <point x="149.66666666666669" y="26.0"/>
      <point x="125.0" y="54.0"/>
      <point x="125" y="91" type="curve" smooth="yes"/>
      <point x="125.0" y="141.0"/>
      <point x="173.15020284027847" y="168.55936443569996"/>
      <point x="228" y="197" type="curve" smooth="yes"/>
      <point x="303" y="234"/>
      <point x="393" y="269"/>
      <point x="393" y="357" type="curve" smooth="yes"/>
      <point x="393" y="426"/>
      <point x="337" y="460"/>
      <point x="263" y="460" type="curve" smooth="yes"/>
      <point x="202" y="460"/>
      <point x="158" y="448"/>
      <point x="111" y="426" type="curve"/>
      <point x="92" y="317" type="line"/>
      <point x="106" y="317" type="line"/>
      <point x="149" y="370" type="line" smooth="yes"/>
      <point x="178.0" y="406.0"/>
      <point x="210.0" y="421.0"/>
      <point x="243" y="421" type="curve" smooth="yes"/>
      <point x="286.8805970149254" y="421.0"/>
      <point x="313.0" y="400.0"/>
      <point x="313" y="357" type="curve" smooth="yes"/>
      <point x="313.0" y="303.0"/>
      <point x="255.24452461634075" y="275.6222623081704"/>
      <point x="194" y="245" type="curve" smooth="yes"/>
      <point x="123" y="211"/>
      <point x="45" y="175"/>
      <point x="45" y="94" type="curve" smooth="yes"/>
      <point x="45" y="18"/>
      <point x="119" y="-10"/>
    </contour>
  </outline>
</glyph>
<glyph name="uni0434" format="2">
  <advance width="519.0"/>
  <unicode hex="0434"/>
  <outline>
    <contour>
      <point x="202" y="-10" type="curve" smooth="yes"/>
      <point x="379.5458015267176" y="-10.0"/>
      <point x="459.0" y="186.99999999999997"/>
      <point x="459" y="397" type="curve" smooth="yes"/>
      <point x="459.0" y="574.0"/>
      <point x="381.9362745098039" y="735.0"/>
      <point x="260" y="735" type="curve" smooth="yes"/>
      <point x="219" y="735"/>
      <point x="189" y="716"/>
      <point x="160" y="684" type="curve"/>
      <point x="183" y="665" type="line"/>
      <point x="202" y="686"/>
      <point x="231" y="697"/>
      <point x="251" y="697" type="curve" smooth="yes"/>
      <point x="337.61654135338347" y="697.0"/>
      <point x="379.0" y="554.0"/>
      <point x="379" y="401" type="curve" smooth="yes"/>
      <point x="379.0" y="222.0"/>
      <point x="321.72514619883043" y="28.0"/>
      <point x="213" y="28" type="curve" smooth="yes"/>
      <point x="155.96296296296296" y="28.0"/>
      <point x="136.0" y="97.0"/>
      <point x="136" y="179" type="curve" smooth="yes"/>
      <point x="136.0" y="314.0"/>
      <point x="197.32" y="422.0"/>
      <point x="282" y="422" type="curve" smooth="yes"/>
      <point x="327.9130434782609" y="422.0"/>
      <point x="364.4370789264921" y="404.42243141856403"/>
      <point x="392" y="368" type="curve"/>
      <point x="424" y="421" type="line"/>
      <point x="390.94141221484256" y="441.41853951436195"/>
      <point x="352.84615384615387" y="460.0"/>
      <point x="299" y="460" type="curve" smooth="yes"/>
      <point x="163.19920318725102" y="460.0"/>
      <point x="52.0" y="336.0"/>
      <point x="52" y="172" type="curve" smooth="yes"/>
      <point x="52.0" y="68.0"/>
      <point x="108.4935064935065" y="-10.0"/>
    </contour>
  </outline>
</glyph>
<glyph name="uni0437" format="2">
  <advance width="431"/>
  <unicode hex="0437"/>
  <outline>
    <contour>
      <point x="181" y="-10" type="curve" smooth="yes"/>
      <point x="290" y="-10"/>
      <point x="359" y="64"/>
      <point x="359" y="132" type="curve" smooth="yes"/>
      <point x="359" y="184"/>
      <point x="317" y="232"/>
      <point x="216" y="236" type="curve"/>
      <point x="216" y="229" type="line"/>
      <point x="321" y="236"/>
      <point x="376" y="299"/>
      <point x="376" y="357" type="curve" smooth="yes"/>
      <point x="376" y="421"/>
      <point x="336" y="460"/>
      <point x="263" y="460" type="curve" smooth="yes"/>
      <point x="185" y="460"/>
      <point x="128" y="420"/>
      <point x="84" y="337" type="curve"/>
      <point x="94" y="329" type="line"/>
      <point x="96" y="329" type="line"/>
      <point x="142" y="389"/>
      <point x="182" y="412"/>
      <point x="231" y="412" type="curve" smooth="yes"/>
      <point x="276" y="412"/>
      <point x="302" y="386"/>
      <point x="302" y="346" type="curve" smooth="yes"/>
      <point x="302" y="299"/>
      <point x="259" y="247"/>
      <point x="185" y="247" type="curve" smooth="yes"/>
      <point x="151" y="247" type="line"/>
      <point x="146" y="214" type="line"/>
      <point x="183" y="214" type="line" smooth="yes"/>
      <point x="256" y="214"/>
      <point x="283" y="173"/>
      <point x="283" y="130" type="curve" smooth="yes"/>
      <point x="283" y="75"/>
      <point x="247" y="28"/>
      <point x="193" y="28" type="curve" smooth="yes"/>
      <point x="154" y="28"/>
      <point x="136" y="46"/>
      <point x="111" y="81" type="curve" smooth="yes"/>
      <point x="90" y="110" type="line"/>
      <point x="83" y="110" type="line"/>
      <point x="55" y="93" type="line" smooth="yes"/>
      <point x="44" y="87"/>
      <point x="40" y="76"/>
      <point x="40" y="67" type="curve" smooth="yes"/>
      <point x="40" y="58"/>
      <point x="42" y="52"/>
      <point x="51" y="39" type="curve" smooth="yes"/>
      <point x="70" y="10"/>
      <point x="103" y="-10"/>
    </contour>
  </outline>
</glyph>
<glyph name="uni043A" format="2">
  <advance width="476"/>
  <unicode hex="043A"/>
  <outline>
    <contour>
      <point x="356" y="-10" type="curve" smooth="yes"/>
      <point x="396" y="-10"/>
      <point x="419.2620116497707" y="30.63631400658609"/>
      <point x="461" y="132" type="curve"/>
      <point x="448" y="138" type="line"/>
      <point x="424" y="87"/>
      <point x="407" y="63"/>
      <point x="383" y="63" type="curve" smooth="yes"/>
      <point x="365" y="63"/>
      <point x="355" y="75"/>
      <point x="333" y="109" type="curve" smooth="yes"/>
      <point x="228" y="272" type="line"/>
      <point x="215" y="247" type="line"/>
      <point x="318" y="354" type="line" smooth="yes"/>
      <point x="339" y="376"/>
      <point x="356" y="387"/>
      <point x="380" y="387" type="curve" smooth="yes"/>
      <point x="398" y="387"/>
      <point x="405" y="386"/>
      <point x="412" y="383" type="curve" smooth="yes"/>
      <point x="430" y="376" type="line"/>
      <point x="435" y="380" type="line"/>
      <point x="452" y="422" type="line" smooth="yes"/>
      <point x="457" y="434"/>
      <point x="451" y="444"/>
      <point x="442" y="451" type="curve" smooth="yes"/>
      <point x="435" y="456"/>
      <point x="424" y="460"/>
      <point x="408" y="460" type="curve" smooth="yes"/>
      <point x="363.26050420168065" y="460.0"/>
      <point x="313.0" y="409.0"/>
      <point x="166" y="235" type="curve"/>
      <point x="166" y="230" type="line"/>
      <point x="265" y="79" type="line" smooth="yes"/>
      <point x="297" y="30"/>
      <point x="314" y="-10"/>
    </contour>
    <contour>
      <point x="43" y="0" type="line"/>
      <point x="119" y="0" type="line"/>
      <point x="198" y="460" type="line"/>
      <point x="195" y="460" type="line"/>
      <point x="34" y="430" type="line"/>
      <point x="34" y="424" type="line"/>
      <point x="112" y="389" type="line"/>
    </contour>
  </outline>
</glyph>
<glyph name="uni043B" format="2">
  <advance width="490.0"/>
  <unicode hex="043B"/>
  <outline>
    <contour>
      <point x="195" y="408" type="line"/>
      <point x="377" y="408" type="line"/>
      <point x="377" y="450" type="line"/>
      <point x="195" y="450" type="line"/>
    </contour>
    <contour>
      <point x="214" y="378" type="curve" smooth="yes"/>
      <point x="227" y="450" type="line"/>
      <point x="113" y="450" type="line"/>
      <point x="110" y="434" type="line"/>
      <point x="173" y="402" type="line"/>
      <point x="169" y="378" type="line" smooth="yes"/>
      <point x="136" y="181"/>
      <point x="103" y="68"/>
      <point x="19" y="68" type="curve" smooth="yes"/>
      <point x="4" y="68" type="line"/>
      <point x="-1" y="64" type="line"/>
      <point x="-9" y="19" type="line" smooth="yes"/>
      <point x="-13" y="-3"/>
      <point x="-10" y="-10"/>
      <point x="18" y="-10" type="curve" smooth="yes"/>
      <point x="59" y="-10"/>
      <point x="92" y="12"/>
      <point x="119" y="56" type="curve" smooth="yes"/>
      <point x="160.0" y="120.0"/>
      <point x="187.0" y="228.0"/>
    </contour>
    <contour>
      <point x="344" y="-10" type="curve" smooth="yes"/>
      <point x="391" y="-10"/>
      <point x="436" y="32"/>
      <point x="475" y="132" type="curve"/>
      <point x="462" y="138" type="line"/>
      <point x="438" y="87"/>
      <point x="410" y="63"/>
      <point x="387" y="63" type="curve" smooth="yes"/>
      <point x="367" y="63"/>
      <point x="363" y="79"/>
      <point x="370" y="119" type="curve" smooth="yes"/>
      <point x="428" y="450" type="line"/>
      <point x="354" y="450" type="line"/>
      <point x="291" y="89" type="line" smooth="yes"/>
      <point x="281" y="29"/>
      <point x="297" y="-10"/>
    </contour>
  </outline>
</glyph>
<glyph name="uni043C" format="2">
  <advance width="674.0"/>
  <unicode hex="043C"/>
  <outline>
    <contour>
      <point x="255" y="450" type="line"/>
      <point x="214" y="450" type="line"/>
      <point x="196" y="395" type="line"/>
      <point x="276" y="0" type="line"/>
      <point x="295" y="0" type="line"/>
      <point x="336" y="81" type="line"/>
      <point x="338" y="121" type="line"/>
      <point x="321" y="121" type="line"/>
    </contour>
    <contour>
      <point x="538" y="450" type="line"/>
      <point x="289" y="64" type="line"/>
      <point x="284" y="0" type="line"/>
      <point x="297" y="0" type="line"/>
      <point x="549" y="395" type="line"/>
    </contour>
    <contour>
      <point x="211" y="378" type="curve" smooth="yes"/>
      <point x="224" y="450" type="line"/>
      <point x="113" y="450" type="line"/>
      <point x="110" y="434" type="line"/>
      <point x="173" y="402" type="line"/>
      <point x="169" y="378" type="line" smooth="yes"/>
      <point x="136" y="181"/>
      <point x="103" y="68"/>
      <point x="19" y="68" type="curve" smooth="yes"/>
      <point x="4" y="68" type="line"/>
      <point x="-1" y="64" type="line"/>
      <point x="-9" y="19" type="line" smooth="yes"/>
      <point x="-13" y="-3"/>
      <point x="-10" y="-10"/>
      <point x="18" y="-10" type="curve" smooth="yes"/>
      <point x="115" y="-10"/>
      <point x="163" y="110"/>
    </contour>
    <contour>
      <point x="528" y="-10" type="curve" smooth="yes"/>
      <point x="575" y="-10"/>
      <point x="620" y="32"/>
      <point x="659" y="132" type="curve"/>
      <point x="646" y="138" type="line"/>
      <point x="622" y="87"/>
      <point x="594" y="63"/>
      <point x="571" y="63" type="curve" smooth="yes"/>
      <point x="551" y="63"/>
      <point x="547" y="79"/>
      <point x="554" y="119" type="curve" smooth="yes"/>
      <point x="612" y="450" type="line"/>
      <point x="538" y="450" type="line"/>
      <point x="475" y="89" type="line" smooth="yes"/>
      <point x="465" y="29"/>
      <point x="481" y="-10"/>
    </contour>
  </outline>
</glyph>
<glyph name="uni043D" format="2">
  <advance width="521"/>
  <unicode hex="043D"/>
  <outline>
    <contour>
      <point x="43" y="0" type="line"/>
      <point x="119" y="0" type="line"/>
      <point x="198" y="460" type="line"/>
      <point x="195" y="460" type="line"/>
      <point x="34" y="430" type="line"/>
      <point x="34" y="424" type="line"/>
      <point x="112" y="389" type="line"/>
    </contour>
    <contour>
      <point x="375" y="-10" type="curve" smooth="yes"/>
      <point x="422" y="-10"/>
      <point x="467" y="32"/>
      <point x="506" y="132" type="curve"/>
      <point x="493" y="138" type="line"/>
      <point x="469" y="87"/>
      <point x="441" y="63"/>
      <point x="418" y="63" type="curve" smooth="yes"/>
      <point x="398" y="63"/>
      <point x="394" y="79"/>
      <point x="401" y="119" type="curve" smooth="yes"/>
      <point x="461" y="460" type="line"/>
      <point x="457" y="460" type="line"/>
      <point x="305" y="430" type="line"/>
      <point x="305" y="424" type="line"/>
      <point x="374" y="389" type="line"/>
      <point x="322" y="89" type="line" smooth="yes"/>
      <point x="312" y="29"/>
      <point x="328" y="-10"/>
    </contour>
    <contour>
      <point x="152" y="209" type="line"/>
      <point x="367" y="220" type="line"/>
      <point x="375" y="263" type="line"/>
      <point x="160" y="252" type="line"/>
    </contour>
  </outline>
</glyph>
<glyph name="uni0444" format="2">
  <advance width="656.0"/>
  <unicode hex="0444"/>
  <outline>
    <contour>
      <point x="219" y="-182" type="line"/>
      <point x="151" y="-214" type="line"/>
      <point x="149" y="-230" type="line"/>
      <point x="350" y="-230" type="line"/>
      <point x="352" y="-214" type="line"/>
      <point x="295" y="-182" type="line"/>
      <point x="459" y="749" type="line"/>
      <point x="456" y="749" type="line"/>
      <point x="292" y="719" type="line"/>
      <point x="292" y="713" type="line"/>
      <point x="370" y="678" type="line"/>
    </contour>
    <contour>
      <point x="334" y="460" type="line"/>
      <point x="165" y="455"/>
      <point x="50" y="332"/>
      <point x="50" y="193" type="curve" smooth="yes"/>
      <point x="50" y="70"/>
      <point x="126" y="-5"/>
      <point x="252" y="-10" type="curve"/>
      <point x="260" y="28" type="line"/>
      <point x="169.860483321" y="33.1215634477"/>
      <point x="134.0" y="105.0"/>
      <point x="134" y="200" type="curve" smooth="yes"/>
      <point x="134.0" y="313.0"/>
      <point x="199.01362995" y="417.921175792"/>
      <point x="327" y="423" type="curve"/>
    </contour>
    <contour>
      <point x="322" y="-10" type="line"/>
      <point x="491" y="-5"/>
      <point x="606" y="118"/>
      <point x="606" y="257" type="curve" smooth="yes"/>
      <point x="606" y="380"/>
      <point x="530" y="455"/>
      <point x="404" y="460" type="curve"/>
      <point x="396" y="422" type="line"/>
      <point x="486.139516679" y="416.878436552"/>
      <point x="522.0" y="345.0"/>
      <point x="522" y="250" type="curve" smooth="yes"/>
      <point x="522.0" y="137.0"/>
      <point x="456.98637005" y="32.0788242083"/>
      <point x="329" y="27" type="curve"/>
    </contour>
  </outline>
</glyph>
<glyph name="uni0446" format="2">
  <advance width="522.0"/>
  <unicode hex="0446"/>
  <outline>
    <contour>
      <point x="159" y="-10" type="curve" smooth="yes"/>
      <point x="220" y="-10"/>
      <point x="253" y="19"/>
      <point x="321" y="95" type="curve"/>
      <point x="340" y="95" type="line"/>
      <point x="340" y="150" type="line"/>
      <point x="309" y="115"/>
      <point x="257" y="51"/>
      <point x="212" y="51" type="curve" smooth="yes"/>
      <point x="171" y="51"/>
      <point x="154" y="81"/>
      <point x="154" y="118" type="curve" smooth="yes"/>
      <point x="154" y="125"/>
      <point x="155" y="135"/>
      <point x="158" y="154" type="curve" smooth="yes"/>
      <point x="210" y="460" type="line"/>
      <point x="206" y="460" type="line"/>
      <point x="46" y="430" type="line"/>
      <point x="46" y="424" type="line"/>
      <point x="124" y="389" type="line"/>
      <point x="79" y="138" type="line" smooth="yes"/>
      <point x="77" y="124"/>
      <point x="75" y="111"/>
      <point x="75" y="98" type="curve" smooth="yes"/>
      <point x="75" y="31"/>
      <point x="110" y="-10"/>
    </contour>
    <contour>
      <point x="507" y="132" type="curve"/>
      <point x="494" y="138" type="line"/>
      <point x="470" y="87"/>
      <point x="442" y="63"/>
      <point x="419" y="63" type="curve" smooth="yes"/>
      <point x="399" y="63"/>
      <point x="395" y="79"/>
      <point x="402" y="119" type="curve" smooth="yes"/>
      <point x="462" y="460" type="line"/>
      <point x="458" y="460" type="line"/>
      <point x="306" y="430" type="line"/>
      <point x="306" y="424" type="line"/>
      <point x="375" y="389" type="line"/>
      <point x="323" y="89" type="line" smooth="yes"/>
      <point x="313" y="29"/>
      <point x="329" y="-10"/>
      <point x="376" y="-10" type="curve" smooth="yes"/>
      <point x="414" y="-10"/>
      <point x="451" y="17"/>
      <point x="484" y="81" type="curve"/>
      <point x="477" y="84" type="line"/>
      <point x="431" y="-35"/>
      <point x="468" y="-118"/>
      <point x="352" y="-118" type="curve" smooth="yes"/>
      <point x="314" y="-118" type="line"/>
      <point x="307" y="-124" type="line"/>
      <point x="307" y="-165" type="line" smooth="yes"/>
      <point x="307" y="-186"/>
      <point x="315" y="-194"/>
      <point x="335" y="-194" type="curve" smooth="yes"/>
      <point x="530" y="-194"/>
      <point x="443" y="-14"/>
    </contour>
  </outline>
</glyph>
<glyph name="uni0447" format="2">
  <advance width="522.0"/>
  <unicode hex="0447"/>
  <outline>
    <contour>
      <point x="185" y="146" type="curve" smooth="yes"/>
      <point x="246" y="146"/>
      <point x="290" y="187"/>
      <point x="342" y="251" type="curve"/>
      <point x="361" y="251" type="line"/>
      <point x="361" y="306" type="line"/>
      <point x="331" y="269"/>
      <point x="283" y="207"/>
      <point x="234" y="207" type="curve" smooth="yes"/>
      <point x="197" y="207"/>
      <point x="180" y="237"/>
      <point x="180" y="274" type="curve" smooth="yes"/>
      <point x="180" y="281"/>
      <point x="181" y="291"/>
      <point x="184" y="310" type="curve" smooth="yes"/>
      <point x="210" y="460" type="line"/>
      <point x="206" y="460" type="line"/>
      <point x="46" y="430" type="line"/>
      <point x="46" y="424" type="line"/>
      <point x="124" y="389" type="line"/>
      <point x="105" y="294" type="line" smooth="yes"/>
      <point x="102" y="280"/>
      <point x="101" y="267"/>
      <point x="101" y="254" type="curve" smooth="yes"/>
      <point x="101" y="187"/>
      <point x="136" y="146"/>
    </contour>
    <contour>
      <point x="371" y="-10" type="curve" smooth="yes"/>
      <point x="418" y="-10"/>
      <point x="463" y="32"/>
      <point x="502" y="132" type="curve"/>
      <point x="489" y="138" type="line"/>
      <point x="465" y="87"/>
      <point x="437" y="63"/>
      <point x="414" y="63" type="curve" smooth="yes"/>
      <point x="394" y="63"/>
      <point x="390" y="79"/>
      <point x="397" y="119" type="curve" smooth="yes"/>
      <point x="457" y="460" type="line"/>
      <point x="453" y="460" type="line"/>
      <point x="301" y="430" type="line"/>
      <point x="301" y="424" type="line"/>
      <point x="370" y="389" type="line"/>
      <point x="318" y="89" type="line" smooth="yes"/>
      <point x="308" y="29"/>
      <point x="324" y="-10"/>
    </contour>
  </outline>
</glyph>
<glyph name="uni0449" format="2">
  <advance width="763"/>
  <unicode hex="0449"/>
  <outline>
    <contour>
      <point x="159" y="-10" type="curve" smooth="yes"/>
      <point x="218" y="-10"/>
      <point x="252" y="20"/>
      <point x="316" y="95" type="curve"/>
      <point x="335" y="95" type="line"/>
      <point x="335" y="150" type="line"/>
      <point x="305" y="116"/>
      <point x="255" y="51"/>
      <point x="212" y="51" type="curve" smooth="yes"/>
      <point x="171" y="51"/>
      <point x="154" y="81"/>
      <point x="154" y="118" type="curve" smooth="yes"/>
      <point x="154" y="125"/>
      <point x="155" y="135"/>
      <point x="158" y="154" type="curve" smooth="yes"/>
      <point x="210" y="460" type="line"/>
      <point x="206" y="460" type="line"/>
      <point x="46" y="430" type="line"/>
      <point x="46" y="424" type="line"/>
      <point x="124" y="389" type="line"/>
      <point x="79" y="138" type="line" smooth="yes"/>
      <point x="77" y="124"/>
      <point x="75" y="111"/>
      <point x="75" y="98" type="curve" smooth="yes"/>
      <point x="75" y="31"/>
      <point x="110" y="-10"/>
    </contour>
    <contour>
      <point x="405" y="-10" type="curve" smooth="yes"/>
      <point x="464" y="-10"/>
      <point x="498" y="20"/>
      <point x="562" y="95" type="curve"/>
      <point x="581" y="95" type="line"/>
      <point x="581" y="150" type="line"/>
      <point x="551" y="116"/>
      <point x="501" y="51"/>
      <point x="458" y="51" type="curve" smooth="yes"/>
      <point x="417" y="51"/>
      <point x="400" y="81"/>
      <point x="400" y="118" type="curve" smooth="yes"/>
      <point x="400" y="125"/>
      <point x="401" y="135"/>
      <point x="404" y="154" type="curve" smooth="yes"/>
      <point x="456" y="460" type="line"/>
      <point x="452" y="460" type="line"/>
      <point x="302" y="430" type="line"/>
      <point x="302" y="424" type="line"/>
      <point x="370" y="389" type="line"/>
      <point x="325" y="138" type="line" smooth="yes"/>
      <point x="323" y="124"/>
      <point x="321" y="111"/>
      <point x="321" y="98" type="curve" smooth="yes"/>
      <point x="321" y="31"/>
      <point x="356" y="-10"/>
    </contour>
    <contour>
      <point x="748" y="132" type="curve"/>
      <point x="735" y="138" type="line"/>
      <point x="711" y="87"/>
      <point x="683" y="63"/>
      <point x="660" y="63" type="curve" smooth="yes"/>
      <point x="640" y="63"/>
      <point x="636" y="79"/>
      <point x="643" y="119" type="curve" smooth="yes"/>
      <point x="703" y="460" type="line"/>
      <point x="699" y="460" type="line"/>
      <point x="547" y="430" type="line"/>
      <point x="547" y="424" type="line"/>
      <point x="616" y="389" type="line"/>
      <point x="564" y="89" type="line" smooth="yes"/>
      <point x="554" y="29"/>
      <point x="570" y="-10"/>
      <point x="617" y="-10" type="curve" smooth="yes"/>
      <point x="655" y="-10"/>
      <point x="692" y="17"/>
      <point x="725" y="81" type="curve"/>
      <point x="718" y="84" type="line"/>
      <point x="672" y="-35"/>
      <point x="709" y="-118"/>
      <point x="593" y="-118" type="curve" smooth="yes"/>
      <point x="555" y="-118" type="line"/>
      <point x="548" y="-124" type="line"/>
      <point x="548" y="-165" type="line" smooth="yes"/>
      <point x="548" y="-186"/>
      <point x="556" y="-194"/>
      <point x="576" y="-194" type="curve" smooth="yes"/>
      <point x="771" y="-194"/>
      <point x="684" y="-14"/>
    </contour>
  </outline>
</glyph>
<glyph name="uni044A" format="2">
  <advance width="542.0"/>
  <unicode hex="044A"/>
  <outline>
    <contour>
      <point x="78" y="408" type="line"/>
      <point x="256" y="408" type="line"/>
      <point x="264" y="450" type="line"/>
      <point x="60" y="450" type="line"/>
      <point x="30" y="279" type="line"/>
      <point x="46" y="279" type="line"/>
      <point x="157" y="442" type="line"/>
    </contour>
    <contour>
      <point x="205" y="450" type="line"/>
      <point x="156" y="180" type="line" smooth="yes"/>
      <point x="130" y="36"/>
      <point x="196" y="-10"/>
      <point x="298" y="-10" type="curve" smooth="yes"/>
      <point x="396" y="-10"/>
      <point x="492" y="57"/>
      <point x="492" y="155" type="curve" smooth="yes"/>
      <point x="492" y="242"/>
      <point x="418" y="287"/>
      <point x="305" y="287" type="curve" smooth="yes"/>
      <point x="243" y="287" type="line"/>
      <point x="234" y="245" type="line"/>
      <point x="296" y="245" type="line" smooth="yes"/>
      <point x="371" y="245"/>
      <point x="406" y="211"/>
      <point x="406" y="153" type="curve" smooth="yes"/>
      <point x="406" y="80"/>
      <point x="364" y="28"/>
      <point x="300" y="28" type="curve" smooth="yes"/>
      <point x="229" y="28"/>
      <point x="216" y="78"/>
      <point x="230" y="164" type="curve" smooth="yes"/>
      <point x="277" y="450" type="line"/>
    </contour>
  </outline>
</glyph>
<glyph name="uni044C" format="2">
  <advance width="472.0"/>
  <unicode hex="044C"/>
  <outline>
    <contour>
      <point x="124" y="389" type="line"/>
      <point x="86" y="180" type="line" smooth="yes"/>
      <point x="60" y="36"/>
      <point x="126" y="-10"/>
      <point x="228" y="-10" type="curve" smooth="yes"/>
      <point x="326" y="-10"/>
      <point x="422.0" y="57.0"/>
      <point x="422" y="155" type="curve" smooth="yes"/>
      <point x="422.0" y="242.0"/>
      <point x="347.979166667" y="287"/>
      <point x="235" y="287" type="curve" smooth="yes"/>
      <point x="173" y="287" type="line"/>
      <point x="164" y="245" type="line"/>
      <point x="226" y="245" type="line" smooth="yes"/>
      <point x="300.608695652" y="245"/>
      <point x="336" y="211"/>
      <point x="336" y="153" type="curve" smooth="yes"/>
      <point x="336" y="80"/>
      <point x="294" y="28"/>
      <point x="230" y="28" type="curve" smooth="yes"/>
      <point x="159" y="28"/>
      <point x="145" y="78"/>
      <point x="160" y="164" type="curve" smooth="yes"/>
      <point x="210" y="460" type="line"/>
      <point x="206" y="460" type="line"/>
      <point x="46" y="430" type="line"/>
      <point x="46" y="424" type="line"/>
    </contour>
  </outline>
</glyph>
<glyph name="uni044D" format="2">
  <advance width="442.0"/>
  <unicode hex="044D"/>
  <outline>
    <contour>
      <point x="332" y="254" type="line"/>
      <point x="145" y="242" type="line"/>
      <point x="137" y="200" type="line"/>
      <point x="324" y="212" type="line"/>
    </contour>
    <contour>
      <point x="239" y="460" type="curve" smooth="yes"/>
      <point x="177" y="460"/>
      <point x="120.0" y="418.0"/>
      <point x="75" y="327" type="curve"/>
      <point x="85" y="319" type="line"/>
      <point x="87" y="319" type="line"/>
      <point x="128.0" y="379.0"/>
      <point x="168" y="398"/>
      <point x="210" y="398" type="curve" smooth="yes"/>
      <point x="283" y="398"/>
      <point x="317" y="345"/>
      <point x="317" y="251" type="curve" smooth="yes"/>
      <point x="317" y="143"/>
      <point x="258.0" y="34.0"/>
      <point x="192" y="34" type="curve" smooth="yes"/>
      <point x="151.0" y="34.0"/>
      <point x="133.0" y="49.0"/>
      <point x="111" y="81" type="curve" smooth="yes"/>
      <point x="90" y="110" type="line"/>
      <point x="83" y="110" type="line"/>
      <point x="55" y="93" type="line" smooth="yes"/>
      <point x="44" y="87"/>
      <point x="40" y="76"/>
      <point x="40" y="67" type="curve" smooth="yes"/>
      <point x="40" y="58"/>
      <point x="42" y="51"/>
      <point x="51" y="39" type="curve" smooth="yes"/>
      <point x="70" y="10"/>
      <point x="100" y="-10"/>
      <point x="149" y="-10" type="curve" smooth="yes"/>
      <point x="275" y="-10"/>
      <point x="392" y="152"/>
      <point x="392" y="290" type="curve" smooth="yes"/>
      <point x="392" y="401"/>
      <point x="335" y="460"/>
    </contour>
  </outline>
</glyph>
<glyph name="uni044E" format="2">
  <advance width="679"/>
  <unicode hex="044E"/>
  <outline>
    <contour>
      <point x="43" y="0" type="line"/>
      <point x="119" y="0" type="line"/>
      <point x="198" y="460" type="line"/>
      <point x="195" y="460" type="line"/>
      <point x="34" y="430" type="line"/>
      <point x="34" y="424" type="line"/>
      <point x="112" y="389" type="line"/>
    </contour>
    <contour>
      <point x="395" y="-10" type="curve" smooth="yes"/>
      <point x="538.0" y="-10.0"/>
      <point x="629.0" y="145.0"/>
      <point x="629" y="266" type="curve" smooth="yes"/>
      <point x="629.0" y="380.0"/>
      <point x="577.0" y="460.0"/>
      <point x="464" y="460" type="curve" smooth="yes"/>
      <point x="325.0" y="460.0"/>
      <point x="230.0" y="309.0"/>
      <point x="230" y="184" type="curve" smooth="yes"/>
      <point x="230.0" y="70.0"/>
      <point x="282.0" y="-10.0"/>
    </contour>
    <contour>
      <point x="406" y="28" type="curve" smooth="yes"/>
      <point x="338.0" y="28.0"/>
      <point x="317.0" y="82.0"/>
      <point x="317" y="181" type="curve" smooth="yes"/>
      <point x="317.0" y="326.0"/>
      <point x="373.0" y="423.0"/>
      <point x="455" y="423" type="curve" smooth="yes"/>
      <point x="522.0" y="423.0"/>
      <point x="542.0" y="370.0"/>
      <point x="542" y="272" type="curve" smooth="yes"/>
      <point x="542.0" y="140.0"/>
      <point x="490.0" y="28.0"/>
    </contour>
    <contour>
      <point x="152.0" y="209.0" type="line"/>
      <point x="283.0" y="216.0" type="line"/>
      <point x="291.0" y="259.0" type="line"/>
      <point x="160.0" y="252.0" type="line"/>
    </contour>
  </outline>
</glyph>
<glyph name="uni044F" format="2">
  <advance width="477.0"/>
  <unicode hex="044F"/>
  <outline>
    <contour>
      <point x="158" y="170" type="curve" smooth="yes"/>
      <point x="210" y="170"/>
      <point x="266.0" y="200.0"/>
      <point x="301" y="247" type="curve"/>
      <point x="335" y="247" type="line"/>
      <point x="318" y="291" type="line"/>
      <point x="283" y="247"/>
      <point x="248" y="224"/>
      <point x="205" y="224" type="curve" smooth="yes"/>
      <point x="169" y="224"/>
      <point x="151" y="250"/>
      <point x="151" y="297" type="curve" smooth="yes"/>
      <point x="151" y="363"/>
      <point x="190" y="421"/>
      <point x="248" y="421" type="curve" smooth="yes"/>
      <point x="286" y="421"/>
      <point x="308" y="399"/>
      <point x="334" y="361" type="curve"/>
      <point x="331" y="389" type="line"/>
      <point x="278" y="89" type="line" smooth="yes"/>
      <point x="267.0" y="29.0"/>
      <point x="284.0" y="-10.0"/>
      <point x="331" y="-10" type="curve" smooth="yes"/>
      <point x="378" y="-10"/>
      <point x="423" y="32"/>
      <point x="462" y="132" type="curve"/>
      <point x="449" y="138" type="line"/>
      <point x="425" y="87"/>
      <point x="397" y="63"/>
      <point x="374" y="63" type="curve" smooth="yes"/>
      <point x="356" y="63"/>
      <point x="352" y="79"/>
      <point x="359" y="119" type="curve" smooth="yes"/>
      <point x="420" y="460" type="line"/>
      <point x="395" y="460" type="line"/>
      <point x="344" y="427" type="line"/>
      <point x="388" y="416" type="line"/>
      <point x="367" y="439"/>
      <point x="323" y="460"/>
      <point x="277" y="460" type="curve" smooth="yes"/>
      <point x="167" y="460"/>
      <point x="75" y="362"/>
      <point x="75" y="265" type="curve" smooth="yes"/>
      <point x="75" y="202"/>
      <point x="109" y="170"/>
    </contour>
    <contour>
      <point x="278" y="247" type="line"/>
      <point x="153" y="104"/>
      <point x="105.0" y="68"/>
      <point x="39" y="68" type="curve" smooth="yes"/>
      <point x="24" y="68" type="line"/>
      <point x="19" y="64" type="line"/>
      <point x="11" y="19" type="line" smooth="yes"/>
      <point x="7" y="-3"/>
      <point x="10" y="-10"/>
      <point x="38" y="-10" type="curve" smooth="yes"/>
      <point x="116" y="-10"/>
      <point x="185" y="68"/>
      <point x="301" y="247" type="curve"/>
    </contour>
  </outline>
</glyph>
<glyph name="uni0459" format="2">
  <advance width="682.0"/>
  <unicode hex="0459"/>
  <outline>
    <contour>
      <point x="195" y="408" type="line"/>
      <point x="377" y="408" type="line"/>
      <point x="377" y="450" type="line"/>
      <point x="195" y="450" type="line"/>
    </contour>
    <contour>
      <point x="214" y="378" type="curve" smooth="yes"/>
      <point x="227" y="450" type="line"/>
      <point x="113" y="450" type="line"/>
      <point x="110" y="434" type="line"/>
      <point x="173" y="402" type="line"/>
      <point x="169" y="378" type="line" smooth="yes"/>
      <point x="136" y="181"/>
      <point x="103" y="68"/>
      <point x="19" y="68" type="curve" smooth="yes"/>
      <point x="4" y="68" type="line"/>
      <point x="-1" y="64" type="line"/>
      <point x="-9" y="19" type="line" smooth="yes"/>
      <point x="-13" y="-3"/>
      <point x="-10" y="-10"/>
      <point x="18" y="-10" type="curve" smooth="yes"/>
      <point x="59" y="-10"/>
      <point x="92" y="12"/>
      <point x="119" y="56" type="curve" smooth="yes"/>
      <point x="160" y="120"/>
      <point x="187" y="228"/>
    </contour>
    <contour>
      <point x="345" y="450" type="line"/>
      <point x="296" y="180" type="line" smooth="yes"/>
      <point x="270" y="36"/>
      <point x="336" y="-10"/>
      <point x="438" y="-10" type="curve" smooth="yes"/>
      <point x="536" y="-10"/>
      <point x="632" y="57"/>
      <point x="632" y="155" type="curve" smooth="yes"/>
      <point x="632" y="242"/>
      <point x="558" y="287"/>
      <point x="445" y="287" type="curve" smooth="yes"/>
      <point x="383" y="287" type="line"/>
      <point x="374" y="245" type="line"/>
      <point x="436" y="245" type="line" smooth="yes"/>
      <point x="511" y="245"/>
      <point x="546" y="211"/>
      <point x="546" y="153" type="curve" smooth="yes"/>
      <point x="546" y="80"/>
      <point x="504" y="28"/>
      <point x="440" y="28" type="curve" smooth="yes"/>
      <point x="369" y="28"/>
      <point x="355" y="78"/>
      <point x="370" y="164" type="curve" smooth="yes"/>
      <point x="419" y="450" type="line"/>
    </contour>
  </outline>
</glyph>
<glyph name="uni0462" format="2">
  <advance width="716.0"/>
  <unicode hex="0462"/>
  <outline>
    <contour>
      <point x="135" y="492" type="line"/>
      <point x="492" y="492" type="line"/>
      <point x="537" y="380" type="line"/>
      <point x="553" y="380" type="line"/>
      <point x="582" y="542" type="line"/>
      <point x="63" y="542" type="line"/>
      <point x="35" y="380" type="line"/>
      <point x="51" y="380" type="line"/>
    </contour>
    <contour>
      <point x="205" y="660" type="line"/>
      <point x="202" y="644" type="line"/>
      <point x="274" y="604" type="line"/>
      <point x="177" y="56" type="line"/>
      <point x="101" y="16" type="line"/>
      <point x="98" y="0" type="line"/>
      <point x="354" y="0" type="line" smooth="yes"/>
      <point x="555" y="0"/>
      <point x="651" y="83"/>
      <point x="651" y="192" type="curve" smooth="yes"/>
      <point x="651" y="292"/>
      <point x="573" y="348"/>
      <point x="423" y="348" type="curve" smooth="yes"/>
      <point x="314" y="348" type="line"/>
      <point x="359" y="604" type="line"/>
      <point x="450" y="644" type="line"/>
      <point x="453" y="660" type="line"/>
    </contour>
    <contour>
      <point x="261" y="50" type="line"/>
      <point x="305" y="298" type="line"/>
      <point x="405" y="298" type="line" smooth="yes"/>
      <point x="509" y="298"/>
      <point x="561" y="264"/>
      <point x="561" y="191" type="curve" smooth="yes"/>
      <point x="561" y="107"/>
      <point x="495" y="50"/>
      <point x="363" y="50" type="curve" smooth="yes"/>
    </contour>
  </outline>
</glyph>
<glyph name="uni0463" format="2">
  <advance width="717.0"/>
  <unicode hex="0463"/>
  <outline>
    <contour>
      <point x="43" y="0" type="line"/>
      <point x="119" y="0" type="line"/>
      <point x="179" y="348" type="line"/>
      <point x="179" y="460" type="line"/>
      <point x="176" y="460" type="line"/>
      <point x="34" y="430" type="line"/>
      <point x="34" y="424" type="line"/>
      <point x="112" y="389" type="line"/>
    </contour>
    <contour>
      <point x="403" y="164" type="curve" smooth="yes"/>
      <point x="430" y="312" type="line" smooth="yes"/>
      <point x="446.0" y="402.0"/>
      <point x="408.0" y="460.0"/>
      <point x="350" y="460" type="curve" smooth="yes"/>
      <point x="286.8895348837209" y="460.0"/>
      <point x="253.07230670801198" y="431.9808439890836"/>
      <point x="183" y="355" type="curve"/>
      <point x="164" y="355" type="line"/>
      <point x="164" y="300" type="line"/>
      <point x="195.49351841787825" y="335.43020822011306"/>
      <point x="250.73913043478262" y="399.0"/>
      <point x="297" y="399" type="curve" smooth="yes"/>
      <point x="347.0" y="399.0"/>
      <point x="361.0" y="356.0"/>
      <point x="353" y="309" type="curve" smooth="yes"/>
      <point x="330" y="180" type="line" smooth="yes"/>
      <point x="304" y="36"/>
      <point x="370" y="-10"/>
      <point x="473" y="-10" type="curve" smooth="yes"/>
      <point x="571" y="-10"/>
      <point x="667" y="57"/>
      <point x="667" y="155" type="curve" smooth="yes"/>
      <point x="667" y="242"/>
      <point x="593" y="287"/>
      <point x="480" y="287" type="curve" smooth="yes"/>
      <point x="418" y="287" type="line"/>
      <point x="409" y="245" type="line"/>
      <point x="471" y="245" type="line" smooth="yes"/>
      <point x="546" y="245"/>
      <point x="581" y="211"/>
      <point x="581" y="153" type="curve" smooth="yes"/>
      <point x="581" y="80"/>
      <point x="539" y="28"/>
      <point x="475" y="28" type="curve" smooth="yes"/>
      <point x="402" y="28"/>
      <point x="387" y="78"/>
    </contour>
  </outline>
</glyph>
<glyph name="uni0474" format="2">
  <advance width="747.0"/>
  <unicode hex="0474"/>
  <outline>
    <contour>
      <point x="587" y="472" type="line" smooth="yes"/>
      <point x="625.0" y="541.0"/>
      <point x="665.0" y="582"/>
      <point x="742" y="582" type="curve" smooth="yes"/>
      <point x="752" y="582" type="line"/>
      <point x="757" y="586" type="line"/>
      <point x="766" y="641" type="line" smooth="yes"/>
      <point x="770" y="663"/>
      <point x="767" y="670"/>
      <point x="737" y="670" type="curve" smooth="yes"/>
      <point x="698" y="670"/>
      <point x="661" y="655"/>
      <point x="623" y="617" type="curve" smooth="yes"/>
      <point x="589.0" y="584.0"/>
      <point x="553" y="533"/>
      <point x="515" y="459" type="curve" smooth="yes"/>
      <point x="309" y="61" type="line"/>
      <point x="368" y="128" type="line"/>
      <point x="317" y="128" type="line"/>
      <point x="353" y="61" type="line"/>
      <point x="234" y="632" type="line"/>
      <point x="217" y="602" type="line"/>
      <point x="328" y="644" type="line"/>
      <point x="331" y="660" type="line"/>
      <point x="94" y="660" type="line"/>
      <point x="90" y="644" type="line"/>
      <point x="186" y="588" type="line"/>
      <point x="145" y="632" type="line"/>
      <point x="281" y="-5" type="line"/>
      <point x="324" y="-5" type="line"/>
    </contour>
  </outline>
</glyph>
<glyph name="uni0475" format="2">
  <advance width="494.0"/>
  <unicode hex="0475"/>
  <outline>
    <contour>
      <point x="348" y="270" type="line" smooth="yes"/>
      <point x="394" y="353"/>
      <point x="420" y="376"/>
      <point x="477" y="376" type="curve" smooth="yes"/>
      <point x="492" y="376" type="line"/>
      <point x="496" y="380" type="line"/>
      <point x="503" y="430" type="line" smooth="yes"/>
      <point x="506" y="452"/>
      <point x="503" y="459"/>
      <point x="475" y="459" type="curve" smooth="yes"/>
      <point x="435" y="459"/>
      <point x="392" y="434"/>
      <point x="342" y="335" type="curve" smooth="yes"/>
      <point x="194" y="43" type="line"/>
      <point x="187" y="0" type="line"/>
      <point x="200" y="0" type="line"/>
    </contour>
    <contour>
      <point x="187" y="0" type="line"/>
      <point x="200" y="0" type="line"/>
      <point x="250" y="95" type="line"/>
      <point x="245" y="134" type="line"/>
      <point x="235" y="134" type="line"/>
      <point x="174" y="460" type="line"/>
      <point x="171" y="460" type="line"/>
      <point x="23" y="430" type="line"/>
      <point x="23" y="424" type="line"/>
      <point x="136" y="384" type="line"/>
      <point x="101" y="423" type="line"/>
    </contour>
  </outline>
</glyph>
<glyph name="uni0490" format="2">
  <advance width="592"/>
  <unicode hex="0490"/>
  <outline>
    <contour>
      <point x="10" y="0" type="line"/>
      <point x="267" y="0" type="line"/>
      <point x="270" y="16" type="line"/>
      <point x="181" y="56" type="line"/>
      <point x="288" y="660" type="line"/>
      <point x="126" y="660" type="line"/>
      <point x="123" y="644" type="line"/>
      <point x="192" y="604" type="line"/>
      <point x="96" y="56" type="line"/>
      <point x="13" y="16" type="line"/>
    </contour>
    <contour>
      <point x="583" y="827" type="line"/>
      <point x="481" y="660" type="line"/>
      <point x="215" y="660" type="line"/>
      <point x="206" y="610" type="line"/>
      <point x="562" y="610" type="line"/>
      <point x="599" y="827" type="line"/>
    </contour>
  </outline>
</glyph>
<glyph name="uni0491" format="2">
  <advance width="401.0"/>
  <unicode hex="0491"/>
  <outline>
    <contour>
      <point x="105" y="402" type="line"/>
      <point x="34" y="0" type="line"/>
      <point x="110" y="0" type="line"/>
      <point x="190" y="450" type="line"/>
      <point x="51" y="450" type="line"/>
      <point x="48" y="434" type="line"/>
    </contour>
    <contour>
      <point x="375" y="403" type="line"/>
      <point x="406" y="574" type="line"/>
      <point x="390" y="574" type="line"/>
      <point x="300" y="450" type="line"/>
      <point x="165" y="450" type="line"/>
      <point x="156" y="403" type="line"/>
    </contour>
  </outline>
</glyph>
<glyph name="uni0492" format="2">
  <advance width="593.0"/>
  <unicode hex="0492"/>
  <outline>
    <contour>
      <point x="68" y="322" type="line"/>
      <point x="393" y="322" type="line"/>
      <point x="401" y="363" type="line"/>
      <point x="76" y="363" type="line"/>
    </contour>
    <contour>
      <point x="10" y="0" type="line"/>
      <point x="267" y="0" type="line"/>
      <point x="270" y="16" type="line"/>
      <point x="181" y="56" type="line"/>
      <point x="288" y="660" type="line"/>
      <point x="126" y="660" type="line"/>
      <point x="123" y="644" type="line"/>
      <point x="192" y="604" type="line"/>
      <point x="96" y="56" type="line"/>
      <point x="13" y="16" type="line"/>
    </contour>
    <contour>
      <point x="525" y="488" type="line"/>
      <point x="541" y="488" type="line"/>
      <point x="571" y="660" type="line"/>
      <point x="228" y="660" type="line"/>
      <point x="218" y="610" type="line"/>
      <point x="487" y="610" type="line"/>
    </contour>
  </outline>
</glyph>
<glyph name="uni0493" format="2">
  <advance width="445.0"/>
  <unicode hex="0493"/>
  <outline>
    <contour>
      <point x="40" y="208" type="line"/>
      <point x="408" y="208" type="line"/>
      <point x="415" y="250" type="line"/>
      <point x="47" y="250" type="line"/>
    </contour>
    <contour>
      <point x="190" y="-10" type="curve" smooth="yes"/>
      <point x="255" y="-10"/>
      <point x="298" y="-1"/>
      <point x="351" y="24" type="curve"/>
      <point x="370" y="136" type="line"/>
      <point x="356" y="136" type="line"/>
      <point x="315" y="81" type="line" smooth="yes"/>
      <point x="286.0" y="44.0"/>
      <point x="249.0" y="26.0"/>
      <point x="199" y="26" type="curve" smooth="yes"/>
      <point x="149.35211267605632" y="26.0"/>
      <point x="124.0" y="54.0"/>
      <point x="124" y="91" type="curve" smooth="yes"/>
      <point x="124.0" y="142.0"/>
      <point x="170.20550404428002" y="171.58803913407112"/>
      <point x="225" y="200" type="curve" smooth="yes"/>
      <point x="300.8294254199098" y="237.40918320715548"/>
      <point x="393.0" y="270.65"/>
      <point x="393" y="357" type="curve" smooth="yes"/>
      <point x="393" y="426"/>
      <point x="337" y="460"/>
      <point x="263" y="460" type="curve" smooth="yes"/>
      <point x="202" y="460"/>
      <point x="158" y="448"/>
      <point x="111" y="426" type="curve"/>
      <point x="92" y="317" type="line"/>
      <point x="106" y="317" type="line"/>
      <point x="149" y="370" type="line" smooth="yes"/>
      <point x="178.0" y="406.0"/>
      <point x="210.0" y="421.0"/>
      <point x="243" y="421" type="curve" smooth="yes"/>
      <point x="286.8805970149254" y="421.0"/>
      <point x="313.0" y="400.0"/>
      <point x="313" y="357" type="curve" smooth="yes"/>
      <point x="313.0" y="302.0"/>
      <point x="257.3519066184362" y="272.17595330921813"/>
      <point x="197" y="242" type="curve" smooth="yes"/>
      <point x="125.0917608143436" y="207.56506855898147"/>
      <point x="45.0" y="173.39072847682118"/>
      <point x="45" y="94" type="curve" smooth="yes"/>
      <point x="45" y="18"/>
      <point x="119" y="-10"/>
    </contour>
  </outline>
</glyph>
<glyph name="uni0496" format="2">
  <advance width="1025.0"/>
  <unicode hex="0496"/>
  <outline>
    <contour>
      <point x="866" y="0" type="line"/>
      <point x="905" y="-167" type="line"/>
      <point x="921" y="-167" type="line"/>
      <point x="959" y="50" type="line"/>
      <point x="804" y="50" type="line"/>
      <point x="795" y="0" type="line"/>
    </contour>
    <contour>
      <point x="336" y="0" type="line"/>
      <point x="573" y="0" type="line"/>
      <point x="576" y="16" type="line"/>
      <point x="507" y="56" type="line"/>
      <point x="603" y="604" type="line"/>
      <point x="686" y="644" type="line"/>
      <point x="689" y="660" type="line"/>
      <point x="451" y="660" type="line"/>
      <point x="449" y="644" type="line"/>
      <point x="517" y="604" type="line"/>
      <point x="422" y="56" type="line"/>
      <point x="338" y="16" type="line"/>
    </contour>
    <contour>
      <point x="795" y="0" type="line"/>
      <point x="917" y="0" type="line"/>
      <point x="920" y="16" type="line"/>
      <point x="870" y="37" type="line"/>
      <point x="623" y="381" type="line"/>
      <point x="620" y="338" type="line"/>
      <point x="947" y="632" type="line"/>
      <point x="907" y="610" type="line"/>
      <point x="995" y="644" type="line"/>
      <point x="999" y="660" type="line"/>
      <point x="799" y="660" type="line"/>
      <point x="796" y="644" type="line"/>
      <point x="882" y="597" type="line"/>
      <point x="883" y="632" type="line"/>
      <point x="557" y="338" type="line"/>
    </contour>
    <contour>
      <point x="113" y="0" type="line"/>
      <point x="469" y="338" type="line"/>
      <point x="247" y="632" type="line"/>
      <point x="236" y="597" type="line"/>
      <point x="338" y="644" type="line"/>
      <point x="341" y="660" type="line"/>
      <point x="141" y="660" type="line"/>
      <point x="139" y="644" type="line"/>
      <point x="215" y="610" type="line"/>
      <point x="183" y="632" type="line"/>
      <point x="406" y="338" type="line"/>
      <point x="405" y="381" type="line"/>
      <point x="55" y="52" type="line"/>
      <point x="-18" y="16" type="line"/>
      <point x="-21" y="0" type="line"/>
    </contour>
  </outline>
</glyph>
<glyph name="uni0497" format="2">
  <advance width="842.0"/>
  <unicode hex="0497"/>
  <outline>
    <contour>
      <point x="423" y="450" type="line"/>
      <point x="343" y="0" type="line"/>
      <point x="419" y="0" type="line"/>
      <point x="499" y="450" type="line"/>
    </contour>
    <contour>
      <point x="191" y="460" type="curve" smooth="yes"/>
      <point x="133" y="460"/>
      <point x="93" y="406"/>
      <point x="49" y="310" type="curve"/>
      <point x="59" y="302" type="line"/>
      <point x="61" y="302" type="line"/>
      <point x="106" y="379"/>
      <point x="131" y="398"/>
      <point x="160" y="398" type="curve" smooth="yes"/>
      <point x="198" y="398"/>
      <point x="214" y="353"/>
      <point x="214" y="271" type="curve" smooth="yes"/>
      <point x="214" y="153"/>
      <point x="176" y="34"/>
      <point x="135" y="34" type="curve" smooth="yes"/>
      <point x="112" y="34"/>
      <point x="105" y="53"/>
      <point x="90" y="81" type="curve" smooth="yes"/>
      <point x="75" y="110" type="line"/>
      <point x="68" y="110" type="line"/>
      <point x="41" y="94" type="line" smooth="yes"/>
      <point x="17" y="80"/>
      <point x="15" y="64"/>
      <point x="27" y="40" type="curve" smooth="yes"/>
      <point x="40" y="14"/>
      <point x="62" y="-10"/>
      <point x="91" y="-10" type="curve" smooth="yes"/>
      <point x="192" y="-10"/>
      <point x="289" y="162"/>
      <point x="289" y="310" type="curve" smooth="yes"/>
      <point x="289" y="407"/>
      <point x="255" y="460"/>
    </contour>
    <contour>
      <point x="243" y="209" type="line"/>
      <point x="593" y="228" type="line"/>
      <point x="601" y="271" type="line"/>
      <point x="251" y="252" type="line"/>
    </contour>
    <contour>
      <point x="793" y="140" type="curve"/>
      <point x="783" y="148" type="line"/>
      <point x="781" y="148" type="line"/>
      <point x="736" y="71"/>
      <point x="711" y="52"/>
      <point x="682" y="52" type="curve" smooth="yes"/>
      <point x="644" y="52"/>
      <point x="628" y="97"/>
      <point x="628" y="179" type="curve" smooth="yes"/>
      <point x="628" y="297"/>
      <point x="666" y="416"/>
      <point x="707" y="416" type="curve" smooth="yes"/>
      <point x="730" y="416"/>
      <point x="737" y="397"/>
      <point x="752" y="369" type="curve" smooth="yes"/>
      <point x="767" y="340" type="line"/>
      <point x="774" y="340" type="line"/>
      <point x="801" y="356" type="line" smooth="yes"/>
      <point x="825" y="370"/>
      <point x="827" y="386"/>
      <point x="815" y="410" type="curve" smooth="yes"/>
      <point x="802" y="436"/>
      <point x="780" y="460"/>
      <point x="751" y="460" type="curve" smooth="yes"/>
      <point x="650" y="460"/>
      <point x="553" y="288"/>
      <point x="553" y="140" type="curve" smooth="yes"/>
      <point x="553" y="43"/>
      <point x="587" y="-10"/>
      <point x="651" y="-10" type="curve" smooth="yes"/>
      <point x="699" y="-10"/>
      <point x="734" y="26"/>
      <point x="770" y="93" type="curve"/>
      <point x="765" y="97" type="line"/>
      <point x="714" y="-29"/>
      <point x="755" y="-118"/>
      <point x="636" y="-118" type="curve" smooth="yes"/>
      <point x="598" y="-118" type="line"/>
      <point x="591" y="-124" type="line"/>
      <point x="591" y="-165" type="line" smooth="yes"/>
      <point x="591" y="-186"/>
      <point x="599" y="-194"/>
      <point x="619" y="-194" type="curve" smooth="yes"/>
      <point x="816" y="-194"/>
      <point x="728" y="-9"/>
    </contour>
  </outline>
</glyph>
<glyph name="uni049A" format="2">
  <advance width="720.0"/>
  <unicode hex="049A"/>
  <outline>
    <contour>
      <point x="561" y="0" type="line"/>
      <point x="600" y="-167" type="line"/>
      <point x="616" y="-167" type="line"/>
      <point x="654" y="50" type="line"/>
      <point x="489" y="50" type="line"/>
      <point x="480" y="0" type="line"/>
    </contour>
    <contour>
      <point x="10" y="0" type="line"/>
      <point x="247" y="0" type="line"/>
      <point x="251" y="16" type="line"/>
      <point x="181" y="56" type="line"/>
      <point x="278" y="604" type="line"/>
      <point x="360" y="644" type="line"/>
      <point x="364" y="660" type="line"/>
      <point x="126" y="660" type="line"/>
      <point x="123" y="644" type="line"/>
      <point x="192" y="604" type="line"/>
      <point x="96" y="56" type="line"/>
      <point x="13" y="16" type="line"/>
    </contour>
    <contour>
      <point x="480" y="0" type="line"/>
      <point x="610" y="0" type="line"/>
      <point x="613" y="16" type="line"/>
      <point x="569" y="30" type="line"/>
      <point x="301" y="381" type="line"/>
      <point x="295" y="338" type="line"/>
      <point x="632" y="632" type="line"/>
      <point x="592" y="610" type="line"/>
      <point x="680" y="644" type="line"/>
      <point x="684" y="660" type="line"/>
      <point x="484" y="660" type="line"/>
      <point x="481" y="644" type="line"/>
      <point x="567" y="597" type="line"/>
      <point x="568" y="632" type="line"/>
      <point x="232" y="338" type="line"/>
    </contour>
  </outline>
</glyph>
<glyph name="uni049B" format="2">
  <advance width="476.0"/>
  <unicode hex="049B"/>
  <outline>
    <contour>
      <point x="43" y="0" type="line"/>
      <point x="119" y="0" type="line"/>
      <point x="198" y="460" type="line"/>
      <point x="195" y="460" type="line"/>
      <point x="34" y="430" type="line"/>
      <point x="34" y="424" type="line"/>
      <point x="112" y="389" type="line"/>
    </contour>
    <contour>
      <point x="461" y="132" type="curve"/>
      <point x="448" y="138" type="line"/>
      <point x="424" y="87"/>
      <point x="407" y="63"/>
      <point x="383" y="63" type="curve" smooth="yes"/>
      <point x="365" y="63"/>
      <point x="355" y="75"/>
      <point x="333" y="109" type="curve" smooth="yes"/>
      <point x="228" y="272" type="line"/>
      <point x="215" y="247" type="line"/>
      <point x="318" y="354" type="line" smooth="yes"/>
      <point x="339" y="376"/>
      <point x="356" y="387"/>
      <point x="380" y="387" type="curve" smooth="yes"/>
      <point x="398" y="387"/>
      <point x="405" y="386"/>
      <point x="412" y="383" type="curve" smooth="yes"/>
      <point x="430" y="376" type="line"/>
      <point x="435" y="380" type="line"/>
      <point x="452" y="422" type="line" smooth="yes"/>
      <point x="457" y="434"/>
      <point x="451" y="444"/>
      <point x="442" y="451" type="curve" smooth="yes"/>
      <point x="435" y="456"/>
      <point x="424" y="460"/>
      <point x="408" y="460" type="curve" smooth="yes"/>
      <point x="363" y="460"/>
      <point x="313" y="409"/>
      <point x="166" y="235" type="curve"/>
      <point x="166" y="230" type="line"/>
      <point x="265" y="79" type="line" smooth="yes"/>
      <point x="297" y="30"/>
      <point x="314" y="-10"/>
      <point x="356" y="-10" type="curve" smooth="yes"/>
      <point x="387" y="-10"/>
      <point x="408" y="15"/>
      <point x="436" y="74" type="curve"/>
      <point x="430" y="80" type="line"/>
      <point x="386" y="-37"/>
      <point x="421" y="-118"/>
      <point x="306" y="-118" type="curve" smooth="yes"/>
      <point x="268" y="-118" type="line"/>
      <point x="261" y="-124" type="line"/>
      <point x="261" y="-165" type="line" smooth="yes"/>
      <point x="261" y="-186"/>
      <point x="269" y="-194"/>
      <point x="289" y="-194" type="curve" smooth="yes"/>
      <point x="484" y="-194"/>
      <point x="397" y="-14"/>
    </contour>
  </outline>
</glyph>
<glyph name="uni04AF" format="2">
  <advance width="448.0"/>
  <unicode hex="04AF"/>
  <outline>
    <contour>
      <point x="74" y="-231" type="line"/>
      <point x="276" y="-231" type="line"/>
      <point x="279" y="-215" type="line"/>
      <point x="221" y="-183" type="line"/>
      <point x="255" y="9" type="line"/>
      <point x="179" y="9" type="line"/>
      <point x="145" y="-183" type="line"/>
      <point x="77" y="-215" type="line"/>
    </contour>
    <contour>
      <point x="177" y="0" type="line"/>
      <point x="251" y="0" type="line"/>
      <point x="251" y="50" type="line"/>
      <point x="241" y="50" type="line"/>
      <point x="174" y="460" type="line"/>
      <point x="171" y="460" type="line"/>
      <point x="23" y="430" type="line"/>
      <point x="23" y="424" type="line"/>
      <point x="136" y="384" type="line"/>
      <point x="101" y="423" type="line"/>
    </contour>
    <contour>
      <point x="253" y="0" type="line"/>
      <point x="371" y="228" type="line" smooth="yes"/>
      <point x="415" y="312"/>
      <point x="443" y="349"/>
      <point x="443" y="381" type="curve" smooth="yes"/>
      <point x="443" y="414"/>
      <point x="416" y="460"/>
      <point x="384" y="460" type="curve" smooth="yes"/>
      <point x="369" y="460"/>
      <point x="364" y="456"/>
      <point x="354" y="437" type="curve" smooth="yes"/>
      <point x="338" y="407" type="line"/>
      <point x="338" y="403" type="line"/>
      <point x="351" y="395" type="line" smooth="yes"/>
      <point x="367" y="385"/>
      <point x="379" y="374"/>
      <point x="379" y="353" type="curve" smooth="yes"/>
      <point x="379" y="328"/>
      <point x="365" y="298"/>
      <point x="329" y="223" type="curve" smooth="yes"/>
      <point x="221" y="0" type="line"/>
    </contour>
  </outline>
</glyph>
<glyph name="uni04B3" format="2">
  <advance width="448.0"/>
  <unicode hex="04B3"/>
  <outline>
    <contour>
      <point x="425" y="450" type="curve"/>
      <point x="367" y="450" type="line"/>
      <point x="354" y="420"/>
      <point x="349" y="407"/>
      <point x="226" y="247" type="curve"/>
      <point x="247" y="237" type="line"/>
      <point x="389" y="402"/>
      <point x="424" y="420"/>
    </contour>
    <contour>
      <point x="2" y="0" type="curve"/>
      <point x="63" y="0" type="line"/>
      <point x="78" y="34"/>
      <point x="84" y="46"/>
      <point x="226" y="231" type="curve"/>
      <point x="205" y="241" type="line"/>
      <point x="45" y="54"/>
      <point x="3" y="34"/>
    </contour>
    <contour>
      <point x="444" y="132" type="curve"/>
      <point x="431" y="138" type="line"/>
      <point x="407" y="87"/>
      <point x="390" y="63"/>
      <point x="366" y="63" type="curve" smooth="yes"/>
      <point x="340" y="63"/>
      <point x="330" y="76"/>
      <point x="317" y="109" type="curve" smooth="yes"/>
      <point x="178" y="460" type="line"/>
      <point x="176" y="460" type="line"/>
      <point x="48" y="430" type="line"/>
      <point x="48" y="424" type="line"/>
      <point x="142" y="386" type="line"/>
      <point x="121" y="402" type="line"/>
      <point x="251" y="79" type="line" smooth="yes"/>
      <point x="272" y="26"/>
      <point x="291" y="-10"/>
      <point x="338" y="-10" type="curve" smooth="yes"/>
      <point x="372" y="-10"/>
      <point x="393" y="16"/>
      <point x="421" y="79" type="curve"/>
      <point x="413" y="80" type="line"/>
      <point x="369" y="-37"/>
      <point x="404" y="-118"/>
      <point x="289" y="-118" type="curve" smooth="yes"/>
      <point x="251" y="-118" type="line"/>
      <point x="244" y="-124" type="line"/>
      <point x="244" y="-165" type="line" smooth="yes"/>
      <point x="244" y="-186"/>
      <point x="252" y="-194"/>
      <point x="272" y="-194" type="curve" smooth="yes"/>
      <point x="467" y="-194"/>
      <point x="380" y="-14"/>
    </contour>
  </outline>
</glyph>
<glyph name="uni04E9" format="2">
  <advance width="509"/>
  <unicode hex="04E9"/>
  <outline>
    <contour>
      <point x="120" y="203" type="line"/>
      <point x="379" y="215" type="line"/>
      <point x="387" y="257" type="line"/>
      <point x="128" y="245" type="line"/>
    </contour>
    <contour>
      <point x="220" y="-10" type="curve" smooth="yes"/>
      <point x="366" y="-10"/>
      <point x="459" y="145"/>
      <point x="459" y="266" type="curve" smooth="yes"/>
      <point x="459" y="380"/>
      <point x="405" y="460"/>
      <point x="289" y="460" type="curve" smooth="yes"/>
      <point x="147" y="460"/>
      <point x="50" y="309"/>
      <point x="50" y="184" type="curve" smooth="yes"/>
      <point x="50" y="70"/>
      <point x="104" y="-10"/>
    </contour>
    <contour>
      <point x="231" y="28" type="curve" smooth="yes"/>
      <point x="159.0" y="28.0"/>
      <point x="137.0" y="82.0"/>
      <point x="137" y="181" type="curve" smooth="yes"/>
      <point x="137.0" y="326.0"/>
      <point x="195.0" y="423.0"/>
      <point x="280" y="423" type="curve" smooth="yes"/>
      <point x="351.0" y="423.0"/>
      <point x="372.0" y="370.0"/>
      <point x="372" y="272" type="curve" smooth="yes"/>
      <point x="372.0" y="140.0"/>
      <point x="318.0" y="28.0"/>
    </contour>
  </outline>
</glyph>
<glyph name="Ccedillaacute" format="2">
  <advance width="669"/>
  <unicode hex="1E08"/>
  <outline>
    <contour>
      <point x="320" y="-10" type="curve" smooth="yes"/>
      <point x="430" y="-10"/>
      <point x="488" y="9"/>
      <point x="551" y="39" type="curve"/>
      <point x="589" y="198" type="line"/>
      <point x="573" y="198" type="line"/>
      <point x="493" y="89" type="line"/>
      <point x="454" y="64"/>
      <point x="405" y="36"/>
      <point x="347" y="36" type="curve" smooth="yes"/>
      <point x="233" y="36"/>
      <point x="153" y="128"/>
      <point x="153" y="286" type="curve" smooth="yes"/>
      <point x="153" y="466"/>
      <point x="252" y="624"/>
      <point x="433" y="624" type="curve" smooth="yes"/>
      <point x="484" y="624"/>
      <point x="514" y="606"/>
      <point x="547" y="571" type="curve"/>
      <point x="587" y="447" type="line"/>
      <point x="603" y="447" type="line"/>
      <point x="629" y="622" type="line"/>
      <point x="565" y="657"/>
      <point x="521" y="670"/>
      <point x="445" y="670" type="curve" smooth="yes"/>
      <point x="240" y="670"/>
      <point x="60" y="487"/>
      <point x="60" y="259" type="curve" smooth="yes"/>
      <point x="60" y="101"/>
      <point x="154" y="-10"/>
    </contour>
    <contour>
      <point x="451" y="710" type="line"/>
      <point x="461" y="710" type="line"/>
      <point x="592" y="799" type="line" smooth="yes"/>
      <point x="624" y="821"/>
      <point x="631" y="842"/>
      <point x="635" y="862" type="curve"/>
      <point x="557" y="862" type="line"/>
    </contour>
    <contour>
      <point x="286" y="-240" type="curve" smooth="yes"/>
      <point x="351" y="-240"/>
      <point x="390" y="-200"/>
      <point x="390" y="-151" type="curve" smooth="yes"/>
      <point x="390" y="-101"/>
      <point x="363" y="-74"/>
      <point x="294" y="-50" type="curve"/>
      <point x="298" y="-69" type="line"/>
      <point x="355" y="20" type="line"/>
      <point x="325" y="20" type="line"/>
      <point x="252" y="-95" type="line"/>
      <point x="315" y="-115"/>
      <point x="338" y="-132"/>
      <point x="338" y="-165" type="curve" smooth="yes"/>
      <point x="338" y="-195"/>
      <point x="316" y="-213"/>
      <point x="274" y="-213" type="curve" smooth="yes"/>
      <point x="247" y="-213"/>
      <point x="230" y="-207"/>
      <point x="213" y="-199" type="curve"/>
      <point x="210" y="-199" type="line"/>
      <point x="208" y="-210" type="line"/>
      <point x="222" y="-229"/>
      <point x="252" y="-240"/>
    </contour>
  </outline>
</glyph>
<glyph name="ecedillabreve" format="2">
  <advance width="443.0"/>
  <unicode hex="1E1D"/>
  <outline>
    <contour>
      <point x="199" y="-10" type="curve" smooth="yes"/>
      <point x="264" y="-10"/>
      <point x="332" y="42"/>
      <point x="377" y="121" type="curve"/>
      <point x="367" y="129" type="line"/>
      <point x="365" y="129" type="line"/>
      <point x="320" y="75"/>
      <point x="278" y="52"/>
      <point x="234" y="52" type="curve" smooth="yes"/>
      <point x="159" y="52"/>
      <point x="126" y="103"/>
      <point x="126" y="185" type="curve" smooth="yes"/>
      <point x="126" y="323"/>
      <point x="185" y="425"/>
      <point x="275" y="425" type="curve" smooth="yes"/>
      <point x="308" y="425"/>
      <point x="326" y="405"/>
      <point x="326" y="378" type="curve" smooth="yes"/>
      <point x="326" y="315"/>
      <point x="280" y="288"/>
      <point x="120" y="261" type="curve"/>
      <point x="114" y="225" type="line"/>
      <point x="341" y="260"/>
      <point x="403" y="314"/>
      <point x="403" y="383" type="curve" smooth="yes"/>
      <point x="403" y="424"/>
      <point x="369" y="460"/>
      <point x="302" y="460" type="curve" smooth="yes"/>
      <point x="161" y="460"/>
      <point x="50" y="305"/>
      <point x="50" y="148" type="curve" smooth="yes"/>
      <point x="50" y="51"/>
      <point x="97" y="-10"/>
    </contour>
    <contour>
      <point x="168" y="-240" type="curve" smooth="yes"/>
      <point x="233" y="-240"/>
      <point x="272" y="-200"/>
      <point x="272" y="-151" type="curve" smooth="yes"/>
      <point x="272" y="-101"/>
      <point x="245" y="-74"/>
      <point x="176" y="-50" type="curve"/>
      <point x="180" y="-69" type="line"/>
      <point x="237" y="20" type="line"/>
      <point x="207" y="20" type="line"/>
      <point x="134" y="-95" type="line"/>
      <point x="197" y="-115"/>
      <point x="220" y="-132"/>
      <point x="220" y="-165" type="curve" smooth="yes"/>
      <point x="220" y="-195"/>
      <point x="198" y="-213"/>
      <point x="156" y="-213" type="curve" smooth="yes"/>
      <point x="129" y="-213"/>
      <point x="112" y="-207"/>
      <point x="95" y="-199" type="curve"/>
      <point x="92" y="-199" type="line"/>
      <point x="90" y="-210" type="line"/>
      <point x="104" y="-229"/>
      <point x="134" y="-240"/>
    </contour>
    <contour>
      <point x="317" y="540" type="curve" smooth="yes"/>
      <point x="396" y="540"/>
      <point x="446" y="595"/>
      <point x="481" y="707" type="curve"/>
      <point x="471" y="707" type="line"/>
      <point x="420" y="607"/>
      <point x="379" y="597"/>
      <point x="321" y="597" type="curve" smooth="yes"/>
      <point x="264" y="597"/>
      <point x="229" y="609"/>
      <point x="213" y="707" type="curve"/>
      <point x="203" y="707" type="line"/>
      <point x="207" y="595"/>
      <point x="232" y="540"/>
    </contour>
  </outline>
</glyph>
<glyph name="horizontalbar" format="2">
  <advance width="1000"/>
  <unicode hex="2015"/>
  <outline>
    <contour>
      <point x="0" y="254" type="line"/>
      <point x="993" y="254" type="line"/>
      <point x="1000" y="290" type="line"/>
      <point x="7" y="290" type="line"/>
    </contour>
  </outline>
</glyph>
<glyph name="minute" format="2">
  <advance width="250"/>
  <unicode hex="2032"/>
  <outline>
    <contour>
      <point x="130" y="490" type="line"/>
      <point x="150" y="490" type="line"/>
      <point x="260" y="740" type="line"/>
      <point x="174" y="740" type="line"/>
    </contour>
  </outline>
</glyph>
<glyph name="guilsinglleft" format="2">
  <advance width="238"/>
  <unicode hex="2039"/>
  <outline>
    <contour>
      <point x="17" y="247" type="line"/>
      <point x="159" y="70" type="line"/>
      <point x="169" y="70" type="line"/>
      <point x="93" y="274" type="line"/>
      <point x="84" y="220" type="line"/>
      <point x="221" y="424" type="line"/>
      <point x="211" y="424" type="line"/>
    </contour>
  </outline>
</glyph>
<glyph name="lira" format="2">
  <advance width="500"/>
  <unicode hex="20A4"/>
  <outline>
    <contour>
      <point x="12" y="0" type="line"/>
      <point x="392" y="0" type="line"/>
      <point x="431" y="170" type="line"/>
      <point x="397" y="170" type="line"/>
      <point x="351" y="68" type="line"/>
      <point x="96" y="68" type="line"/>
      <point x="108" y="67" type="line"/>
      <point x="217" y="137"/>
      <point x="246" y="193"/>
      <point x="246" y="259" type="curve" smooth="yes"/>
      <point x="246" y="331"/>
      <point x="193" y="428"/>
      <point x="193" y="502" type="curve" smooth="yes"/>
      <point x="193" y="575"/>
      <point x="244" y="624"/>
      <point x="320" y="624" type="curve" smooth="yes"/>
      <point x="371" y="624"/>
      <point x="401" y="598"/>
      <point x="416" y="559" type="curve" smooth="yes"/>
      <point x="426" y="533" type="line"/>
      <point x="433" y="533" type="line"/>
      <point x="469" y="559" type="line" smooth="yes"/>
      <point x="480" y="567"/>
      <point x="486" y="573"/>
      <point x="486" y="583" type="curve" smooth="yes"/>
      <point x="486" y="591"/>
      <point x="483" y="600"/>
      <point x="475" y="613" type="curve" smooth="yes"/>
      <point x="457" y="641"/>
      <point x="418" y="670"/>
      <point x="347" y="670" type="curve" smooth="yes"/>
      <point x="226" y="670"/>
      <point x="125" y="557"/>
      <point x="125" y="447" type="curve" smooth="yes"/>
      <point x="125" y="377"/>
      <point x="171" y="300"/>
      <point x="171" y="238" type="curve" smooth="yes"/>
      <point x="171" y="172"/>
      <point x="130" y="116"/>
      <point x="17" y="32" type="curve"/>
    </contour>
    <contour>
      <point x="73" y="389" type="line"/>
      <point x="405" y="389" type="line"/>
      <point x="413" y="427" type="line"/>
      <point x="80" y="427" type="line"/>
    </contour>
    <contour>
      <point x="48" y="240" type="line"/>
      <point x="381" y="240" type="line"/>
      <point x="387" y="278" type="line"/>
      <point x="55" y="278" type="line"/>
    </contour>
  </outline>
</glyph>
<glyph name="Euro" format="2">
  <advance width="500"/>
  <unicode hex="20AC"/>
  <outline>
    <contour>
      <point x="255" y="-10" type="curve" smooth="yes"/>
      <point x="323" y="-10"/>
      <point x="387" y="30"/>
      <point x="439" y="128" type="curve"/>
      <point x="423" y="140" type="line"/>
      <point x="421" y="140" type="line"/>
      <point x="379" y="75"/>
      <point x="329" y="44"/>
      <point x="279" y="44" type="curve" smooth="yes"/>
      <point x="208" y="44"/>
      <point x="166" y="90"/>
      <point x="166" y="201" type="curve" smooth="yes"/>
      <point x="166" y="444"/>
      <point x="244" y="623"/>
      <point x="347" y="623" type="curve" smooth="yes"/>
      <point x="382" y="623"/>
      <point x="401" y="599"/>
      <point x="417" y="572" type="curve" smooth="yes"/>
      <point x="442" y="531" type="line"/>
      <point x="449" y="531" type="line"/>
      <point x="481" y="547" type="line" smooth="yes"/>
      <point x="496.294117647" y="555.235294118"/>
      <point x="499" y="561"/>
      <point x="499" y="573" type="curve" smooth="yes"/>
      <point x="499" y="581"/>
      <point x="495" y="589"/>
      <point x="487" y="603" type="curve" smooth="yes"/>
      <point x="465" y="640"/>
      <point x="422" y="670"/>
      <point x="363" y="670" type="curve" smooth="yes"/>
      <point x="212" y="670"/>
      <point x="80" y="462"/>
      <point x="80" y="211" type="curve" smooth="yes"/>
      <point x="80" y="72"/>
      <point x="134" y="-10"/>
    </contour>
    <contour>
      <point x="30" y="390" type="line"/>
      <point x="362" y="390" type="line"/>
      <point x="370" y="428" type="line"/>
      <point x="37" y="428" type="line"/>
    </contour>
    <contour>
      <point x="5" y="240" type="line"/>
      <point x="338" y="240" type="line"/>
      <point x="344" y="278" type="line"/>
      <point x="12" y="278" type="line"/>
    </contour>
  </outline>
</glyph>
